<svg xmlns="http://www.w3.org/2000/svg" width="259" height="58" viewBox="0 0 259 58">
    <g fill="none">
        <path fill="#292B76" d="M82.477 49.75v-6.182h1.208v-1.001H76.6v1.001h1.556v2.318l-.577.447c0 .511.273 1.305.806 1.708h.98v-1.088h1.871v2.797h1.24zm-1.24-3.918h-1.84v-2.264h1.84v2.264zm.391-2.59l.903-.512-1.23-3.265-1.36.305 1.73 2.83-.032.01-3.037-3.08-1.11.686c1.285 1.186 3.091 2.416 4.136 3.026zm1.741-1.752c.48 0 .838-.349.838-.795 0-.49-.359-.849-.838-.849-.457 0-.816.36-.816.85 0 .445.36.794.816.794zm6.16 8.434l1.034-.653-1.1-1.371c-.38-.468-.598-.708-.837-.947l.01-.044c.055.011.142.011.197.011.304-.022.576-.12.805-.283.37.218.892.36 1.49.36.306 0 .567-.033.817-.088v2.84h1.273v-6.18h1.208v-1.002h-8.249v1.001h2.764v1.796c0 .435-.217.61-.555.61-.38 0-.598-.207-.881-.567l-.958.751 2.982 3.766zm1.458-4.038c-.315 0-.598-.032-.827-.098.022-.12.033-.25.033-.391v-1.829h1.752v2.155c-.283.109-.62.163-.958.163zm1.132 7.129c1.644 0 2.297-.958 2.297-1.883 0-1.056-.806-1.698-1.861-1.698-.828 0-1.35.294-1.73.773l.837.74c.174-.272.414-.468.816-.468.392 0 .686.272.686.675 0 .587-.511.849-1.067.849-1.099 0-1.937-.697-2.59-1.622l-.892.827c.61.751 1.796 1.807 3.504 1.807zm5.137-3.146l1.034-.652-1.11-1.372c-.381-.468-.599-.707-.827-.947v-.043c.065.01.152.01.207.01.74-.075 1.36-.489 1.36-1.501v-1.796h1.143v-1.001h-5.224v1.001h2.83v1.752c0 .436-.218.599-.556.599-.391 0-.642-.218-.925-.61l-.957.751 3.025 3.81zm8.935 1.045l1.437-.326-1.067-1.513c.229-.196.36-.5.36-.903 0-.512-.36-.87-.654-1.001l-.783.26v.948c-.164.141-.534.228-.86.228-.73 0-1.208-.446-1.208-1.012 0-.62.533-.925 1.523-1.262.403.195 1.089.326 1.785.326.447 0 .914-.044 1.339-.163l.01 3.254h1.263v-6.182h1.197v-1.001h-2.46v2.775c-.37.196-.88.305-1.37.305-.218 0-.468-.033-.675-.065v-.044c.283-.152.838-.566.838-1.393 0-.969-.806-1.687-2.014-1.687-1.164 0-2.09.708-2.09 1.698 0 .696.436 1.23 1.013 1.502-.882.38-1.61.925-1.61 1.872 0 1.24.99 2.133 2.6 2.133.392 0 .708-.055.936-.12l.49 1.371zm-1.36-5.746c-.534-.163-.893-.533-.893-.99 0-.425.338-.74.904-.74.555 0 .87.315.87.718 0 .566-.479.892-.881 1.012zm-3.886 4.582v-6.182h1.208v-1.001h-1.208v-.62c0-.925.632-1.459 2.46-1.459 2.122 0 3.929.73 4.821 1.48l.631-.816c-.805-.729-2.851-1.752-5.441-1.752-2.547 0-3.733.98-3.733 2.547v.62h-1.208v1.001h1.208v6.182h1.262zm11.417.12l.936-.784c-.74-.533-1.252-1.263-1.252-2.188 0-.718.457-1.055 1.056-1.055h1.251v3.907h1.263v-6.182h1.219v-1.001h-6.878v1.001h4.396v1.176h-1.48c-1.066 0-2.122.663-2.122 2.122 0 1.382.816 2.427 1.61 3.003zm15.388 2.796v-12.2h-.936v12.2h.936zm14.616-1.806l.544-1.034c-2.285-.152-2.894-.751-2.894-1.437 0-.576.544-1.012 1.403-1.012.447 0 .697.218.697.512 0 .305-.196.555-.446.794l1.034.61c.283-.305.555-.73.555-1.306 0-.838-.632-1.611-1.85-1.611-.36 0-.697.044-1.002.13-.326-.163-.511-.435-.511-.696 0-.24.13-.424.577-.424h2.383v-1.818h1.186v-1.001h-6.301v1.001h3.896v.816h-1.47c-.946 0-1.512.49-1.512 1.208 0 .566.305 1.056.838 1.372-.457.359-.718.849-.718 1.382 0 1.545 1.556 2.34 3.591 2.514zm6.965-1.11v-6.182h1.208v-1.001h-7.084v1.001h1.556v2.318l-.577.447c0 .511.272 1.305.805 1.708h.98v-1.088h1.872v2.797h1.24zm-1.24-3.918h-1.84v-2.264h1.84v2.264zm8.293 4.092l1.034-.653-1.1-1.371c-.38-.468-.598-.708-.838-.947l.011-.044c.055.011.142.011.196.011.305-.022.577-.12.806-.283.37.218.892.36 1.49.36.305 0 .566-.033.817-.088v2.84h1.273v-6.18h1.208v-1.002h-8.25v1.001h2.765v1.796c0 .435-.218.61-.555.61-.381 0-.599-.207-.882-.567l-.957.751 2.982 3.766zm1.458-4.038c-.316 0-.599-.032-.827-.098.022-.12.033-.25.033-.391v-1.829h1.752v2.155c-.283.109-.62.163-.958.163zm1.132 7.129c1.643 0 2.296-.958 2.296-1.883 0-1.056-.805-1.698-1.86-1.698-.828 0-1.35.294-1.731.773l.838.74c.174-.272.413-.468.816-.468.392 0 .686.272.686.675 0 .587-.512.849-1.067.849-1.1 0-1.937-.697-2.59-1.622l-.893.827c.61.751 1.796 1.807 3.505 1.807zm5.137-3.146l1.034-.652-1.11-1.372c-.381-.468-.6-.707-.828-.947v-.043c.066.01.153.01.207.01.74-.075 1.36-.489 1.36-1.501v-1.796h1.143v-1.001h-5.224v1.001h2.83v1.752c0 .436-.218.599-.555.599-.392 0-.642-.218-.925-.61l-.958.751 3.026 3.81zm8.935 1.045l1.436-.326-1.066-1.513c.228-.196.359-.5.359-.903 0-.512-.36-.87-.653-1.001l-.784.26v.948c-.163.141-.533.228-.86.228-.729 0-1.208-.446-1.208-1.012 0-.62.534-.925 1.524-1.262.403.195 1.088.326 1.785.326.446 0 .914-.044 1.339-.163l.01 3.254h1.263v-6.182h1.197v-1.001h-2.46v2.775c-.37.196-.881.305-1.37.305-.219 0-.469-.033-.676-.065v-.044c.283-.152.838-.566.838-1.393 0-.969-.805-1.687-2.013-1.687-1.164 0-2.09.708-2.09 1.698 0 .696.436 1.23 1.013 1.502-.882.38-1.611.925-1.611 1.872 0 1.24.99 2.133 2.601 2.133.392 0 .707-.055.936-.12l.49 1.371zm-1.36-5.746c-.534-.163-.893-.533-.893-.99 0-.425.337-.74.903-.74.555 0 .87.315.87.718 0 .566-.478.892-.88 1.012zM167.8 49.75v-6.182h1.208v-1.001H167.8v-.62c0-.925.631-1.459 2.46-1.459 2.122 0 3.928.73 4.82 1.48l.632-.816c-.805-.729-2.851-1.752-5.442-1.752-2.546 0-3.732.98-3.732 2.547v.62h-1.208v1.001h1.208v6.182h1.262zm11.416.12l.936-.784c-.74-.533-1.251-1.263-1.251-2.188 0-.718.457-1.055 1.055-1.055h1.252v3.907h1.262v-6.182h1.22v-1.001h-6.879v1.001h4.397v1.176h-1.48c-1.067 0-2.122.663-2.122 2.122 0 1.382.816 2.427 1.61 3.003zm15.389 2.796v-12.2h-.936v12.2h.936zm16.03-2.916v-6.182h1.209v-1.001h-3.265v1.001h.816v2.264h-2.002V44.21c0-1.12-.697-1.643-1.72-1.643h-1.077v1.001h.816c.555 0 .74.218.74.718v1.6l-.577.447c0 .511.272 1.305.805 1.708h.98v-1.088h2.035v2.797h1.24zm3.091 0v-6.182h1.209v-1.001h-3.679v1.001h1.208v6.182h1.262zm4.038.12l1.034-.653-1.11-1.372c-.381-.468-.599-.707-.827-.947v-.043c.065.01.152.01.207.01.74-.075 1.36-.489 1.36-1.501v-1.796h1.143v-1.001h-5.224v1.001h2.83v1.752c0 .436-.218.599-.556.599-.391 0-.642-.218-.925-.61l-.957.751 3.025 3.81zm3.624 0l.936-.784c-.74-.533-1.251-1.263-1.251-2.188 0-.718.457-1.055 1.055-1.055h1.252v3.907h1.262v-6.182h1.22v-1.001h-6.879v1.001h4.397v1.176h-1.48c-1.067 0-2.123.663-2.123 2.122 0 1.382.817 2.427 1.611 3.003zm10.306.054l1.034-.653-1.099-1.371c-.38-.468-.598-.708-.838-.947l.011-.044c.054.011.141.011.196.011.305-.022.577-.12.805-.283.37.218.893.36 1.491.36.305 0 .566-.033.816-.088v2.84h1.274v-6.18h1.208v-1.002h-8.25v1.001h2.765v1.796c0 .435-.218.61-.555.61-.381 0-.599-.207-.882-.567l-.958.751 2.982 3.766zm1.459-4.038c-.316 0-.599-.032-.827-.098.021-.12.032-.25.032-.391v-1.829h1.752v2.155c-.283.109-.62.163-.957.163zm1.132 7.129c1.643 0 2.296-.958 2.296-1.883 0-1.056-.805-1.698-1.861-1.698-.827 0-1.35.294-1.73.773l.837.74c.175-.272.414-.468.817-.468.392 0 .685.272.685.675 0 .587-.511.849-1.066.849-1.1 0-1.937-.697-2.59-1.622l-.893.827c.61.751 1.796 1.807 3.505 1.807zm5.136-3.146l1.034-.652-1.11-1.372c-.38-.468-.598-.707-.827-.947v-.043c.065.01.152.01.207.01.74-.075 1.36-.489 1.36-1.501v-1.796h1.143v-1.001h-5.224v1.001h2.83v1.752c0 .436-.218.599-.555.599-.392 0-.642-.218-.925-.61l-.958.751 3.025 3.81zm8.935 1.045l1.437-.326-1.067-1.513c.229-.196.36-.5.36-.903 0-.512-.36-.87-.653-1.001l-.784.26v.948c-.163.141-.533.228-.86.228-.729 0-1.208-.446-1.208-1.012 0-.62.533-.925 1.524-1.262.402.195 1.088.326 1.785.326.446 0 .914-.044 1.338-.163l.011 3.254h1.263v-6.182h1.197v-1.001h-2.46v2.775c-.37.196-.881.305-1.371.305-.218 0-.468-.033-.675-.065v-.044c.283-.152.838-.566.838-1.393 0-.969-.805-1.687-2.013-1.687-1.165 0-2.09.708-2.09 1.698 0 .696.436 1.23 1.012 1.502-.881.38-1.61.925-1.61 1.872 0 1.24.99 2.133 2.6 2.133.392 0 .708-.055.937-.12l.49 1.371zm-1.36-5.746c-.533-.163-.892-.533-.892-.99 0-.425.337-.74.903-.74.555 0 .87.315.87.718 0 .566-.478.892-.881 1.012zm-3.885 4.582v-6.182h1.208v-1.001h-1.208v-.62c0-.925.631-1.459 2.46-1.459 2.122 0 3.928.73 4.82 1.48l.632-.816c-.806-.729-2.852-1.752-5.442-1.752-2.546 0-3.733.98-3.733 2.547v.62h-1.208v1.001h1.208v6.182h1.263zm11.416.12l.936-.784c-.74-.533-1.252-1.263-1.252-2.188 0-.718.458-1.055 1.056-1.055h1.252v3.907h1.262v-6.182H259v-1.001h-6.878v1.001h4.397v1.176h-1.48c-1.067 0-2.123.663-2.123 2.122 0 1.382.817 2.427 1.611 3.003zM83.044 28.547l.703-3.023h5.04l.702 3.023h6.444L90.986 9.458h-9.438L76.6 28.548h6.444zm4.612-7.88h-2.81l1.253-5.345h.336l1.221 5.345zm13.913 8.338c.906 0 1.868-.193 2.886-.58 1.018-.387 1.822-.926 2.413-1.619l1.74 1.741h3.055v-10.69c0-3.36-2.444-5.04-7.33-5.04-2.668 0-5.02.316-7.056.948l.733 4.367c1.65-.55 3.625-.824 5.926-.824.427 0 .967.02 1.618.06v1.1h-1.221c-5.539 0-8.308 1.833-8.308 5.498 0 1.995.58 3.36 1.741 4.093.53.346 1.069.59 1.619.733.55.142 1.277.213 2.184.213zm1.878-4.459h-1.252v-1.252c0-.55.168-.901.504-1.054.336-.153.87-.229 1.603-.229h1.252v1.436c0 .325-.127.59-.381.794-.255.203-.83.305-1.726.305zm17.073 4.001v-8.735c.285-.346.82-.631 1.604-.855.784-.224 1.42-.346 1.909-.367l-.367-5.772c-1.812.346-3.319 1.069-4.52 2.168l-1.68-1.71h-3.054v15.271h6.108zm12.828.458c2.85 0 4.912-.666 6.185-2 1.272-1.334 1.909-3.365 1.909-6.093 0-2.729-.637-4.76-1.91-6.094-1.272-1.333-3.333-2-6.184-2-2.85 0-4.912.667-6.185 2-1.272 1.334-1.909 3.365-1.909 6.094 0 2.728.631 4.764 1.894 6.108 1.283 1.324 3.35 1.985 6.2 1.985zm-.58-4.459h-.947V18.56c0-.55.168-.901.504-1.054.336-.153.87-.229 1.603-.229h.947v5.986c0 .55-.168.901-.504 1.054-.336.153-.87.23-1.603.23zm16.874 9.04c2.006 0 3.6-.152 4.78-.457 2.383-.59 3.574-2.118 3.574-4.582 0-1.445-.453-2.438-1.36-2.978-.905-.54-2.458-.87-4.657-.992l.122-.733c2.057-.163 3.487-.637 4.291-1.42.805-.784 1.207-1.98 1.207-3.59 0-1.12-.133-2.035-.397-2.748l1.74-2.046-3.206-3.085L153.079 13c-.754-.122-1.62-.183-2.597-.183-2.708 0-4.662.448-5.864 1.344-1.201.896-1.802 2.234-1.802 4.016s.382 3.09 1.146 3.925c.763.835 1.878 1.384 3.344 1.649l-.916 2.627c0 .183.015.325.045.427.031.102.133.23.306.382.173.153.54.306 1.1.458.56.153 1.745.23 3.558.23v1.068c-.285.041-.774.061-1.466.061-2.322 0-4.348-.295-6.078-.885l-.794 4.55c2.382.611 4.576.917 6.581.917zm-.137-13.438h-.947v-1.985c0-.55.168-.901.504-1.054.336-.153.87-.229 1.604-.229h.946v1.985c0 .55-.168.901-.503 1.054-.336.153-.871.229-1.604.229zm15.455 13.439c1.608 0 2.84-.341 3.695-1.023.855-.683 1.568-2.021 2.138-4.017l3.818-15.271h-6.109l-1.68 9.926h-.305l-1.68-9.926h-6.108l3.42 13.683h3.208l.03.183c-.163.326-.366.6-.61.825-.449.407-1.406.774-2.872 1.1l-2.87.55v3.97h5.925zm15.653-4.582c.906 0 1.868-.193 2.886-.58 1.018-.387 1.822-.926 2.413-1.619l1.74 1.741h3.055v-10.69c0-3.36-2.444-5.04-7.33-5.04-2.668 0-5.02.316-7.056.948l.733 4.367c1.65-.55 3.625-.824 5.926-.824.427 0 .967.02 1.618.06v1.1h-1.221c-5.539 0-8.308 1.833-8.308 5.498 0 1.995.58 3.36 1.741 4.093.53.346 1.069.59 1.619.733.55.142 1.277.213 2.184.213zm1.878-4.459h-1.252v-1.252c0-.55.168-.901.504-1.054.336-.153.87-.229 1.603-.229h1.252v1.436c0 .325-.127.59-.381.794-.255.203-.83.305-1.726.305zm22.143 4.46c1.1 0 1.98-.026 2.642-.077.662-.05 1.43-.199 2.306-.443.876-.244 1.553-.595 2.031-1.054.479-.458.891-1.13 1.237-2.015.346-.886.52-1.97.52-3.253 0-1.792-.51-3.192-1.528-4.2s-2.86-1.644-5.528-1.909l-2.199-.213v-1.497c.794-.102 1.761-.153 2.902-.153 1.14 0 2.657.153 4.55.458l.764-4.886c-2.179-.51-4.622-.764-7.33-.764s-4.627.489-5.757 1.466-1.696 2.77-1.696 5.376c0 1.893.464 3.324 1.39 4.29.927.968 2.632 1.564 5.116 1.787l2.749.245v1.527c-.916.122-2.123.183-3.62.183-1.496 0-3.181-.234-5.054-.702l-.855 5.04c2.26.529 4.713.793 7.36.793zm18.51 0c2.239 0 4.499-.306 6.78-.917l-.734-4.49c-1.934.611-3.848.917-5.742.917-.61 0-1.221-.03-1.832-.092v-1.069c3.42 0 5.778-.392 7.07-1.176 1.294-.784 1.94-2.072 1.94-3.864 0-2.117-.54-3.563-1.619-4.337-1.079-.773-3.039-1.16-5.88-1.16-2.84 0-4.896.667-6.169 2-1.272 1.334-1.909 3.365-1.909 6.094 0 2.728.637 4.76 1.91 6.093 1.272 1.334 3.333 2 6.184 2zm-.276-9.194h-1.252V18.56c0-.55.168-.901.504-1.054.336-.153.87-.229 1.603-.229h1.253v1.252c0 .55-.168.901-.504 1.054-.336.153-.87.23-1.604.23zm18.295 9.071l.275-4.49c-.672-.04-1.273-.112-1.802-.213v-6.964h2.107v-3.94h-2.107v-3.97l-6.108 1.527v2.443H232v3.94h1.528v8.46c0 .489.081.916.244 1.283.265.61.916 1.1 1.955 1.466.834.305 2.647.458 5.436.458zm7.789.122c2.26 0 4-.733 5.222-2.199l1.772 1.741H259V13.276h-6.109v9.987c0 .55-.167.901-.503 1.054-.336.153-.87.23-1.604.23h-.947V13.275h-6.108v10.69c0 1.812.417 3.105 1.252 3.879.835.773 2.158 1.16 3.97 1.16z" transform="translate(0 .2)"/>
        <g>
            <path fill="#FA7A19" d="M31.967 5.212c6.885-6.923 18.079-6.953 25.001-.068l.238.24c6.653 6.873 6.585 17.837-.204 24.626l-.383.375c-.4-1.043-1.016-2.022-1.849-2.87-3.243-3.298-8.546-3.344-11.846-.1L30.833 39.3l-1.96-1.959c-3.271-3.27-8.575-3.27-11.846 0-.84.842-1.465 1.817-1.874 2.857l-9.964-9.964c-6.919-6.92-6.919-18.137 0-25.056l.24-.236c6.86-6.607 17.748-6.593 24.607.084l.188.186.871.876z" transform="translate(0 .2) translate(.08 .72)"/>
            <path fill="#019443" d="M51.186 31.04c1.298 1.319 1.28 3.44-.04 4.738L30.763 55.816 20.58 45.634c-1.308-1.308-1.308-3.43 0-4.738 1.309-1.309 3.43-1.309 4.74 0l5.482 5.481L46.448 31c1.32-1.297 3.44-1.28 4.738.04z" transform="translate(0 .2) translate(.08 .72)"/>
        </g>
    </g>
</svg>
