<svg xmlns="http://www.w3.org/2000/svg" id="logo" viewBox="-395 236.3 167.2 88.7"><style>.st0{fill:#fff}.st5{opacity:.7;fill:#1a4a9c;enable-background:new}.st6{fill:#16498b}</style><path d="M-304.6 246.2c11.9 7.8 5 42.9-19.2 58-24.2 15-51.5 19.5-61.2 2.7-9.8-16.8.5-43.7 24.6-58.7 24.2-15.1 47-7.8 55.8-2z" class="st0"/><linearGradient id="SVGID_1_" x1="-247.216" x2="-222.944" y1="782.045" y2="774.234" gradientTransform="translate(-101 -527.782)" gradientUnits="userSpaceOnUse"><stop offset="0" stop-color="#fedc00"/><stop offset=".302" stop-color="#fbc016"/><stop offset=".593" stop-color="#f9a91d"/><stop offset=".835" stop-color="#f89b20"/><stop offset="1" stop-color="#f89620"/></linearGradient><path fill="url(#SVGID_1_)" d="M-320.6 256.1c-3-2.3-7-3.6-11.2-3.6l2.1-11-8.6 11.3c-4.9.7-10.1 2.5-14.7 5.2l-6.2-8.7c2.7-1.7 5.5-3.4 8.6-4.7 19-7.9 33.5-6 46.1 1.6l-16.1 9.9z"/><radialGradient id="SVGID_2_" cx="-255.46" cy="781.711" r="57.19" gradientTransform="translate(-101 -527.782)" gradientUnits="userSpaceOnUse"><stop offset="0" stop-color="#29abe2"/><stop offset=".23" stop-color="#29a9e1"/><stop offset=".392" stop-color="#25a3dd"/><stop offset=".534" stop-color="#2099d6"/><stop offset=".664" stop-color="#1a8ccc"/><stop offset=".785" stop-color="#137cc1"/><stop offset=".85" stop-color="#0c72ba"/><stop offset="1" stop-color="#0a67b2"/></radialGradient><path fill="url(#SVGID_2_)" d="M-353 258l-6.2-8.7c-7.8 5-14.6 11.4-19.2 18.6l5 2.3-7.8 2.8c-3.4 7.1-4.6 14.7-2.7 22.2l18.8-11.5c-4.2-7.6.8-18.8 12.1-25.7z"/><radialGradient id="SVGID_3_" cx="-255.461" cy="781.71" r="57.188" gradientTransform="translate(-101 -527.782)" gradientUnits="userSpaceOnUse"><stop offset="0" stop-color="#29abe2"/><stop offset=".23" stop-color="#29a9e1"/><stop offset=".392" stop-color="#25a3dd"/><stop offset=".534" stop-color="#2099d6"/><stop offset=".664" stop-color="#1a8ccc"/><stop offset=".785" stop-color="#137cc1"/><stop offset=".85" stop-color="#0c72ba"/><stop offset="1" stop-color="#0a67b2"/></radialGradient><path fill="url(#SVGID_3_)" d="M-356.8 311.8c10-.4 21.6-4.4 33.1-12.9l-9.2-12.8c-4.6 2.5-9.2 4.1-13.5 4.7l-10.4 14.4 1.9-14.6c-3.8-.8-7-2.5-9.2-5.2-.1-.1-.2-.3-.3-.4l-19.2 11.8c2.6 8.2 10.3 13.6 20.4 14.8l5.8-4.8.6 5z"/><radialGradient id="SVGID_4_" cx="-255.459" cy="781.71" r="57.186" gradientTransform="translate(-101 -527.782)" gradientUnits="userSpaceOnUse"><stop offset="0" stop-color="#29abe2"/><stop offset=".23" stop-color="#29a9e1"/><stop offset=".392" stop-color="#25a3dd"/><stop offset=".534" stop-color="#2099d6"/><stop offset=".664" stop-color="#1a8ccc"/><stop offset=".785" stop-color="#137cc1"/><stop offset=".85" stop-color="#0c72ba"/><stop offset="1" stop-color="#0a67b2"/></radialGradient><path fill="url(#SVGID_4_)" d="M-310.4 292.2h-1.4c-32.7 33.4-68.5 25.4-74.3 5-6.4-22.2 16-46.9 39.1-55.2-21.1 4.3-53.9 34-43.6 62.7 7.1 19.8 42.1 25.6 72.3 1.9l-2.3-3.2c5.2-4.4 8.8-8.5 10.2-11.2z"/><path d="M-346.4 290.8l-7.5 10.4-.8 4.4 9.5-12.5c4.2-.7 9.2-2.3 13.7-4.9l-1.5-2.1c-4.5 2.5-9.1 4.1-13.4 4.7zM-355.1 292.9l.3-2.3c-3.8-.8-7-2.5-9.2-5.2-.1-.1-.2-.3-.3-.4l-1.2.7c.2.4.5.8.8 1.2 2.1 3.1 5.5 5.1 9.6 6zM-365.1 271c-2.2 4.6-2.7 9.3-1.2 13.3l1-.6c-1.9-3.7-1.7-8.2.2-12.7z" class="st5"/><path d="M-230.5 265c-1.1-4.1-4.3-5.7-8.8-5.6-1.1 0-2.4.2-3.8.5l4-10.4h-7.7l-12.9 33.6-.1.2h5.4l2.2-1.6s1.2 1.5 3.8 1.9c6.7.9 12.3-3.1 15.3-7.7 2.2-3.2 3.5-7.8 2.6-10.9zm-9.4 10.2c-1.6 2.2-3.7 3.9-6 3.9-2 0-3.9-1.1-2.7-4.8 1.2-3.8 3.7-9.6 3.7-9.6 5.9-2.4 7.8.7 7.7 3 0 1.5-.8 4.8-2.7 7.5zM-339 259.4c-5.1.5-9.1 2-13.1 5.6-3.1 2.8-5.1 7.3-5.2 10.8-.1 4.6 3.3 8.7 10.2 7.6 1.8-.3 4.2-1.8 4.2-1.8l1.1 1.6h5.4l8.5-22.1c-1.9-.7-5.9-2.2-11.1-1.7zm2.4 4.6s-2.4 6.6-4.2 10.4c-1.7 3.7-4.1 4.9-6 4.8-2.1-.1-3.3-1.6-3.3-3.9.1-2.9 1.8-6 3.1-7.5 1.2-1.4 4.6-4.6 10.4-3.8zM-300.4 280.2l7.7-20.2h7.6l-7.2 18.9c2.2 1.1 6.2.5 8-3.4l5.9-15.5h7.7l-7.3 19c3 1 6.3.5 7.9-3.5l5.9-15.5h7.6l-6.1 15.7c-1.5 3.5-4 8.3-12.5 8.3-2.8 0-5.4-1-7.1-2.3-1.9 1.1-5.8 2.3-8.7 2.3s-8.1-1-9.4-3.8z" class="st6"/><g><path d="M-322.3 261.1l-8.5 22.2h7.8l7.2-18.7c1-.3 2.6-.5 3.8-.5 2.5 0 3.6 1 3.4 2.2 0 .3-.1.6-.3.9l-6.1 16h7.8l6-15.7c.2-.6.4-1.2.5-1.8.4-3.4-2-6.4-9.5-6.4-2.4 0-4.4.2-5.8.3-1.1.4-3.3.7-6.3 1.5z" class="st6"/></g><path fill="#e67424" d="M-330.6 246.1l-1.2 6.4c.6 0 1.2 0 1.8.1l1.8-10.7-2.4 4.2z"/><g><path d="M-330 242.9l.3-1.4-8.6 11.3c.7-.1 1.2-.2 1.9-.2l6.4-9.7zM-353.2 290.9c-.8-.1-.9-.1-1.6-.3l-1.9 14.6.8-1.1 2.7-13.2z" class="st0"/></g></svg>
