<?xml version="1.0" encoding="utf-8"?>
<!-- Generator: Adobe Illustrator 19.1.0, SVG Export Plug-In . SVG Version: 6.00 Build 0)  -->
<svg version="1.1" id="logo" xmlns="http://www.w3.org/2000/svg" xmlns:xlink="http://www.w3.org/1999/xlink" x="0px" y="0px"
	 viewBox="-395 236.3 167.2 88.7" style="enable-background:new -395 236.3 167.2 88.7;" xml:space="preserve">
<style type="text/css">
	.st0{fill:#FFFFFF;}
	.st1{fill:url(#SVGID_1_);}
	.st2{fill:url(#SVGID_2_);}
	.st3{fill:url(#SVGID_3_);}
	.st4{fill:url(#SVGID_4_);}
	.st5{opacity:0.7;fill:#1A4A9C;enable-background:new    ;}
	.st6{fill:#16498B;}
	.st7{fill:#E67424;}
</style>
<g>
	<path class="st0" d="M-304.6,246.2c11.9,7.8,5,42.9-19.2,58c-24.2,15-51.5,19.5-61.2,2.7c-9.8-16.8,0.5-43.7,24.6-58.7
		C-336.2,233.1-313.4,240.4-304.6,246.2z"/>
	<g>
		
			<linearGradient id="SVGID_1_" gradientUnits="userSpaceOnUse" x1="-247.2163" y1="782.0453" x2="-222.9444" y2="774.2337" gradientTransform="matrix(1 0 0 1 -101 -527.7822)">
			<stop  offset="0" style="stop-color:#FEDC00"/>
			<stop  offset="0.3019" style="stop-color:#FBC016"/>
			<stop  offset="0.5925" style="stop-color:#F9A91D"/>
			<stop  offset="0.8351" style="stop-color:#F89B20"/>
			<stop  offset="1" style="stop-color:#F89620"/>
		</linearGradient>
		<path class="st1" d="M-320.6,256.1c-3-2.3-7-3.6-11.2-3.6l2.1-11l-8.6,11.3c-4.9,0.7-10.1,2.5-14.7,5.2l-6.2-8.7
			c2.7-1.7,5.5-3.4,8.6-4.7c19-7.9,33.5-6,46.1,1.6L-320.6,256.1z"/>
		<g>
			
				<radialGradient id="SVGID_2_" cx="-255.4602" cy="781.7109" r="57.19" gradientTransform="matrix(1 0 0 1 -101 -527.7822)" gradientUnits="userSpaceOnUse">
				<stop  offset="0" style="stop-color:#29ABE2"/>
				<stop  offset="0.2297" style="stop-color:#29A9E1"/>
				<stop  offset="0.3923" style="stop-color:#25A3DD"/>
				<stop  offset="0.5341" style="stop-color:#2099D6"/>
				<stop  offset="0.6642" style="stop-color:#1A8CCC"/>
				<stop  offset="0.785" style="stop-color:#137CC1"/>
				<stop  offset="0.8504" style="stop-color:#0C72BA"/>
				<stop  offset="1" style="stop-color:#0A67B2"/>
			</radialGradient>
			<path class="st2" d="M-353,258l-6.2-8.7c-7.8,5-14.6,11.4-19.2,18.6l5,2.3l-7.8,2.8c-3.4,7.1-4.6,14.7-2.7,22.2l18.8-11.5
				C-369.3,276.1-364.3,264.9-353,258z"/>
		</g>
		<g>
			
				<radialGradient id="SVGID_3_" cx="-255.4611" cy="781.7104" r="57.188" gradientTransform="matrix(1 0 0 1 -101 -527.7822)" gradientUnits="userSpaceOnUse">
				<stop  offset="0" style="stop-color:#29ABE2"/>
				<stop  offset="0.2297" style="stop-color:#29A9E1"/>
				<stop  offset="0.3923" style="stop-color:#25A3DD"/>
				<stop  offset="0.5341" style="stop-color:#2099D6"/>
				<stop  offset="0.6642" style="stop-color:#1A8CCC"/>
				<stop  offset="0.785" style="stop-color:#137CC1"/>
				<stop  offset="0.8504" style="stop-color:#0C72BA"/>
				<stop  offset="1" style="stop-color:#0A67B2"/>
			</radialGradient>
			<path class="st3" d="M-356.8,311.8c10-0.4,21.6-4.4,33.1-12.9l-9.2-12.8c-4.6,2.5-9.2,4.1-13.5,4.7l-10.4,14.4l1.9-14.6
				c-3.8-0.8-7-2.5-9.2-5.2c-0.1-0.1-0.2-0.3-0.3-0.4l-19.2,11.8c2.6,8.2,10.3,13.6,20.4,14.8l5.8-4.8L-356.8,311.8z"/>
		</g>
		
			<radialGradient id="SVGID_4_" cx="-255.4592" cy="781.7104" r="57.1858" gradientTransform="matrix(1 0 0 1 -101 -527.7822)" gradientUnits="userSpaceOnUse">
			<stop  offset="0" style="stop-color:#29ABE2"/>
			<stop  offset="0.2297" style="stop-color:#29A9E1"/>
			<stop  offset="0.3923" style="stop-color:#25A3DD"/>
			<stop  offset="0.5341" style="stop-color:#2099D6"/>
			<stop  offset="0.6642" style="stop-color:#1A8CCC"/>
			<stop  offset="0.785" style="stop-color:#137CC1"/>
			<stop  offset="0.8504" style="stop-color:#0C72BA"/>
			<stop  offset="1" style="stop-color:#0A67B2"/>
		</radialGradient>
		<path class="st4" d="M-310.4,292.2l-1.4,0c-32.7,33.4-68.5,25.4-74.3,5c-6.4-22.2,16-46.9,39.1-55.2c-21.1,4.3-53.9,34-43.6,62.7
			c7.1,19.8,42.1,25.6,72.3,1.9l-2.3-3.2C-315.4,299-311.8,294.9-310.4,292.2z"/>
		<g>
			<path class="st5" d="M-346.4,290.8l-7.5,10.4l-0.8,4.4l9.5-12.5c4.2-0.7,9.2-2.3,13.7-4.9l-1.5-2.1
				C-337.5,288.6-342.1,290.2-346.4,290.8z"/>
			<path class="st5" d="M-355.1,292.9l0.3-2.3c-3.8-0.8-7-2.5-9.2-5.2c-0.1-0.1-0.2-0.3-0.3-0.4l-1.2,0.7c0.2,0.4,0.5,0.8,0.8,1.2
				C-362.6,290-359.2,292-355.1,292.9z"/>
			<path class="st5" d="M-365.1,271c-2.2,4.6-2.7,9.3-1.2,13.3l1-0.6C-367.2,280-367,275.5-365.1,271z"/>
		</g>
		<path class="st6" d="M-230.5,265c-1.1-4.1-4.3-5.7-8.8-5.6c-1.1,0-2.4,0.2-3.8,0.5l4-10.4h-7.7l-12.9,33.6l-0.1,0.2h0l0,0l0,0
			l5.4,0l2.2-1.6c0,0,1.2,1.5,3.8,1.9c6.7,0.9,12.3-3.1,15.3-7.7C-230.9,272.7-229.6,268.1-230.5,265z M-239.9,275.2
			c-1.6,2.2-3.7,3.9-6,3.9c-2,0-3.9-1.1-2.7-4.8c1.2-3.8,3.7-9.6,3.7-9.6c5.9-2.4,7.8,0.7,7.7,3C-237.2,269.2-238,272.5-239.9,275.2
			z"/>
		<path class="st6" d="M-339,259.4c-5.1,0.5-9.1,2-13.1,5.6c-3.1,2.8-5.1,7.3-5.2,10.8c-0.1,4.6,3.3,8.7,10.2,7.6
			c1.8-0.3,4.2-1.8,4.2-1.8l1.1,1.6l5.4,0l8.5-22.1C-329.8,260.4-333.8,258.9-339,259.4z M-336.6,264c0,0-2.4,6.6-4.2,10.4
			c-1.7,3.7-4.1,4.9-6,4.8c-2.1-0.1-3.3-1.6-3.3-3.9c0.1-2.9,1.8-6,3.1-7.5C-345.8,266.4-342.4,263.2-336.6,264z"/>
		<path class="st6" d="M-300.4,280.2l7.7-20.2h7.6l-7.2,18.9c2.2,1.1,6.2,0.5,8-3.4l5.9-15.5h7.7l-7.3,19c3,1,6.3,0.5,7.9-3.5
			l5.9-15.5h7.6l-6.1,15.7c-1.5,3.5-4,8.3-12.5,8.3c-2.8,0-5.4-1-7.1-2.3c-1.9,1.1-5.8,2.3-8.7,2.3S-299.1,283-300.4,280.2z"/>
		<g>
			<path class="st6" d="M-322.3,261.1l-8.5,22.2h7.8l7.2-18.7c1-0.3,2.6-0.5,3.8-0.5c2.5,0,3.6,1,3.4,2.2c0,0.3-0.1,0.6-0.3,0.9
				l-6.1,16h7.8l6-15.7c0.2-0.6,0.4-1.2,0.5-1.8c0.4-3.4-2-6.4-9.5-6.4c-2.4,0-4.4,0.2-5.8,0.3C-317.1,260-319.3,260.3-322.3,261.1z
				"/>
		</g>
		<path class="st7" d="M-330.6,246.1l-1.2,6.4c0.6,0,1.2,0,1.8,0.1l1.8-10.7L-330.6,246.1z"/>
		<g>
			<path class="st0" d="M-330,242.9l0.3-1.4l-8.6,11.3c0.7-0.1,1.2-0.2,1.9-0.2L-330,242.9z"/>
			<path class="st0" d="M-353.2,290.9c-0.8-0.1-0.9-0.1-1.6-0.3l-1.9,14.6l0.8-1.1L-353.2,290.9z"/>
		</g>
	</g>
</g>
</svg>
