<svg width="480" height="440" fill="none" xmlns="http://www.w3.org/2000/svg"><path fill="#fff" d="M0 0h480v440H0z"/><path fill-rule="evenodd" clip-rule="evenodd" d="M158.515 217.348c6.394-3.721 10.007-9.938 10.775-18.527.659-7.523-1.618-13.37-6.8-17.373-5.052-3.917-11.341-5.898-18.684-5.898h-24.203a.64.64 0 0 0-.088.007.583.583 0 0 1-.071.006 8.75 8.75 0 0 0-4.612 1.374c-.848.518-1.58 1.184-2.228 1.943-1.231 1.41-1.964 3.026-2.128 4.845l-6.457 72.69c-.176 1.975.355 3.701 1.511 5.181.467.617.993 1.166 1.629 1.615 1.243.882 2.71 1.335 4.369 1.371.028 0 .052.006.077.011l.022.005c.02.004.041.007.065.007h28.769c8.175 0 15.451-2.064 21.632-6.139 6.335-4.178 9.908-10.374 10.621-18.403.542-6.023-.633-11.179-3.486-15.286-2.372-3.424-5.97-5.93-10.713-7.429zm-32.931-27.616h14.561c3.816 0 6.914.978 9.184 2.902 2.222 1.869 3.158 4.476 2.849 7.967-.375 4.119-1.789 7.119-4.218 8.916-2.571 1.909-5.54 2.832-9.063 2.832h-15.325l2.012-22.617zm25.173 57.714c-3.145 1.97-7.165 2.954-11.95 2.954h-18.612l2.01-22.693h19.253c5.135 0 9.044.329 11.327 2.345 2.402 2.121 3.32 4.7 3.012 8.233-.386 4.301-2.033 7.308-5.04 9.161zm-81.162-58.798c2.701 0 4.963 1.345 6.179 3.397.776 1.249 1.099 2.676.961 4.296 0 0-.018 9.509-11.818 9.509-1.444 0-4.666-.068-4.666-.068l.833-9.441c.103-1.075.4-2.072.886-2.993 1.427-2.755 4.383-4.7 7.625-4.7zm20.971 22.638a7.19 7.19 0 0 1 3.168.706c2.596 1.206 4.25 3.874 3.977 6.984-.29 3.2-2.504 5.941-5.411 7.113-.975.374-1.999.604-3.096.604h-15.17l-1.327 14.918c-.097 1.165-.453 2.217-.997 3.189-1.468 2.654-4.348 4.527-7.507 4.527-3.236 0-5.842-1.943-6.788-4.704-.324-.935-.435-1.93-.34-3.012l1.326-14.918H43.225c-1.09 0-2.092-.23-2.99-.613-2.703-1.163-4.421-3.904-4.143-7.104.24-2.652 1.813-5 4.027-6.382 1.333-.864 2.83-1.308 4.476-1.308h45.971zm100.61-5.312c5.58-2.144 11.334-3.219 17.128-3.219 8.207 0 14.261 2.278 17.991 6.792 3.08 3.816 4.33 9.226 3.717 16.083l-2.776 31.314c-.195 2.099-1.125 3.911-2.778 5.355-1.654 1.443-3.563 2.185-5.676 2.185-2.862 0-4.983-1.072-6.202-3.081-4.538 2.047-9.854 3.081-15.837 3.081-5.766 0-10.636-1.63-14.453-4.847-3.904-3.275-5.632-7.836-5.123-13.545.647-7.291 5.145-12.611 13.371-15.788 5.14-1.998 12.963-3.425 23.889-4.359l.027-.315c.304-3.411-.176-5.991-1.426-7.656-1.435-1.856-3.797-2.77-7.222-2.77-3.261 0-6.774.767-10.439 2.265-4.589 1.892-6.149 2.105-6.924 2.105-1.708 0-3.103-.574-4.138-1.688-1.041-1.118-1.493-2.543-1.343-4.231.273-3.053 3.031-5.64 8.214-7.681zm10.686 46.543c3.484 0 6.992-.899 10.443-2.69l1.103-12.468c-9.681.645-20.645 2.67-21.163 8.47-.193 2.118.568 3.701 2.308 4.832 1.894 1.237 4.357 1.856 7.309 1.856zm65.45-49.763c-4.39 0-8.731.725-12.94 2.15l1.936-21.686a6.826 6.826 0 0 0-.451-3.182c-.998-2.639-3.514-4.473-6.653-4.473-2.687 0-5.174 1.33-6.755 3.375a7.803 7.803 0 0 0-1.7 4.28l-6.37 71.597c-.413 4.687 1.743 7.685 6.265 8.651 3.556.673 8.346 1.017 14.21 1.017 12.677 0 22.61-3.552 29.539-10.546 5.22-5.212 8.245-12.05 8.979-20.329.82-9.272-1.147-16.776-5.831-22.328-4.799-5.664-11.609-8.526-20.229-8.526zm5.586 42.391c-3.756 4.123-8.901 6.144-15.732 6.144-2.809 0-5.118-.099-6.894-.26l2.912-32.69a25.807 25.807 0 0 1 10.271-2.136c4.476 0 7.98 1.461 10.675 4.466 2.749 3.207 3.907 7.575 3.436 12.941-.421 4.678-1.989 8.559-4.668 11.535zm45.114-40.241a40.12 40.12 0 0 1 12.923-2.15c8.614 0 15.432 2.862 20.229 8.526 4.713 5.552 6.663 13.056 5.842 22.328-.738 8.279-3.753 15.117-8.982 20.329-6.936 6.994-16.877 10.546-29.529 10.546-5.887 0-10.667-.344-14.223-1.017-4.516-.966-6.684-3.964-6.255-8.651l6.351-71.597a7.823 7.823 0 0 1 1.709-4.266c1.571-2.051 4.063-3.389 6.753-3.389 3.168 0 5.695 1.858 6.684 4.51.362.961.515 2.005.42 3.145l-1.922 21.686zm2.785 46.385c6.828 0 11.972-2.021 15.738-6.144 2.67-2.976 4.241-6.857 4.658-11.535.473-5.366-.679-9.734-3.444-12.941-2.686-3.005-6.178-4.466-10.664-4.466-3.556 0-7.01.727-10.27 2.136l-2.907 32.69c1.77.161 4.073.26 6.889.26zm73.856-48.534c-9.202 0-16.894 2.858-22.868 8.51-6.045 5.707-9.501 12.989-10.262 21.605-.813 9.198 1.314 16.77 6.34 22.47 5.171 6.063 12.901 9.144 22.946 9.144 6.488 0 12.609-1.173 18.209-3.49 4.643-1.972 7.133-4.497 7.401-7.547.159-1.742-.288-3.255-1.319-4.541-1.383-1.719-3.269-2.413-5.96-1.78a7.088 7.088 0 0 0-1.708.661c-.325.196-.832.448-1.515.743-.291.132-.567.259-.824.377l-.001.001a37.25 37.25 0 0 1-1.067.48c-3.668 1.587-7.433 2.392-11.192 2.392-5.482 0-9.476-1.705-12.234-5.177-1.773-2.221-2.802-4.959-3.066-8.192h34.72c2.415 0 4.447-.816 6.026-2.439 1.534-1.572 2.42-3.575 2.632-5.97.68-7.631-1.212-14.05-5.645-19.127-5.005-5.386-11.935-8.12-20.613-8.12zm-16.16 24.323c.683-2.919 2.014-5.41 3.978-7.433 2.787-2.73 6.445-4.067 11.167-4.067 4.214 0 7.352 1.257 9.56 3.81 1.714 2.138 2.563 4.656 2.589 7.69h-27.294zm67.918-48.138c.758 1.246 1.088 2.67.944 4.278l-6.55 73.725a7.774 7.774 0 0 1-.988 3.161c-1.47 2.642-4.326 4.501-7.473 4.501-3.221 0-5.821-1.932-6.759-4.682-.315-.921-.434-1.908-.343-2.98l6.55-73.725a7.862 7.862 0 0 1 .88-2.981c1.426-2.738 4.36-4.674 7.582-4.674 2.691 0 4.941 1.338 6.157 3.377z" fill="#FF790F"/></svg>