<svg xmlns="http://www.w3.org/2000/svg" xmlns:xlink="http://www.w3.org/1999/xlink"><defs><style>#logo-mark{visibility:hidden}@media all and (max-width:55px){#logo-mark{visibility:visible}#logo-full{visibility:hidden}}</style></defs><title>Bakken &amp; Bæck</title><svg id="logo-full" viewBox="0 0 305 28"><path d="M9.137.56c5.092 0 8.088 2.987 8.088 7.131 0 2.801-1.647 4.892-3.931 5.713 2.808.747 4.755 3.174 4.755 6.31 0 4.256-3.295 7.318-8.238 7.318H0V.56h9.137zm-.6 11.2c2.622 0 4.194-1.493 4.194-3.695 0-2.24-1.572-3.696-4.306-3.696h-3.97v7.393h4.083v-.001zm.487 11.463c2.696 0 4.456-1.456 4.456-3.808 0-2.278-1.535-3.883-4.307-3.883H4.456v7.692h4.568v-.001zM37.552 20.386H26.318l-2.471 6.646H19.09L29.426.56h5.205l10.335 26.472H40.06l-2.508-6.646zm-9.661-4.144h8.088L31.935 5.413 27.89 16.242zM55.887 15.57l-3.52 3.845v7.617h-4.493V.56h4.493v12.695L63.787.56h5.918L58.958 12.246l10.859 14.786h-5.655L55.887 15.57zM80.809 15.57l-3.52 3.845v7.617h-4.493V.56h4.493v12.695L88.709.56h5.917L83.88 12.246l10.859 14.786h-5.655L80.81 15.57zM97.717 27.032V.56h16.4v4.181H102.21v7.02h10.784v4.07H102.21v7.018h11.908v4.182H97.717zM136.178 27.032l-13.105-20.05v20.05h-4.494V.56h5.73l12.057 18.78V.56h4.493v26.472h-4.68zM204.593.56c5.092 0 8.088 2.987 8.088 7.131 0 2.801-1.648 4.892-3.932 5.713 2.809.747 4.756 3.174 4.756 6.31 0 4.256-3.295 7.318-8.238 7.318h-9.811V.56h9.137zm-.599 11.2c2.621 0 4.194-1.493 4.194-3.695 0-2.24-1.573-3.696-4.307-3.696h-3.969v7.393h4.082v-.001zm.487 11.463c2.696 0 4.456-1.456 4.456-3.808 0-2.278-1.535-3.883-4.307-3.883h-4.718v7.692h4.569v-.001zM234.277 27.032V20.31h-10.372l-4.307 6.72h-5.578L231.619.56h19.06v4.181h-11.908v7.02h10.785v4.07H238.77v7.018h11.909v4.182h-16.403zm0-10.566V4.219l-7.9 12.247h7.9zM290.578 15.57l-3.52 3.845v7.617h-4.493V.56h4.494v12.695L298.479.56h5.917L293.65 12.246l10.86 14.786h-5.654l-8.277-11.462zM274.51 18.248c-1.085 2.684-3.557 5.05-7.624 5.05-4.531 0-8.8-3.287-8.8-9.484 0-6.421 4.38-9.595 8.762-9.595 4.12 0 6.539 2.202 7.503 5.072l4.247-1.351C277.204 3.595 273.271 0 266.848 0c-6.89 0-13.368 5.19-13.368 13.814 0 8.625 6.254 13.777 13.406 13.777 6.359 0 10.311-3.78 11.765-7.947l-4.142-1.396zM182.782 27.051l-5.355-6.899c1.176-2.353 1.882-5.18 1.842-8.405h-4.095c-.006.069-.013.134-.018.202-.006.078-.013.156-.017.243-.034.347-.02.711-.101 1.163-.064.441-.113.923-.241 1.414-.057.247-.1.505-.169.76l-.222.73-9.165-11.808h9.888V.562h-18.066l3.135 4.001 2.625 3.382c-.164.055-.327.111-.49.173-.873.349-1.696.854-2.45 1.455-.746.614-1.386 1.355-1.929 2.16-.538.81-.934 1.704-1.232 2.624-.13.461-.26.922-.337 1.465l-.062.393c-.02.132-.02.2-.03.304l-.047.573-.006.123v.068l.001.09.002.18.006.358c-.002.24.022.479.05.718.036.48.132.955.233 1.427.236.937.573 1.855 1.056 2.7.489.838 1.077 1.62 1.781 2.281.713.65 1.5 1.208 2.348 1.614.424.196.855.38 1.292.51l.657.187c.216.053.458.09.686.13l-.037.002c.352.068.815.113 1.327.133l.143.008.086-.001c.657.014 1.382-.02 2.096-.115l.033-.004c.372-.05.737-.117 1.085-.204.075-.018.149-.042.224-.062.099-.028.202-.05.297-.082l-.04.002c1.644-.483 3.222-1.38 4.614-2.642l.143-.118.05-.051c.226-.213.442-.442.656-.675l2.627 3.385h5.126v-.003zm-15.298-3.839a7.698 7.698 0 0 1-.923.096h-.008a7.249 7.249 0 0 1-.45.004l-.09.001h-.064l-.042-.003-.16-.016-.026-.002c-.282-.026-.594-.05-.697-.097-.1-.027-.19-.036-.302-.067l-.356-.114c-.238-.074-.463-.185-.689-.292a5.37 5.37 0 0 1-2.181-2.149c-.266-.47-.445-.996-.582-1.536-.051-.276-.111-.55-.125-.836a2.59 2.59 0 0 1-.025-.427v-.216l-.002-.107-.001-.054-.001-.027v-.007l.036-.491c.008-.088.01-.21.024-.267l.034-.174c.025-.216.102-.493.173-.768.171-.53.386-1.043.68-1.495a5.368 5.368 0 0 1 2.32-1.999c.465-.184.94-.345 1.44-.389.1-.02.203-.026.306-.03l6.608 8.511c-1.46 1.843-3.266 2.686-4.897 2.951z"/></svg><svg id="logo-mark" viewBox="0 0 89 35"><path d="M11.759 29.24c3.456 0 5.712-1.872 5.712-4.897 0-2.928-1.968-4.992-5.52-4.992H5.902v9.889h5.857zm-.625-14.738c3.362 0 5.377-1.92 5.377-4.752 0-2.88-2.015-4.753-5.52-4.753H5.902v9.505h5.232zM11.903.101c6.528 0 10.368 3.841 10.368 9.169 0 3.6-2.111 6.289-5.039 7.345 3.6.96 6.096 4.081 6.096 8.113 0 5.472-4.225 9.408-10.561 9.408H.19V.101h11.713zM77.242 29.24c3.455 0 5.712-1.872 5.712-4.897 0-2.928-1.968-4.992-5.521-4.992h-6.049v9.889h5.858zm-.625-14.738c3.361 0 5.377-1.92 5.377-4.752 0-2.88-2.016-4.753-5.521-4.753h-5.089v9.505h5.233zM77.385.101c6.529 0 10.368 3.841 10.368 9.169 0 3.6-2.111 6.289-5.04 7.345 3.601.96 6.097 4.081 6.097 8.113 0 5.472-4.225 9.408-10.561 9.408H65.672V.101h11.713zM42.659 29.23a9.862 9.862 0 0 1-1.178.123h-.005l-.011.001a10.12 10.12 0 0 1-.576.005h-.116l-.083.002-.054-.006-.205-.02-.033-.003c-.361-.033-.761-.064-.894-.125-.128-.034-.244-.046-.387-.085l-.456-.147c-.305-.096-.593-.238-.883-.376-1.14-.597-2.121-1.552-2.797-2.763-.339-.604-.57-1.28-.744-1.975-.066-.355-.143-.708-.162-1.076-.02-.181-.041-.363-.032-.549l-.001-.277-.002-.138-.001-.069-.001-.035v-.009l.047-.632c.01-.112.014-.27.03-.344l.045-.222c.032-.279.129-.635.221-.989.22-.682.495-1.341.873-1.921.754-1.164 1.796-2.051 2.973-2.57.596-.237 1.205-.444 1.846-.5.129-.027.261-.034.393-.04l8.471 10.944c-1.872 2.371-4.187 3.455-6.278 3.796zm19.612 4.937l-6.866-8.871c1.507-3.025 2.412-6.66 2.361-10.807h-5.251c-.006.089-.016.172-.023.26-.008.1-.017.201-.022.312-.043.446-.026.915-.13 1.496-.082.567-.145 1.187-.309 1.818-.072.318-.128.649-.216.978l-.285.937L39.78 5.109h12.678v-5H29.297l4.019 5.143L36.681 9.6c-.21.071-.42.143-.628.223-1.12.448-2.174 1.098-3.141 1.87-.957.789-1.777 1.742-2.473 2.776-.69 1.043-1.198 2.191-1.581 3.374-.167.593-.333 1.185-.431 1.884l-.08.505c-.025.169-.024.258-.038.391l-.061.737-.007.159.001.086.001.116.003.231.007.461c-.003.308.028.616.063.924.047.616.17 1.226.3 1.833.303 1.205.734 2.385 1.354 3.471.626 1.078 1.38 2.083 2.283 2.934.914.833 1.921 1.553 3.009 2.074.544.252 1.096.489 1.657.657l.842.24c.277.068.586.116.88.167l-.047.003c.451.088 1.044.145 1.701.17l.183.011.11-.002c.842.018 1.772-.026 2.687-.147l.042-.006c.478-.064.945-.151 1.391-.262.096-.024.191-.054.286-.08.127-.036.26-.065.382-.106l-.052.004c2.109-.622 4.131-1.776 5.916-3.397l.184-.153.064-.065c.289-.274.565-.569.839-.868l3.368 4.352h6.576z"/></svg></svg>