<?xml version="1.0" encoding="utf-8"?>
<svg xmlns="http://www.w3.org/2000/svg" viewBox="0 0 1060 378"><path fill="#231F20" d="M76.1 247.8l14.8-116.3c.3-2.3 2.1-4 4.4-4.2l52.5-4.8a36.3 36.3 0 0 1 24.7 6.4 28.2 28.2 0 0 1 10.8 19.8c.4 4.2 0 8.3-1.2 12.2a36.3 36.3 0 0 1-13.7 18.7A28.6 28.6 0 0 1 158 184c2.8.5 5.4 1.5 7.7 2.9 2.4 1.5 4.4 3.2 6.2 5.3 1.7 2.1 3.1 4.5 4.2 7.1 1.1 2.7 1.7 5.3 1.9 8.1.4 4.5 0 9-1.2 13.5a34.5 34.5 0 0 1-19 22.4 51.3 51.3 0 0 1-19.1 5l-57.2 5.2c-3.2 0-5.8-2.6-5.4-5.7zm59.5-18.9c3.6-.3 6.7-1.2 9.3-2.5a22 22 0 0 0 6.5-5 18.7 18.7 0 0 0 4.5-14.1c-.4-4.3-2.1-7.7-5.2-10.2a16.7 16.7 0 0 0-12.2-3.1l-30.4 2.8c-2.3.2-4.1 2-4.4 4.2l-3.2 25.1a5 5 0 0 0 5.3 5.5l29.8-2.7zm6.4-54.7c3.7-.3 6.8-1.1 9.2-2.4a16 16 0 0 0 8.5-11c.5-2.2.6-4.4.4-6.6-.4-3.9-2.1-7-5.2-9.2a16.3 16.3 0 0 0-11.2-2.8l-29.1 2.7c-2.3.2-4.1 2-4.4 4.2l-2.9 22.3a5 5 0 0 0 5.3 5.5l29.4-2.7zM306 235c-8.4.8-15.9.4-22.4-1a45.5 45.5 0 0 1-16.9-7.2 36 36 0 0 1-11.1-12.5 43.8 43.8 0 0 1-4.8-25.8l9.2-72.4c.3-2.3 2.1-4 4.4-4.2l12.2-1.1a4.9 4.9 0 0 1 5.3 5.5l-9 69.7-.2 2.8a25.3 25.3 0 0 0 9.4 21.4c2.7 2.1 5.9 3.6 9.7 4.6 3.8 1 8 1.3 12.7.9 10.3-.9 17.8-4.6 22.6-10.9a52 52 0 0 0 9.2-24.6l9.1-71.9c.3-2.3 2.1-4 4.4-4.2L362 103a5 5 0 0 1 5.3 5.4l-8.9 70.3c-1 7.7-2.7 14.8-4.9 21.4a52.2 52.2 0 0 1-9.5 17.2 47.4 47.4 0 0 1-15.4 12c-6.5 3-13.9 4.9-22.6 5.7zm172.5-15.7c-5.8.5-11.5.5-17-.1a68.8 68.8 0 0 1-28.6-9.5 41.9 41.9 0 0 1-6.9-5.3 4.6 4.6 0 0 1-.5-6.3l6.6-9.1c1.7-2.4 5-2.6 7.2-.7a48 48 0 0 0 14.8 8.6 55 55 0 0 0 24.4 3c4-.4 7.3-1.2 10.1-2.6 2.7-1.4 4.9-3 6.6-4.9 1.6-1.9 2.8-3.9 3.5-6.1.7-2.2.9-4.3.7-6.2-.3-3.3-2.1-6-5.3-8-3.2-2-7.2-3.8-11.8-5.3-4.6-1.5-9.7-3-15.2-4.4a79.2 79.2 0 0 1-15.3-5.6 40.3 40.3 0 0 1-12.1-9 23.6 23.6 0 0 1-5.9-14.4 34 34 0 0 1 1.9-14.7c1.7-4.8 4.5-9.2 8.2-13.2 3.8-4 8.4-7.3 14-10a53.7 53.7 0 0 1 18.9-5 70 70 0 0 1 27.5 2.8 50.5 50.5 0 0 1 18.3 9.9 5 5 0 0 1 .7 6.6l-6.7 9a4.9 4.9 0 0 1-7.1.8 41.6 41.6 0 0 0-14-7.3 52.6 52.6 0 0 0-20.2-2.2c-3 .3-5.7 1-8 2a22.2 22.2 0 0 0-6.1 4 16.6 16.6 0 0 0-3.8 5.4c-.9 2-1.2 4.1-1 6.2.3 3.1 2 5.6 5.3 7.5 3.2 1.9 7.1 3.6 11.8 5l15.2 4.4a79.5 79.5 0 0 1 15.3 5.8c4.7 2.4 8.8 5.4 12.1 9.2 3.4 3.7 5.4 8.6 5.9 14.5a38.8 38.8 0 0 1-9.7 29.7 45.7 45.7 0 0 1-14 10.4 58.3 58.3 0 0 1-19.8 5.1zM612.1 199l12.1-94.5a5 5 0 0 0-5.3-5.5l-25.5 2.3a4.9 4.9 0 0 1-5.3-5.4l1.2-9.8a4.9 4.9 0 0 1 4.4-4.3l86.8-7.9a4.9 4.9 0 0 1 5.3 5.4l-1.2 9.8a4.9 4.9 0 0 1-4.4 4.3l-29.7 2.7c-2.3.2-4.1 2-4.4 4.2l-12.7 98.8c-.3 2.3-2.1 4-4.4 4.2l-11.8 1.1a4.8 4.8 0 0 1-5.1-5.4zm124.8-11.4l14.8-116.3c.3-2.3 2.1-4 4.4-4.2l11.8-1.1a5 5 0 0 1 5.3 5.4l-12 94.5a4.8 4.8 0 0 0 5.3 5.4l42.5-3.9a5 5 0 0 1 5.3 5.4l-1.3 9.8c-.3 2.3-2.1 4-4.4 4.2l-66.3 6a4.6 4.6 0 0 1-5.4-5.2zm144-13.1l14.8-116.3c.3-2.3 2.1-4 4.4-4.2l74.9-6.8a4.9 4.9 0 0 1 5.3 5.4l-1.2 9.8a4.9 4.9 0 0 1-4.4 4.3l-55.3 5c-2.3.2-4.1 2-4.4 4.2l-2.9 22.3a5 5 0 0 0 5.3 5.5l49.7-4.5a5 5 0 0 1 5.3 5.4l-1.3 9.8c-.3 2.3-2.1 4-4.4 4.2l-54 4.9c-2.3.2-4.1 2-4.4 4.2l-3.2 25.1a5 5 0 0 0 5.3 5.5l51-4.6a5 5 0 0 1 5.3 5.4l-1.3 9.8c-.3 2.3-2.1 4-4.4 4.2l-74.9 6.8c-3 .3-5.6-2.3-5.2-5.4zM71.8 326.3l-.9-10a5 5 0 0 1 4.6-5.4l658.9-57.6c1.4-.1 2.8.4 3.8 1.3l48.4 44.5a5 5 0 0 0 7.1-.3l49-53.6a5 5 0 0 1 3.3-1.6l136.8-12a5 5 0 0 1 5.4 4.6l.9 10a5 5 0 0 1-4.6 5.4l-129 11.3c-1.3.1-2.4.7-3.3 1.6l-57.3 62.7a5 5 0 0 1-7.1.3l-56.7-52.1c-1-1-2.4-1.4-3.8-1.3l-650 56.8a5.1 5.1 0 0 1-5.5-4.6z"/></svg>
