<?xml version="1.0" encoding="utf-8"?>
<!-- Generator: Adobe Illustrator 19.2.1, SVG Export Plug-In . SVG Version: 6.00 Build 0)  -->
<svg version="1.1" id="Layer_1" xmlns="http://www.w3.org/2000/svg" xmlns:xlink="http://www.w3.org/1999/xlink" x="0px" y="0px"
	 viewBox="0 0 1060 378" enable-background="new 0 0 1060 378" xml:space="preserve">
<g>
	<path fill="#231F20" d="M76.1,247.8l14.8-116.3c0.3-2.3,2.1-4,4.4-4.2l52.5-4.8c5.1-0.5,9.7-0.1,13.8,1.1c4.2,1.2,7.8,2.9,10.9,5.3
		c3.1,2.3,5.6,5.2,7.4,8.6c1.9,3.4,3,7.1,3.4,11.2c0.4,4.2,0,8.3-1.2,12.2c-1.2,3.9-3,7.4-5.3,10.6c-2.3,3.1-5.1,5.8-8.4,8.1
		c-3.3,2.2-6.8,3.7-10.4,4.4c2.8,0.5,5.4,1.5,7.7,2.9c2.4,1.5,4.4,3.2,6.2,5.3c1.7,2.1,3.1,4.5,4.2,7.1c1.1,2.7,1.7,5.3,1.9,8.1
		c0.4,4.5,0,9-1.2,13.5c-1.2,4.5-3.4,8.7-6.5,12.6c-3.1,3.8-7.3,7.1-12.5,9.8c-5.2,2.7-11.5,4.3-19.1,5l-57.2,5.2
		C78.3,253.5,75.7,250.9,76.1,247.8z M135.6,228.9c3.6-0.3,6.7-1.2,9.3-2.5c2.6-1.4,4.8-3,6.5-5c1.7-2,2.9-4.1,3.7-6.6
		c0.8-2.4,1-4.9,0.8-7.5c-0.4-4.3-2.1-7.7-5.2-10.2c-3.1-2.5-7.2-3.5-12.2-3.1l-30.4,2.8c-2.3,0.2-4.1,2-4.4,4.2l-3.2,25.1
		c-0.4,3.1,2.2,5.7,5.3,5.5L135.6,228.9z M142,174.2c3.7-0.3,6.8-1.1,9.2-2.4c2.4-1.3,4.4-2.9,5.7-4.8c1.4-1.9,2.3-4,2.8-6.2
		c0.5-2.2,0.6-4.4,0.4-6.6c-0.4-3.9-2.1-7-5.2-9.2c-3.1-2.2-6.9-3.2-11.2-2.8l-29.1,2.7c-2.3,0.2-4.1,2-4.4,4.2l-2.9,22.3
		c-0.4,3.1,2.2,5.7,5.3,5.5L142,174.2z"/>
	<path fill="#231F20" d="M306,235c-8.4,0.8-15.9,0.4-22.4-1c-6.6-1.5-12.2-3.8-16.9-7.2c-4.7-3.3-8.4-7.5-11.1-12.5
		c-2.7-5-4.3-10.6-4.9-16.9c-0.1-1.5-0.2-3.1-0.2-4.8c0-1.7,0.1-3.1,0.3-4.1l9.2-72.4c0.3-2.3,2.1-4,4.4-4.2l12.2-1.1
		c3.1-0.3,5.7,2.4,5.3,5.5l-9,69.7c-0.1,0.6-0.1,1.6-0.2,2.8c-0.1,1.3,0,2.6,0.1,3.9c0.3,3.6,1.3,6.9,2.9,9.9c1.6,3,3.7,5.6,6.4,7.6
		c2.7,2.1,5.9,3.6,9.7,4.6c3.8,1,8,1.3,12.7,0.9c10.3-0.9,17.8-4.6,22.6-10.9c4.8-6.3,7.8-14.6,9.2-24.6l9.1-71.9
		c0.3-2.3,2.1-4,4.4-4.2l12.2-1.1c3.1-0.3,5.6,2.4,5.3,5.4l-8.9,70.3c-1,7.7-2.7,14.8-4.9,21.4c-2.2,6.6-5.4,12.3-9.5,17.2
		c-4.1,4.9-9.2,8.9-15.4,12C322.1,232.3,314.7,234.2,306,235z"/>
	<path fill="#231F20" d="M478.5,219.3c-5.8,0.5-11.5,0.5-17-0.1c-5.5-0.6-10.7-1.7-15.5-3.4c-4.8-1.6-9.2-3.7-13.1-6.1
		c-2.6-1.6-4.9-3.4-6.9-5.3c-1.8-1.7-2-4.4-0.5-6.3l6.6-9.1c1.7-2.4,5-2.6,7.2-0.7c4.2,3.6,9.1,6.5,14.8,8.6
		c7.6,2.8,15.7,3.8,24.4,3c4-0.4,7.3-1.2,10.1-2.6c2.7-1.4,4.9-3,6.6-4.9c1.6-1.9,2.8-3.9,3.5-6.1c0.7-2.2,0.9-4.3,0.7-6.2
		c-0.3-3.3-2.1-6-5.3-8c-3.2-2-7.2-3.8-11.8-5.3c-4.6-1.5-9.7-3-15.2-4.4c-5.5-1.4-10.6-3.3-15.3-5.6c-4.7-2.3-8.7-5.3-12.1-9
		c-3.4-3.7-5.4-8.5-5.9-14.4c-0.5-4.9,0.2-9.8,1.9-14.7c1.7-4.8,4.5-9.2,8.2-13.2c3.8-4,8.4-7.3,14-10c5.6-2.7,11.9-4.4,18.9-5
		c9.6-0.9,18.8,0.1,27.5,2.8c7.1,2.2,13.2,5.5,18.3,9.9c1.9,1.6,2.2,4.5,0.7,6.6l-6.7,9c-1.7,2.3-4.9,2.6-7.1,0.8
		c-4.1-3.3-8.8-5.7-14-7.3c-6.9-2.1-13.7-2.8-20.2-2.2c-3,0.3-5.7,1-8,2c-2.4,1.1-4.4,2.4-6.1,4c-1.7,1.6-2.9,3.4-3.8,5.4
		c-0.9,2-1.2,4.1-1,6.2c0.3,3.1,2,5.6,5.3,7.5c3.2,1.9,7.1,3.6,11.8,5c4.6,1.4,9.7,2.9,15.2,4.4c5.5,1.5,10.6,3.4,15.3,5.8
		c4.7,2.4,8.8,5.4,12.1,9.2c3.4,3.7,5.4,8.6,5.9,14.5c0.5,5.4-0.1,10.7-1.7,15.8c-1.7,5.1-4.3,9.8-8,13.9c-3.7,4.1-8.3,7.6-14,10.4
		C492.4,216.9,485.9,218.7,478.5,219.3z"/>
	<path fill="#231F20" d="M612.1,199l12.1-94.5c0.4-3.1-2.2-5.7-5.3-5.5l-25.5,2.3c-3.1,0.3-5.6-2.3-5.3-5.4l1.2-9.8
		c0.3-2.3,2.1-4.1,4.4-4.3l86.8-7.9c3.1-0.3,5.6,2.3,5.3,5.4l-1.2,9.8c-0.3,2.3-2.1,4.1-4.4,4.3l-29.7,2.7c-2.3,0.2-4.1,2-4.4,4.2
		l-12.7,98.8c-0.3,2.3-2.1,4-4.4,4.2l-11.8,1.1C614.3,204.7,611.7,202.1,612.1,199z"/>
	<path fill="#231F20" d="M736.9,187.6l14.8-116.3c0.3-2.3,2.1-4,4.4-4.2l11.8-1.1c3.1-0.3,5.6,2.4,5.3,5.4l-12,94.5
		c-0.4,3.1,2.2,5.7,5.3,5.4l42.5-3.9c3.1-0.3,5.6,2.4,5.3,5.4l-1.3,9.8c-0.3,2.3-2.1,4-4.4,4.2l-66.3,6
		C739,193.4,736.5,190.7,736.9,187.6z"/>
	<path fill="#231F20" d="M880.9,174.5l14.8-116.3c0.3-2.3,2.1-4,4.4-4.2l74.9-6.8c3.1-0.3,5.6,2.3,5.3,5.4l-1.2,9.8
		c-0.3,2.3-2.1,4.1-4.4,4.3l-55.3,5c-2.3,0.2-4.1,2-4.4,4.2l-2.9,22.3c-0.4,3.1,2.2,5.7,5.3,5.5l49.7-4.5c3.1-0.3,5.6,2.4,5.3,5.4
		l-1.3,9.8c-0.3,2.3-2.1,4-4.4,4.2l-54,4.9c-2.3,0.2-4.1,2-4.4,4.2l-3.2,25.1c-0.4,3.1,2.2,5.7,5.3,5.5l51-4.6
		c3.1-0.3,5.6,2.4,5.3,5.4l-1.3,9.8c-0.3,2.3-2.1,4-4.4,4.2l-74.9,6.8C883.1,180.2,880.5,177.6,880.9,174.5z"/>
	<g>
		<path fill="#231F20" d="M71.8,326.3l-0.9-10c-0.2-2.8,1.8-5.2,4.6-5.4l658.9-57.6c1.4-0.1,2.8,0.4,3.8,1.3l48.4,44.5
			c2,1.9,5.2,1.7,7.1-0.3l49-53.6c0.8-0.9,2-1.5,3.3-1.6l136.8-12c2.8-0.2,5.2,1.8,5.4,4.6l0.9,10c0.2,2.8-1.8,5.2-4.6,5.4
			l-129,11.3c-1.3,0.1-2.4,0.7-3.3,1.6l-57.3,62.7c-1.9,2.1-5.1,2.2-7.1,0.3l-56.7-52.1c-1-1-2.4-1.4-3.8-1.3L77.3,330.9
			C74.5,331.1,72.1,329.1,71.8,326.3z"/>
	</g>
</g>
</svg>
