<svg xmlns="http://www.w3.org/2000/svg" width="1024" height="1024" viewBox="0 0 1024 1024">
  <g fill="none" fill-rule="evenodd">
    <rect width="1024" height="1024" fill="#FFF"/>
    <path fill="#232323" d="M296.433683,436.162876 C276.744606,456.098178 252.072023,466.066779 222.416882,466.066779 C193.246894,466.066779 169.061363,456.342311 149.85744,436.892424 C130.654466,417.442538 121.052979,392.401343 121.052979,361.767891 C121.052979,332.592586 130.897518,308.401581 150.586595,289.194878 C170.276621,269.988174 194.462152,260.385297 223.146036,260.385297 C242.592062,260.385297 260.2152,264.882282 276.015452,273.878152 C291.815703,282.874021 304.090758,295.15191 312.841564,310.71182 C321.59237,326.270779 325.967299,343.288836 325.967299,361.767891 C325.967299,391.427661 316.12276,416.226623 296.433683,436.162876 Z M319.403957,26.2571094 L319.403957,195.470648 C302.388447,178.452591 284.280155,166.174701 265.077181,158.63793 C245.873258,151.101158 224.361294,147.332772 200.539391,147.332772 C162.132494,147.332772 127.616321,156.814058 96.9880245,175.778528 C66.3597276,194.741099 42.5387738,220.633434 25.5232643,253.455533 C8.50775476,286.277632 0,322.624934 0,362.496489 C0,403.340776 8.38622897,440.174444 25.1586869,472.995594 C41.9311448,505.817693 65.7520986,531.710028 96.6234471,550.673549 C127.494796,569.638019 162.862598,579.119305 202.726855,579.119305 C260.579777,579.119305 300.930138,560.155784 323.780784,522.228742 L325.238144,522.228742 L325.238144,574.094157 L440.456936,574.094157 L440.456936,0 L319.403957,26.2571094 Z" transform="translate(260.88 216.287)"/>
  </g>
</svg>
