<svg xmlns="http://www.w3.org/2000/svg" viewBox="0 0 214.6 228.87"><defs><style>.cls-1,.cls-4{fill:#fff;}.cls-2{fill:#d31837;}.cls-3{fill:#0078ae;}.cls-4{font-size:33.33px;font-family:MyriadPro-Semibold, MyriadPro Semibold;font-weight:700;}</style></defs><title>dpz-logo</title><g id="Layer_2" data-name="Layer 2"><g id="Layer_1-2" data-name="Layer 1"><path class="cls-1" d="M210.79 62.11l-58.3-58.3a13 13 0 0 0-18.42 0L85.18 52.7 3.81 134.08a13 13 0 0 0 0 18.42l58.3 58.31a13 13 0 0 0 18.42 0l72.94-72.95 57.32-57.32a13 13 0 0 0 0-18.42"/><path class="cls-2" d="M155.4 83.11a16.87 16.87 0 1 1 5-11.94 16.87 16.87 0 0 1-5 11.94m51.27-16.85L148.37 8a7.2 7.2 0 0 0-10.18 0l-63 63 68.47 68.47 63-63a7.2 7.2 0 0 0 0-10.18"/><path class="cls-3" d="M84.09 131.79a16.86 16.86 0 1 1-4.95 11.94 16.82 16.82 0 0 1 4.95-11.94M58.42 155a16.93 16.93 0 1 1 4.93-12 16.92 16.92 0 0 1-4.93 12M7.93 138.2a7.2 7.2 0 0 0 0 10.18l58.3 58.31a7.2 7.2 0 0 0 10.18 0l63-63L70.93 75.2z"/><text class="cls-4" transform="translate(99.13 220.53)">®</text></g></g></svg>