<svg xmlns="http://www.w3.org/2000/svg" width="140" height="23" viewBox="0 0 125 20.3"><path fill="#53A318" d="M20 10.2c0 2.2-.5 4.1-1.7 5.7-1.9 2.7-5 4.4-8.3 4.4-2.9 0-5.3-1.1-7.2-3.1C.9 15.2 0 12.8 0 9.9c0-2.7 1-5.1 3-7C4.9 1 7.3 0 10.1 0c4.2 0 7.8 2.6 9.4 6.7h-5.4c-1.2-1.3-2.5-1.9-4-1.9C7.2 4.8 5 7.1 5 9.9c0 3.1 2.4 5.5 5.1 5.5 1.8 0 3.4-.9 4.4-2.6H8.9V8.9H20c-.1.4 0 .9 0 1.3zm1.2 9.7V.3h6.5c2 0 3.7.1 4.9 1.1 1.8 1.2 2.6 3 2.6 5.5 0 3.2-1.6 5.5-4.4 6.3l4.8 6.7h-5.9L26 13.6v6.3h-4.8zm5.7-10.5c2.4 0 3.5-.6 3.5-2.4 0-1.6-1-2.3-3.1-2.3H26v4.7h.9zm12-6.5C40.8 1 43.3.1 46 .1c2.6 0 5.1 1 7 2.9 2 1.9 3 4.4 3 7 0 2.8-1 5.3-2.8 7.2-1.9 2-4.5 3-7.2 3-2.9 0-5.3-1-7.3-3-1.8-2-2.8-4.4-2.8-7.2.1-2.8 1.1-5.2 3-7.1zM46 15.4c2.8 0 5.1-2.2 5.1-5.4 0-2.8-2.3-5.1-5-5.1-2.9 0-5.2 2.3-5.2 5.1 0 3 2.4 5.4 5.1 5.4zM62.1.4v12c0 2.2.7 3.3 2.3 3.3 1.7 0 2.5-1.1 2.5-3.3V.4h4.8v12.2c0 4.8-2.9 7.6-7.3 7.6s-7.1-2.7-7.1-7.6V.3l4.8.1zM73 19.9V.3h6.5c2 0 3.7.1 4.9 1.1 1.8 1.2 2.6 3 2.6 5.5s-1.1 4.6-3.1 5.8c-1.2.7-2.8.9-4.8.9h-1.4v6.3H73zm5.8-10.5c2.4 0 3.5-.6 3.5-2.4 0-1.6-1-2.3-3.2-2.3h-1.3v4.7h1zm11.9-6.5C92.5 1 95 .1 97.8.1c2.6 0 5.1 1 7 2.9 2 1.9 3 4.4 3 7 0 2.8-1 5.3-2.8 7.2-1.9 2-4.5 3.1-7.2 3.1-2.9 0-5.3-1-7.3-3-1.8-2-2.8-4.4-2.8-7.3 0-2.8 1.1-5.2 3-7.1zm7.1 12.5c2.8 0 5.1-2.2 5.1-5.4 0-2.8-2.3-5.1-5-5.1-2.9 0-5.2 2.3-5.2 5.1-.1 3 2.4 5.4 5.1 5.4zm10.9 4.5V.3h4.3l7.2 10.8V.3h4.8v19.5h-4.2L113.5 9v10.9h-4.8z"/>
</svg>
