<svg width="171" height="30" viewBox="0 0 171 30" fill="none" xmlns="http://www.w3.org/2000/svg">
<path d="M37.068 16.1735V24.6094H35.3906V5.3905H37.068V14.0716H36.617C37.0133 12.8679 37.6302 11.9848 38.468 11.4207C39.3057 10.8584 40.268 10.5754 41.351 10.5754C42.3057 10.5754 43.1585 10.7792 43.9114 11.1886C44.6642 11.5981 45.2567 12.1905 45.6906 12.9679C46.1246 13.7452 46.3416 14.7075 46.3416 15.8509V24.6094H44.6642V15.9547C44.6642 14.7414 44.3378 13.8037 43.6831 13.1358C43.0302 12.4697 42.1491 12.1358 41.0397 12.1358C40.2925 12.1358 39.6189 12.2886 39.0208 12.5943C38.4227 12.8999 37.9472 13.3528 37.5963 13.9547C37.2435 14.5565 37.068 15.2962 37.068 16.1735Z" fill="#2A505F"/>
<path d="M55.4472 24.8924C54.1566 24.8924 53.0415 24.5849 52.1 23.9698C51.1585 23.3547 50.4321 22.5075 49.9208 21.4283C49.4094 20.349 49.1528 19.1226 49.1528 17.7452C49.1528 16.3679 49.4151 15.1132 49.9396 14.0301C50.4641 12.9471 51.1887 12.0962 52.1132 11.4754C53.0377 10.8566 54.1057 10.5471 55.3189 10.5471C56.2038 10.5471 57.0189 10.7132 57.7623 11.0433C58.5057 11.3735 59.1509 11.849 59.6962 12.4679C60.2415 13.0867 60.666 13.8283 60.966 14.6924C61.266 15.5566 61.417 16.5226 61.417 17.5886V18.1566H50.0925V16.6867H60.4623L59.7396 17.1773C59.7396 16.1717 59.5547 15.283 59.1849 14.5132C58.8151 13.7433 58.3 13.1433 57.6377 12.7132C56.9755 12.283 56.2019 12.0679 55.317 12.0679C54.4321 12.0679 53.6377 12.2886 52.9623 12.732C52.2868 13.1754 51.7623 13.7849 51.3887 14.5641C51.0151 15.3415 50.8283 16.2433 50.8283 17.266V17.949C50.8283 19.0075 51.0151 19.9433 51.3887 20.7603C51.7623 21.5773 52.2962 22.2132 52.9887 22.6698C53.6811 23.1264 54.5038 23.3528 55.4585 23.3528C56.1377 23.3528 56.7509 23.2358 57.2962 23.0037C57.8415 22.7717 58.3019 22.4509 58.6755 22.0434C59.0491 21.6358 59.3189 21.1641 59.4811 20.6301L61.1453 20.7471C60.9566 21.5547 60.5925 22.2716 60.0547 22.8943C59.517 23.5169 58.8547 24.0056 58.0679 24.3584C57.2811 24.7113 56.4057 24.8867 55.4434 24.8867L55.4472 24.8924Z" fill="#2A505F"/>
<path d="M68.7319 24.8792C67.7602 24.8792 66.896 24.7207 66.1394 24.4018C65.3828 24.083 64.7715 23.6113 64.3073 22.983C63.8432 22.3547 63.5715 21.5848 63.4941 20.6735L65.1451 20.583C65.2489 21.4867 65.6055 22.183 66.2149 22.6716C66.8262 23.1622 67.6545 23.4075 68.7036 23.4075C69.7526 23.4075 70.6281 23.1698 71.2507 22.6924C71.8734 22.215 72.1866 21.6113 72.1866 20.8811C72.1866 20.2962 71.9809 19.8358 71.5677 19.5018C71.1545 19.1679 70.579 18.9131 69.8394 18.7414L67.5696 18.1999C66.3394 17.9075 65.4092 17.4584 64.7772 16.8528C64.1451 16.2471 63.83 15.466 63.83 14.5113C63.83 13.7282 64.0356 13.0433 64.4489 12.4547C64.8621 11.866 65.4375 11.4037 66.1772 11.0679C66.9168 10.732 67.764 10.5641 68.7187 10.5641C69.6734 10.5641 70.4658 10.732 71.1753 11.0679C71.8847 11.4037 72.4526 11.8792 72.8772 12.4924C73.3036 13.1075 73.5545 13.8396 73.6319 14.6924L72.0074 14.783C71.9206 13.9565 71.5979 13.2924 71.0394 12.7905C70.4809 12.2867 69.7073 12.0358 68.7187 12.0358C67.73 12.0358 66.9809 12.266 66.3979 12.7264C65.813 13.1867 65.5206 13.7735 65.5206 14.4867C65.5206 15.0792 65.7338 15.5528 66.1583 15.9056C66.5847 16.2584 67.1923 16.5282 67.9828 16.7188L70.2262 17.2471C71.464 17.5396 72.3847 17.9716 72.9866 18.5433C73.5885 19.115 73.8904 19.8792 73.8904 20.832C73.8904 21.6584 73.6715 22.3735 73.2319 22.9792C72.7923 23.5848 72.1847 24.0547 71.4073 24.3848C70.63 24.715 69.7375 24.8811 68.7319 24.8811V24.8792Z" fill="#2A505F"/>
<path d="M80.7398 24.8415C79.8719 24.8415 79.0794 24.6887 78.3662 24.383C77.653 24.0774 77.0832 23.6208 76.6568 23.0095C76.2304 22.3981 76.019 21.6472 76.019 20.7529C76.019 20.0396 76.1549 19.4472 76.4247 18.9793C76.6964 18.5113 77.0756 18.1302 77.5662 17.8378C78.0568 17.5453 78.6379 17.3132 79.3134 17.1415C79.9889 16.9698 80.7266 16.8321 81.5247 16.7283C82.3681 16.617 83.0587 16.5208 83.6021 16.4378C84.1436 16.3566 84.5455 16.234 84.8077 16.0698C85.07 15.9057 85.2002 15.6491 85.2002 15.2962V15.051C85.2002 14.4661 85.0587 13.9529 84.7738 13.5095C84.4907 13.0661 84.0907 12.7189 83.5738 12.4642C83.0587 12.2113 82.4511 12.083 81.7549 12.083C81.0587 12.083 80.453 12.2038 79.9096 12.4434C79.3681 12.6849 78.9341 13.0095 78.6077 13.417C78.2813 13.8264 78.087 14.283 78.0266 14.7906L76.3492 14.6623C76.4436 13.8453 76.736 13.1321 77.2266 12.5208C77.7172 11.9095 78.3511 11.434 79.1285 11.0887C79.9058 10.7453 80.7775 10.5736 81.7398 10.5736C82.453 10.5736 83.1228 10.6755 83.7455 10.8774C84.3681 11.0793 84.9134 11.3736 85.3775 11.7604C85.8417 12.1472 86.2058 12.6208 86.4681 13.1793C86.7304 13.7378 86.8606 14.3736 86.8606 15.0887V24.6076H85.1964V22.3642H85.1323C84.9341 22.7944 84.6436 23.1981 84.2624 23.5774C83.8794 23.9566 83.3964 24.2604 82.8115 24.4925C82.2266 24.7245 81.5341 24.8415 80.7341 24.8415H80.7398ZM80.9587 23.3189C81.853 23.3189 82.6153 23.1434 83.2473 22.7906C83.8794 22.4378 84.3624 21.9547 84.6983 21.3396C85.0341 20.7246 85.2021 20.0264 85.2021 19.2434V17.2963C85.0813 17.4076 84.8964 17.5076 84.6473 17.5925C84.3983 17.6793 84.1058 17.7566 83.77 17.8246C83.4341 17.8944 83.0719 17.9585 82.6794 18.0189C82.2889 18.0793 81.887 18.1396 81.4738 18.2C80.7077 18.3038 80.0436 18.4566 79.4813 18.6585C78.9172 18.8604 78.4832 19.1359 78.1794 19.4849C77.8738 19.834 77.7209 20.283 77.7209 20.8321C77.7209 21.3812 77.8606 21.817 78.1398 22.1868C78.419 22.5566 78.8021 22.8378 79.287 23.0321C79.7719 23.2264 80.3304 23.3227 80.9568 23.3227L80.9587 23.3189Z" fill="#2A505F"/>
<path d="M90.4263 30V10.8075H92.064V13.4264H92.1282C92.3697 12.8754 92.7093 12.3886 93.147 11.9622C93.5848 11.5358 94.1074 11.2 94.7149 10.949C95.3206 10.7 95.9848 10.5754 96.7074 10.5754C97.8772 10.5754 98.9074 10.8736 99.7961 11.4717C100.687 12.0698 101.383 12.9037 101.885 13.9735C102.387 15.0434 102.639 16.2924 102.639 17.7207C102.639 19.149 102.389 20.3868 101.885 21.4603C101.381 22.5358 100.687 23.3717 99.8017 23.9698C98.9168 24.5679 97.8848 24.866 96.7055 24.866C95.9829 24.866 95.3282 24.7434 94.7395 24.4981C94.1508 24.2528 93.6395 23.9151 93.2055 23.4849C92.7715 23.0547 92.4206 22.5603 92.1546 22.0019H92.1036V29.9981H90.4263V30ZM96.4885 23.332C97.3659 23.332 98.1395 23.1056 98.8093 22.6547C99.4791 22.2037 100.002 21.5585 100.377 20.7207C100.753 19.883 100.938 18.8792 100.938 17.7094C100.938 16.5396 100.751 15.549 100.377 14.7113C100.004 13.8735 99.4829 13.2283 98.8168 12.7773C98.1508 12.3264 97.3734 12.1 96.4885 12.1C95.6036 12.1 94.7734 12.332 94.1017 12.7962C93.43 13.2603 92.9149 13.9132 92.5546 14.7566C92.1942 15.6 92.0131 16.583 92.0131 17.7094C92.0131 18.8358 92.1942 19.8226 92.5546 20.6698C92.9149 21.5169 93.4319 22.1717 94.1017 22.6358C94.7715 23.1 95.5678 23.332 96.4885 23.332Z" fill="#2A505F"/>
<path d="M105.271 24.6094V5.3905H108.032V24.6094H105.271ZM107.813 19.966V16.6905H108.109L113.9 10.8094H117.279L110.792 17.4773H110.355L107.813 19.966ZM114.288 24.6094L109.168 18.0962L111.051 16.1735L117.668 24.6094H114.288Z" fill="#2A505F"/>
<path d="M124.194 24.8547C123.257 24.8547 122.417 24.6528 121.674 24.2491C120.93 23.8453 120.344 23.2396 119.913 22.4302C119.483 21.6227 119.268 20.6283 119.268 19.451V10.8094H122.028V19.1038C122.028 20.1868 122.293 21.0113 122.821 21.5736C123.349 22.1377 124.083 22.4189 125.021 22.4189C125.64 22.4189 126.198 22.2906 126.698 22.0321C127.196 21.7736 127.593 21.3793 127.885 20.8453C128.177 20.3113 128.323 19.6321 128.323 18.8076V10.8113H131.07V24.6113H128.387V21.1925H128.942C128.504 22.4302 127.883 23.351 127.085 23.9528C126.285 24.5547 125.323 24.8566 124.196 24.8566L124.194 24.8547Z" fill="#2A505F"/>
<path d="M134.292 24.6094V10.8094H136.936V13.0415H137.013C137.262 12.2849 137.672 11.6962 138.238 11.2736C138.806 10.8528 139.519 10.6415 140.379 10.6415C140.577 10.6415 140.77 10.6471 140.96 10.6603C141.149 10.6736 141.304 10.6886 141.424 10.7056V13.2717C141.321 13.2547 141.132 13.2283 140.857 13.1943C140.581 13.1603 140.285 13.1434 139.966 13.1434C139.432 13.1434 138.943 13.266 138.496 13.5113C138.049 13.7566 137.696 14.1188 137.438 14.6019C137.179 15.083 137.051 15.6849 137.051 16.4075V24.6113H134.291L134.292 24.6094Z" fill="#2A505F"/>
<path d="M148.519 24.8792C147.342 24.8792 146.304 24.5811 145.411 23.983C144.517 23.3849 143.823 22.549 143.328 21.4736C142.834 20.3981 142.587 19.1434 142.587 17.7075C142.587 16.2717 142.836 15.0189 143.334 13.9472C143.832 12.8774 144.527 12.0453 145.417 11.4509C146.308 10.8566 147.336 10.5604 148.506 10.5604C149.168 10.5604 149.764 10.6566 150.293 10.8509C150.821 11.0453 151.285 11.3132 151.685 11.6566C152.085 12 152.413 12.4 152.672 12.8566H152.736V5.38867H155.483V24.6075H152.787V22.4924H152.71C152.444 22.9736 152.106 23.3924 151.696 23.7509C151.287 24.1075 150.819 24.3849 150.291 24.583C149.762 24.7811 149.17 24.8792 148.517 24.8792H148.519ZM149.087 22.5189C149.87 22.5189 150.544 22.3189 151.111 21.9189C151.679 21.5189 152.115 20.9585 152.421 20.2358C152.727 19.5132 152.879 18.6717 152.879 17.7075C152.879 16.7434 152.727 15.8924 152.421 15.1792C152.115 14.466 151.679 13.9094 151.111 13.5094C150.544 13.1094 149.868 12.9094 149.087 12.9094C148.306 12.9094 147.674 13.1 147.121 13.483C146.566 13.866 146.136 14.4113 145.83 15.1207C145.525 15.8302 145.372 16.6924 145.372 17.7075C145.372 18.7226 145.525 19.5755 145.83 20.2943C146.136 21.0132 146.568 21.5623 147.127 21.9453C147.685 22.3283 148.34 22.5189 149.087 22.5189Z" fill="#2A505F"/>
<path d="M163.636 24.8547C162.698 24.8547 161.859 24.6528 161.115 24.2491C160.372 23.8453 159.785 23.2396 159.355 22.4302C158.925 21.6227 158.709 20.6283 158.709 19.451V10.8094H161.47V19.1038C161.47 20.1868 161.734 21.0113 162.262 21.5736C162.791 22.1377 163.525 22.4189 164.462 22.4189C165.081 22.4189 165.64 22.2906 166.14 22.0321C166.638 21.7736 167.034 21.3793 167.326 20.8453C167.619 20.3113 167.764 19.6321 167.764 18.8076V10.8113H170.511V24.6113H167.828V21.1925H168.383C167.945 22.4302 167.325 23.351 166.526 23.9528C165.726 24.5547 164.764 24.8566 163.638 24.8566L163.636 24.8547Z" fill="#2A505F"/>
<path d="M15 30C23.2843 30 30 23.2843 30 15C30 6.71573 23.2843 0 15 0C6.71573 0 0 6.71573 0 15C0 23.2843 6.71573 30 15 30Z" fill="#ED8916"/>
<path d="M17.6698 26.5C17.9208 26.4113 20.3434 25.7358 18.9151 22.7943C18.4566 21.849 18.2755 21.3019 18.4453 20.9151C18.5642 20.6453 18.8604 20.5019 19.1491 20.5585C20.7415 20.8773 22.2094 20.8547 23.4208 20.7019C23.9566 20.634 24.466 20.4321 24.9 20.1113C26.4075 19 27.4528 17.6283 28.1132 16.5585C28.4226 16.0547 28.2547 15.3962 27.7434 15.1019C26.7491 14.5302 25.1792 13.734 22.7075 12.6509C22.2774 12.4623 21.9547 12.0849 21.8491 11.6283C21.3679 9.57546 19.8962 8.66226 18.8 8.25848C18.7245 8.23018 18.6774 8.15471 18.6849 8.07358C19.5717 -0.464161 16.1472 4.09433 14.4792 6.58489C13.9264 5.1264 13.2868 3.73018 12.6849 2.69244C12.3509 2.11509 11.5377 2.06603 11.1358 2.59999C9.38491 4.92452 8.69623 7.21131 8.47358 9.03772C4.68491 12.4604 3.35849 16.3038 3.01887 19.4151C2.90377 20.4641 3.29434 21.5057 4.06038 22.2321C6.27925 24.3358 10.5868 26.9075 14.8019 26.9075C14.8019 26.9075 15.8509 26.9962 17.6698 26.5Z" fill="#0D1B2A"/>
<path d="M18.266 24.0169C18.5396 25.0811 17.8867 25.2905 16.8433 25.4981C12.6716 26.332 7.99806 24.1754 4.8358 21.1339C4.38863 20.7037 4.33014 19.9264 4.39429 19.2169C5.33202 20.1716 7.21504 21.666 10.7849 23.1811C14.1716 24.6169 16.7075 24.4396 18.2679 24.0169H18.266Z" fill="#ED8916"/>
<path d="M13.615 10.1868C14.1112 9.80001 14.2923 9.13398 14.0697 8.5453L13.6301 7.3868C13.2791 6.46039 12.8942 5.58492 12.5169 4.85473C12.4452 4.717 12.2489 4.70567 12.164 4.83586C11.2565 6.20379 10.6999 7.67737 10.5112 9.22832L10.4848 9.44152C10.4622 9.62643 10.4622 9.81133 10.4886 9.99435C10.5678 10.5585 10.9074 11.4811 12.2999 10.9151C12.8961 10.6736 13.3169 10.4208 13.615 10.1887V10.1868Z" fill="white"/>
<path d="M17.7134 23.0736C17.27 22.1302 16.9719 21.2698 17.3455 20.4283C17.638 19.7679 18.2965 19.3415 19.0248 19.3415C19.1474 19.3415 19.2682 19.3528 19.3889 19.3774C20.1436 19.5283 20.9248 19.6057 21.7097 19.6057C22.2266 19.6057 22.7531 19.5717 23.2719 19.5057C23.604 19.4641 23.921 19.3377 24.187 19.1415C24.8493 18.6547 25.4116 18.1075 25.8776 17.5717C24.6927 16.7943 24.8285 15.9132 25.4021 15.2264C24.4983 14.7774 23.438 14.2868 22.2266 13.7566C21.4493 13.4151 20.87 12.7226 20.6776 11.9038C20.3946 10.6924 19.6323 9.17735 15.1568 8.47546C15.6795 11.4981 12.7719 11.2019 9.43797 15.2849C8.85306 16 8.43231 16.7245 8.13797 17.4302C7.5625 18.8075 8.10023 20.4 9.36627 21.1924C10.2814 21.766 11.3682 22.383 12.1946 22.6698C15.3531 23.7623 17.7153 23.0717 17.7153 23.0717L17.7134 23.0736ZM18.9512 13.8057C18.4833 13.649 17.8946 13.3943 17.1795 12.9849C17.0493 12.9094 17.0304 12.7302 17.1399 12.6302C17.3606 12.4264 17.6833 12.1924 18.1606 11.9434C18.4719 11.7811 18.8078 11.9189 19.0417 12.1792C19.2851 12.4509 19.4285 12.7509 19.5512 13.1321C19.6851 13.5415 19.3568 13.9415 18.9474 13.8057H18.9512Z" fill="white"/>
</svg>
