<svg xmlns="http://www.w3.org/2000/svg" fill="none" viewBox="0 0 70 52"><path fill="#434254" d="M69.1 18.79H45.82l1.77 6.94h.13a3.7 3.7 0 013.3-3.24l18.18-1.86a.9.9 0 00.8-.9.89.89 0 00-.9-.94z"/><path fill="#B6DD4C" d="M40.55 15.45a8.55 8.55 0 00-2.06-.23c-5.48 0-11.91 2.94-16.01 6.1 0 0-8.67 15.1-10.57 16.33a30.03 30.03 0 00-.84 6.97L6.3 49.4 3.7 52h14.74c3.04 0 5.94-.47 8.67-1.3-.83-1.87 6.1-18.9 6.3-19-.16-.6 2.4-7.64 3.57-8.3h3.57v-4.61h1.24l-1.24-3.34z"/><path fill="#A0CA28" d="M14.44 30.9a29.53 29.53 0 00-2.53 6.75 25.64 25.64 0 0113.9-4.07c-2.57-.04-10.87-2.44-11.37-2.67z"/><path fill="#D1F374" d="M28.41 27.23l-5.93-5.94-8.34-8.34c2.67 2.67 4.3 19.52 4.3 19.52 2.34.7 4.8 1.07 7.37 1.07 1.04 0 1.94-.4 2.6-1.06a3.69 3.69 0 001.07-2.6 3.7 3.7 0 00-1.07-2.64z"/><path fill="#6E66DB" d="M18.44 23.36c0-4.07-1.63-7.74-4.3-10.41l-.03-.03L1.2 0A25.71 25.71 0 000 7.71c0 .47 0 .9.03 1.33a25.81 25.81 0 0014.41 21.87c.5.23 1 .46 1.5.66.8.34 1.64.64 2.5.87v-9.08z"/><path fill="#EFEFEF" d="M33.42 31.7a17.15 17.15 0 00-1.83 1.2c-.44.34-.88.7-1.24 1.08a14.69 14.69 0 00-4.54 10.64c0 2.17.47 4.2 1.3 6.08a29.68 29.68 0 0015.31-11.05 31.26 31.26 0 002.23-3.64c-1.16.77-11.17-4.1-11.23-4.3z"/><path fill="#ED56A1" d="M47.79 23.9c-.07-.7-.17-1.4-.37-2.07a9.42 9.42 0 00-6.87-6.41v3.34c2.04 0 1.7 6.9 0 6.9s-3.16-.7-3.57-2.3a7.21 7.21 0 00-2.8 2.77 7.3 7.3 0 00-1 3.68 8.41 8.41 0 00.44 2.46c.03.07.06.17.1.24a7.3 7.3 0 002.26 3.04 7.14 7.14 0 002.7 1.36c.6.17 1.24.27 1.9.27 1.5 0 2.94-.47 4.1-1.23a27.45 27.45 0 001.98-4.81c.36-1.2.66-2.47.86-3.74.1-.6.2-1.2.27-1.83v-.14c.03-.3.03-.6.03-.9l-.03-.63z"/><path fill="#fff" d="M44.22 22.46a3.7 3.7 0 01-3.7 3.7 3.67 3.67 0 01-3.67-3.7 3.66 3.66 0 013.67-3.67c2.07 0 3.7 1.64 3.7 3.67z"/><path fill="#434254" d="M43.32 22.46a2.76 2.76 0 01-2.77 2.77 2.76 2.76 0 01-2.76-2.77 2.76 2.76 0 012.76-2.77 2.78 2.78 0 012.77 2.77z"/></svg>
