<svg xmlns="http://www.w3.org/2000/svg" viewBox="0 0 458 136.6"><path fill="#1A1A1A" d="M167.6 45.3h12v46h-12v-46zm30.2 23v23h-11.3V44.9l3.1 2.6 25.2 20.8v-23h11.1v46.3l-28.1-23.3zM285.2 44c-11.6 0-16.8 6.7-21.9 18.5l-1.4 3.1-1.4 3.5c-2.8 6.4-4.5 10.1-9.3 10.1-4 0-6.8-3.6-6.8-9.4 0-6.8 3.5-10.7 8.4-13.7L246.3 45c-8 4-14.2 12.4-14.2 25.3 0 13.2 6.8 23 19.3 23 11.6 0 16.8-6.6 21.9-18.4l.3-.8 1-2.4 1.6-3.5c2.7-6.3 4.4-10 9.2-10 4 0 6.8 3.6 6.8 9.3 0 6.9-3.5 10.8-8.4 13.7l6.5 11.3c8-4 14.2-12.4 14.2-25.3 0-13.2-6.8-23-19.3-23zm25.9 1.2h12v46h-12v-46zm19.3 0h16.5c13.6 0 24 8.8 24 23 0 14-10.3 23-24 23h-16.5v-46zm16 35.6c8.5 0 12.3-4.9 12.3-12.6 0-7.7-3.8-12.6-12.4-12.6h-4v25.2h4zm31.4-35.6h32.7v10.3h-20.7v7.8h20v9.8h-20V81h21.6v10.3h-33.6v-46zm40 0h16.6c13.5 0 24 8.8 24 23 0 14-10.4 23-24 23h-16.6v-46zm16 35.6c8.5 0 12.3-4.9 12.3-12.6 0-7.7-3.8-12.6-12.4-12.6h-4v25.2h4z"/><circle cx="68.3" cy="68.3" r="12.6" fill="#1A1A1A" class="center-circle"/><path fill="#676767" d="M68.3 87.6a19.3 19.3 0 1 1 0-38.6 19.3 19.3 0 0 1 0 38.6zm0-35.5a16.2 16.2 0 1 0 0 32.4 16.2 16.2 0 0 0 0-32.4z" class="outer-circle"/><circle cx="68.3" cy="30.5" r="8.5" fill="#079247"/><circle cx="68.3" cy="8.5" r="8.5" fill="#D9E028"/><circle cx="68.3" cy="106.1" r="8.5" fill="#EA3981"/><circle cx="49.4" cy="35.5" r="4.2" fill="#3DB54A"/><circle cx="87.2" cy="101" r="4.2" fill="#F27BAA"/><circle cx="101" cy="49.4" r="8.5" fill="#2AAAE2"/><circle cx="35.6" cy="87.2" r="8.5" fill="#ED237A"/><circle cx="106.1" cy="68.3" r="4.2" fill="#9D1F60"/><circle cx="30.5" cy="68.3" r="4.2" fill="#9D1F60"/><circle cx="87.2" cy="35.5" r="4.2" fill="#3DB54A"/><circle cx="49.4" cy="101" r="4.2" fill="#F27BAA"/><circle cx="101" cy="87.2" r="8.5" fill="#ED237A"/><circle cx="35.6" cy="49.4" r="8.5" fill="#2AAAE2"/><circle cx="68.3" cy="128.1" r="8.5" fill="#FECF0A"/><circle cx="16.5" cy="38.4" r="8.5" fill="#64CDF2"/><circle cx="120.1" cy="98.2" r="8.5" fill="#E571A8"/><circle cx="120.1" cy="38.4" r="8.5" fill="#64CDF2"/><circle cx="16.5" cy="98.2" r="8.5" fill="#E571A8"/><circle cx="38.4" cy="16.5" r="8.5" fill="#8DC641"/><circle cx="98.2" cy="120.1" r="8.5" fill="#F79421"/><circle cx="98.2" cy="16.5" r="8.5" fill="#8DC641"/><circle cx="38.4" cy="120.1" r="8.5" fill="#F79421"/><circle cx="128.1" cy="68.3" r="8.5" fill="#932A8E"/><circle cx="8.5" cy="68.3" r="8.5" fill="#932A8E"/></svg>
