<svg xmlns="http://www.w3.org/2000/svg" viewBox="0 0 457.994 136.566"><switch><g><g fill="#1A1A1A"><path d="M167.612 45.275h11.99V91.29h-11.99V45.276zM197.78 68.284V91.29H186.48V44.9l3.146 2.598 25.165 20.79V45.24h11.133l-.062 46.404-28.085-23.36zM285.184 44.115c-11.613 0-16.773 6.65-21.836 18.46l.016.053c-.49.997-.963 2.034-1.422 3.112l-1.49 3.474c-2.777 6.353-4.465 10.123-9.23 10.123-3.97 0-6.848-3.672-6.848-9.43 0-6.847 3.573-10.718 8.437-13.695l-6.55-11.315c-8.04 4.07-14.192 12.407-14.192 25.31 0 13.2 6.848 23.026 19.354 23.026 11.612 0 16.773-6.65 21.836-18.46l.322-.753c.37-.78.73-1.584 1.084-2.413l1.49-3.474c2.777-6.352 4.465-10.124 9.228-10.124 3.97 0 6.85 3.67 6.85 9.428 0 6.848-3.574 10.72-8.438 13.697l6.55 11.314c8.04-4.07 14.194-12.408 14.194-25.31 0-13.2-6.85-23.025-19.354-23.025zM311.055 45.275h11.99V91.29h-11.99V45.276zM330.376 45.275h16.572c13.577 0 23.98 8.815 23.98 23.007 0 14.017-10.315 23.01-23.98 23.01h-16.572V45.274zm15.956 35.614c8.55 0 12.342-4.85 12.342-12.608 0-7.668-3.79-12.605-12.342-12.605h-3.968V80.89h3.968zM377.77 45.275h32.706V55.59H389.76v7.79h20.13v9.784h-20.13v7.813h21.598V91.29h-33.586V45.276zM417.783 45.275h16.572c13.576 0 23.98 8.815 23.98 23.007 0 14.017-10.315 23.01-23.98 23.01h-16.572V45.274zm15.955 35.614c8.552 0 12.342-4.85 12.342-12.608 0-7.668-3.79-12.605-12.342-12.605h-3.967V80.89h3.968z"></path></g><circle class="center-circle" fill="#1A1A1A" cx="68.344" cy="68.316" r="12.597"></circle><path class="outer-circle" fill="#676767" d="M68.344 87.632c-10.65 0-19.316-8.665-19.316-19.315C49.028 57.665 57.693 49 68.344 49c10.65 0 19.315 8.665 19.315 19.317 0 10.65-8.665 19.315-19.316 19.315zm0-35.497c-8.922 0-16.18 7.26-16.18 16.182 0 8.92 7.257 16.18 16.18 16.18 8.92 0 16.18-7.26 16.18-16.18 0-8.923-7.26-16.182-16.18-16.182z"></path><circle fill="#079247" cx="68.283" cy="30.486" r="8.486"></circle><circle fill="#D9E028" cx="68.283" cy="8.486" r="8.486"></circle><circle fill="#EA3981" cx="68.283" cy="106.08" r="8.486"></circle><circle fill="#3DB54A" cx="49.385" cy="35.55" r="4.243"></circle><circle fill="#F27BAA" cx="87.182" cy="101.016" r="4.243"></circle><circle fill="#2AAAE2" cx="101.017" cy="49.385" r="8.485"></circle><circle fill="#ED237A" cx="35.551" cy="87.182" r="8.486"></circle><circle fill="#9D1F60" cx="106.08" cy="68.283" r="4.243"></circle><circle fill="#9D1F60" cx="30.486" cy="68.283" r="4.243"></circle><circle fill="#3DB54A" cx="87.182" cy="35.55" r="4.243"></circle><circle fill="#F27BAA" cx="49.385" cy="101.016" r="4.243"></circle><circle fill="#ED237A" cx="101.018" cy="87.182" r="8.486"></circle><circle fill="#2AAAE2" cx="35.552" cy="49.385" r="8.486"></circle><circle fill="#FECF0A" cx="68.283" cy="128.08" r="8.486"></circle><circle fill="#64CDF2" cx="16.498" cy="38.385" r="8.486"></circle><circle fill="#E571A8" cx="120.069" cy="98.182" r="8.486"></circle><circle fill="#64CDF2" cx="120.068" cy="38.385" r="8.486"></circle><circle fill="#E571A8" cx="16.497" cy="98.182" r="8.486"></circle><circle fill="#8DC641" cx="38.385" cy="16.498" r="8.486"></circle><circle fill="#F79421" cx="98.182" cy="120.069" r="8.486"></circle><circle fill="#8DC641" cx="98.181" cy="16.498" r="8.486"></circle><circle fill="#F79421" cx="38.384" cy="120.069" r="8.486"></circle><circle fill="#932A8E" cx="128.08" cy="68.283" r="8.486"></circle><circle fill="#932A8E" cx="8.486" cy="68.283" r="8.486"></circle></g></switch></svg>