<svg width="159px" height="33px" viewBox="0 0 159 33" version="1.1" 
  xmlns="http://www.w3.org/2000/svg">
  <defs>
    <linearGradient x1="0%" y1="19.7873509%" x2="100%" y2="73.2732457%" id="linearGradient-1">
      <stop stop-color="#FF7C00" offset="0%"></stop>
      <stop stop-color="#FF5F00" offset="100%"></stop>
    </linearGradient>
  </defs>
  <g id="Page-1" stroke="none" stroke-width="1" fill="none" fill-rule="evenodd">
    <g id="1.0_landing" transform="translate(-52.000000, -17.000000)">
      <g id="Group-4" transform="translate(48.000000, 14.000000)">
        <path d="M52.1256074,23.2174584 C51.4902794,24.0414365 50.6873075,24.6773231 49.7166675,25.1251373 C48.7460275,25.5729515 47.7401067,25.7968552 46.6988747,25.7968552 C45.7105867,25.7968552 44.7796687,25.6356445 43.9060927,25.3132183 C43.0325167,24.9907921 42.2736641,24.5295504 41.6295121,23.9294794 C40.9853602,23.3294084 40.4779878,22.6084383 40.1073798,21.7665476 C39.7367718,20.924657 39.5514706,19.9842613 39.5514706,18.9453323 C39.5514706,17.9064034 39.7367718,16.9660077 40.1073798,16.124117 C40.4779878,15.2822263 40.9853602,14.5612563 41.6295121,13.9611853 C42.2736641,13.3611143 43.0325167,12.8998726 43.9060927,12.5774464 C44.7796687,12.2550201 45.7105867,12.0938095 46.6988747,12.0938095 C47.6165707,12.0938095 48.4504261,12.2550201 49.2004661,12.5774464 C49.9505061,12.8998726 50.5858245,13.3611143 51.1064405,13.9611853 C51.6270565,14.5612563 52.0285425,15.2822263 52.3109105,16.124117 C52.5932785,16.9660077 52.7344604,17.9064034 52.7344604,18.9453323 L52.7344604,20.208162 L43.5222506,20.208162 C43.6810826,20.9784025 44.0252135,21.5918987 44.5546535,22.0486692 C45.0840934,22.5054396 45.7370596,22.7338215 46.5135716,22.7338215 C47.1665476,22.7338215 47.7180393,22.586045 48.1680633,22.2904876 C48.6180873,21.9949303 49.0107494,21.6142939 49.3460614,21.1485671 L52.1256074,23.2174584 Z M48.7636803,17.4675529 C48.7813283,16.7868753 48.5607316,16.2047256 48.1018836,15.7210863 C47.6430356,15.2374469 47.0518365,14.9956309 46.3282685,14.9956309 C45.8870686,14.9956309 45.4988184,15.0672801 45.1635064,15.2105806 C44.8281944,15.3538812 44.5414187,15.5374823 44.3031707,15.7613893 C44.0649227,15.9852964 43.8796215,16.2450248 43.7472615,16.5405821 C43.6149015,16.8361395 43.5398986,17.1451267 43.5222506,17.4675529 L48.7636803,17.4675529 Z M60.9142673,20.3962431 L54.402188,20.3962431 L54.402188,17.171997 L60.9142673,17.171997 L60.9142673,20.3962431 Z M71.6883171,16.6346227 C71.4941891,16.3480216 71.2206492,16.1106836 70.8676893,15.9226017 C70.5147293,15.7345197 70.135303,15.6404801 69.729399,15.6404801 C68.723463,15.6404801 67.9425507,15.9449892 67.3866387,16.5540165 C66.8307268,17.1630438 66.5527749,17.9601411 66.5527749,18.9453323 C66.5527749,19.9305236 66.8307268,20.7276209 67.3866387,21.3366482 C67.9425507,21.9456755 68.723463,22.2501845 69.729399,22.2501845 C70.170599,22.2501845 70.5500253,22.1516669 70.8676893,21.9546287 C71.1853533,21.7575904 71.4588931,21.5247305 71.6883171,21.256042 L74.309032,24.0503886 C73.691352,24.695241 72.9633829,25.1475266 72.1251029,25.4072588 C71.286823,25.666991 70.488263,25.7968552 69.729399,25.7968552 C68.741111,25.7968552 67.810193,25.6356445 66.936617,25.3132183 C66.063041,24.9907921 65.3041884,24.5295504 64.6600364,23.9294794 C64.0158845,23.3294084 63.5085121,22.6084383 63.1379041,21.7665476 C62.7672961,20.924657 62.5819949,19.9842613 62.5819949,18.9453323 C62.5819949,17.9064034 62.7672961,16.9660077 63.1379041,16.124117 C63.5085121,15.2822263 64.0158845,14.5612563 64.6600364,13.9611853 C65.3041884,13.3611143 66.063041,12.8998726 66.936617,12.5774464 C67.810193,12.2550201 68.741111,12.0938095 69.729399,12.0938095 C70.488263,12.0938095 71.286823,12.2236736 72.1251029,12.4834059 C72.9633829,12.7431381 73.691352,13.1954236 74.309032,13.8402761 L71.6883171,16.6346227 Z M83.8124322,23.8354389 L83.7594885,23.8354389 C83.3182885,24.534029 82.7315013,25.0355734 81.9991093,25.340087 C81.2667174,25.6446007 80.494629,25.7968552 79.682821,25.7968552 C79.082789,25.7968552 78.5048257,25.7117718 77.9489137,25.5416024 C77.3930017,25.371433 76.9032771,25.1161827 76.4797251,24.775844 C76.0561731,24.4355052 75.7208661,24.0145661 75.4737941,23.5130143 C75.2267221,23.0114624 75.103188,22.4293126 75.103188,21.7665476 C75.103188,21.0142198 75.2399579,20.3783332 75.5135019,19.8588687 C75.7870459,19.3394043 76.1576483,18.9095091 76.6253203,18.5691703 C77.0929923,18.2288315 77.6268363,17.9646251 78.2268683,17.7765431 C78.8269003,17.5884612 79.4489829,17.4496409 80.0931349,17.360078 C80.7372869,17.2705152 81.3814292,17.2167783 82.0255812,17.1988657 C82.6697332,17.1809531 83.2653442,17.171997 83.8124322,17.171997 C83.8124322,16.4554943 83.560952,15.8867788 83.057984,15.4658335 C82.555016,15.0448881 81.959405,14.8344186 81.271133,14.8344186 C80.618157,14.8344186 80.022546,14.9732389 79.484282,15.2508837 C78.946018,15.5285285 78.4651172,15.9091649 78.0415652,16.3928042 L75.9238159,14.1895694 C76.6650318,13.4909793 77.5297708,12.9670445 78.5180588,12.6177494 C79.5063468,12.2684544 80.5299154,12.0938095 81.5887954,12.0938095 C82.7535634,12.0938095 83.710953,12.2415859 84.460993,12.5371433 C85.2110329,12.8327007 85.8110559,13.2670739 86.2610799,13.8402761 C86.7111039,14.4134782 87.0243512,15.116536 87.2008312,15.9494704 C87.3773112,16.7824048 87.4655499,17.7451908 87.4655499,18.8378575 L87.4655499,25.4744306 L83.8124322,25.4744306 L83.8124322,23.8354389 Z M82.8329731,19.7513938 C82.5329572,19.7513938 82.1579428,19.7648281 81.7079188,19.7916969 C81.2578948,19.8185658 80.8255253,19.894693 80.4107973,20.020081 C79.9960693,20.145469 79.6431146,20.3335481 79.3519226,20.5843241 C79.0607306,20.8351 78.9151368,21.1843899 78.9151368,21.6322041 C78.9151368,22.1158434 79.1180858,22.4740894 79.5239898,22.7069527 C79.9298938,22.9398161 80.3534394,23.0562461 80.7946394,23.0562461 C81.1828954,23.0562461 81.5579097,23.0025092 81.9196937,22.8950338 C82.2814777,22.7875584 82.6035489,22.6353038 82.8859169,22.4382656 C83.1682849,22.2412273 83.3932935,21.9904551 83.5609495,21.6859415 C83.7286055,21.3814278 83.8124322,21.0231819 83.8124322,20.6111928 L83.8124322,19.7513938 L82.8329731,19.7513938 Z M98.7160934,15.6404801 L95.2218069,15.6404801 L95.2218069,19.9932123 C95.2218069,20.3514637 95.2394546,20.6783631 95.2747506,20.9739205 C95.3100466,21.2694778 95.3894614,21.5247281 95.5129974,21.7396789 C95.6365334,21.9546297 95.8262466,22.1203185 96.0821426,22.2367502 C96.3380386,22.3531819 96.6777575,22.4113968 97.1013095,22.4113968 C97.3130855,22.4113968 97.5910373,22.3890065 97.9351733,22.3442251 C98.2793093,22.2994436 98.5396134,22.1964479 98.7160934,22.0352348 L98.7160934,25.3938245 C98.2748934,25.5550376 97.8160523,25.6625114 97.3395563,25.7162491 C96.8630603,25.7699868 96.3953953,25.7968552 95.9365473,25.7968552 C95.2659233,25.7968552 94.6482526,25.725206 94.0835166,25.5819055 C93.5187806,25.4386049 93.0246441,25.2102231 92.6010921,24.8967532 C92.1775401,24.5832833 91.8466451,24.1757785 91.6083971,23.6742266 C91.3701491,23.1726747 91.2510269,22.5636565 91.2510269,21.8471538 L91.2510269,15.6404801 L88.7097276,15.6404801 L88.7097276,12.4162341 L91.2510269,12.4162341 L91.2510269,8.54713878 L95.2218069,8.54713878 L95.2218069,12.4162341 L98.7160934,12.4162341 L98.7160934,15.6404801 Z M112.905014,23.2174584 C112.269686,24.0414365 111.466714,24.6773231 110.496074,25.1251373 C109.525434,25.5729515 108.519513,25.7968552 107.478281,25.7968552 C106.489993,25.7968552 105.559075,25.6356445 104.685499,25.3132183 C103.811923,24.9907921 103.053071,24.5295504 102.408919,23.9294794 C101.764767,23.3294084 101.257394,22.6084383 100.886786,21.7665476 C100.516178,20.924657 100.330877,19.9842613 100.330877,18.9453323 C100.330877,17.9064034 100.516178,16.9660077 100.886786,16.124117 C101.257394,15.2822263 101.764767,14.5612563 102.408919,13.9611853 C103.053071,13.3611143 103.811923,12.8998726 104.685499,12.5774464 C105.559075,12.2550201 106.489993,12.0938095 107.478281,12.0938095 C108.395977,12.0938095 109.229833,12.2550201 109.979873,12.5774464 C110.729913,12.8998726 111.365231,13.3611143 111.885847,13.9611853 C112.406463,14.5612563 112.807949,15.2822263 113.090317,16.124117 C113.372685,16.9660077 113.513867,17.9064034 113.513867,18.9453323 L113.513867,20.208162 L104.301657,20.208162 C104.460489,20.9784025 104.80462,21.5918987 105.33406,22.0486692 C105.8635,22.5054396 106.516466,22.7338215 107.292978,22.7338215 C107.945954,22.7338215 108.497446,22.586045 108.94747,22.2904876 C109.397494,21.9949303 109.790156,21.6142939 110.125468,21.1485671 L112.905014,23.2174584 Z M109.543087,17.4675529 C109.560735,16.7868753 109.340138,16.2047256 108.88129,15.7210863 C108.422442,15.2374469 107.831243,14.9956309 107.107675,14.9956309 C106.666475,14.9956309 106.278225,15.0672801 105.942913,15.2105806 C105.607601,15.3538812 105.320825,15.5374823 105.082577,15.7613893 C104.844329,15.9852964 104.659028,16.2450248 104.526668,16.5405821 C104.394308,16.8361395 104.319305,17.1451267 104.301657,17.4675529 L109.543087,17.4675529 Z M115.922807,12.4162341 L119.893587,12.4162341 L119.893587,14.511994 L119.946531,14.511994 C120.370083,13.7059285 120.873043,13.1013884 121.455427,12.6983556 C122.037811,12.2953228 122.770192,12.0938095 123.652592,12.0938095 C123.882016,12.0938095 124.111437,12.1027656 124.340861,12.1206782 C124.570285,12.1385907 124.782057,12.1744153 124.976185,12.228153 L124.976185,15.9091673 C124.693817,15.8196045 124.415866,15.7524333 124.142322,15.7076519 C123.868778,15.6628705 123.582002,15.6404801 123.281986,15.6404801 C122.523122,15.6404801 121.923099,15.7479539 121.481899,15.9629047 C121.040699,16.1778555 120.70098,16.4778865 120.462732,16.8630068 C120.224484,17.248127 120.070066,17.7093687 119.999474,18.2467457 C119.928882,18.7841227 119.893587,19.3752286 119.893587,20.020081 L119.893587,25.4744306 L115.922807,25.4744306 L115.922807,12.4162341 Z M126.749801,12.4162341 L130.720581,12.4162341 L130.720581,25.4744306 L126.749801,25.4744306 L126.749801,12.4162341 Z M126.432138,8.30532033 C126.432138,7.66046789 126.657147,7.1096647 127.107171,6.65289422 C127.557195,6.19612375 128.099863,5.96774194 128.735191,5.96774194 C129.370519,5.96774194 129.913186,6.19612375 130.36321,6.65289422 C130.813234,7.1096647 131.038243,7.66046789 131.038243,8.30532033 C131.038243,8.95017277 130.813234,9.50097596 130.36321,9.95774644 C129.913186,10.4145169 129.370519,10.6428987 128.735191,10.6428987 C128.099863,10.6428987 127.557195,10.4145169 127.107171,9.95774644 C126.657147,9.50097596 126.432138,8.95017277 126.432138,8.30532033 Z M133.579542,12.4162341 L137.391491,12.4162341 L137.391491,14.1895694 L137.444435,14.1895694 C137.567971,13.9387934 137.744448,13.6880213 137.973872,13.4372453 C138.203296,13.1864694 138.476836,12.9625656 138.7945,12.7655274 C139.112164,12.5684891 139.473943,12.4072784 139.879847,12.2818905 C140.285751,12.1565025 140.726944,12.0938095 141.20344,12.0938095 C142.209376,12.0938095 143.021172,12.2505421 143.638852,12.564012 C144.256532,12.8774819 144.737432,13.3118552 145.081568,13.8671448 C145.425704,14.4224344 145.659537,15.0762333 145.783073,15.8285611 C145.906609,16.580889 145.968376,17.3958986 145.968376,18.2736144 L145.968376,25.4744306 L141.997596,25.4744306 L141.997596,19.0796759 C141.997596,18.703512 141.98436,18.3139195 141.957888,17.9108867 C141.931416,17.5078539 141.852001,17.1361737 141.719641,16.795835 C141.587281,16.4554962 141.384332,16.1778555 141.110788,15.9629047 C140.837244,15.7479539 140.444582,15.6404801 139.93279,15.6404801 C139.420998,15.6404801 139.006277,15.7345197 138.688613,15.9226017 C138.370949,16.1106836 138.128292,16.3614558 137.960636,16.6749257 C137.79298,16.9883957 137.682682,17.3421636 137.629738,17.7362401 C137.576794,18.1303165 137.550322,18.5422994 137.550322,18.9722011 L137.550322,25.4744306 L133.579542,25.4744306 L133.579542,12.4162341 Z M162.275046,24.3728132 C162.275046,26.8447475 161.661787,28.7210609 160.435251,30.0018095 C159.208715,31.282558 157.342467,31.9229227 154.836451,31.9229227 C153.689331,31.9229227 152.559876,31.7930586 151.448052,31.5333263 C150.336228,31.2735941 149.31266,30.7675717 148.377316,30.0152438 L150.574481,26.6835229 C151.192161,27.2029873 151.840715,27.6149702 152.520163,27.9194839 C153.199611,28.2239975 153.945228,28.3762521 154.757036,28.3762521 C155.974748,28.3762521 156.87037,28.0762211 157.44393,27.47615 C158.01749,26.876079 158.304266,26.1103282 158.304266,25.1788747 L158.304266,23.916045 L158.251322,23.916045 C157.792474,24.5429849 157.223335,24.9863143 156.543887,25.2460465 C155.864439,25.5057787 155.224708,25.6356429 154.624676,25.6356429 C153.671684,25.6356429 152.806945,25.4699541 152.030434,25.1385716 C151.253922,24.8071891 150.58772,24.3414694 150.031808,23.7413983 C149.475896,23.1413273 149.047938,22.4293134 148.747922,21.6053353 C148.447906,20.7813572 148.2979,19.8767861 148.2979,18.8915949 C148.2979,18.0317916 148.43467,17.1899136 148.708214,16.3659355 C148.981758,15.5419574 149.370008,14.8165093 149.872976,14.1895694 C150.375944,13.5626295 150.989203,13.0566071 151.712771,12.6714869 C152.436339,12.2863667 153.256959,12.0938095 154.174655,12.0938095 C154.739391,12.0938095 155.255587,12.1565025 155.723259,12.2818905 C156.190931,12.4072784 156.610065,12.5684891 156.980673,12.7655274 C157.351281,12.9625656 157.66894,13.1819913 157.93366,13.423811 C158.19838,13.6656306 158.410153,13.9029686 158.568985,14.135832 L158.621928,14.135832 L158.621928,12.4162341 L162.275046,12.4162341 L162.275046,24.3728132 Z M152.26868,18.8647262 C152.26868,19.2946278 152.348095,19.7021326 152.506927,20.0872528 C152.665759,20.472373 152.890768,20.8127067 153.18196,21.1082641 C153.473152,21.4038214 153.808459,21.6411594 154.187891,21.8202851 C154.567323,21.9994107 154.986456,22.0889722 155.445304,22.0889722 C155.886504,22.0889722 156.301226,21.9994107 156.689482,21.8202851 C157.077738,21.6411594 157.417457,21.4038214 157.708649,21.1082641 C157.999841,20.8127067 158.22485,20.472373 158.383682,20.0872528 C158.542514,19.7021326 158.621928,19.2946278 158.621928,18.8647262 C158.621928,18.4348246 158.542514,18.0273198 158.383682,17.6421995 C158.22485,17.2570793 157.999841,16.9167457 157.708649,16.6211883 C157.417457,16.3256309 157.077738,16.088293 156.689482,15.9091673 C156.301226,15.7300416 155.886504,15.6404801 155.445304,15.6404801 C154.986456,15.6404801 154.567323,15.7300416 154.187891,15.9091673 C153.808459,16.088293 153.473152,16.3256309 153.18196,16.6211883 C152.890768,16.9167457 152.665759,17.2570793 152.506927,17.6421995 C152.348095,18.0273198 152.26868,18.4348246 152.26868,18.8647262 Z" id="e-catering" fill="url(#linearGradient-1)"></path>
        <g id="ic_person_pin_black_24px">
          <path d="M28.4650735,3.08333333 L7.49080882,3.08333333 C5.82784926,3.08333333 4.49448529,4.47083333 4.49448529,6.16666667 L4.49448529,27.75 C4.49448529,29.4458333 5.82784926,30.8333333 7.49080882,30.8333333 L13.4834559,30.8333333 L17.9779412,35.4583333 L22.4724265,30.8333333 L28.4650735,30.8333333 C30.1130515,30.8333333 31.4613971,29.4458333 31.4613971,27.75 L31.4613971,6.16666667 C31.4613971,4.47083333 30.1130515,3.08333333 28.4650735,3.08333333 Z" id="Shape" fill="url(#linearGradient-1)" fill-rule="nonzero"></path>
          <path d="M16.313317,14.1833333 L14.4822304,14.1833333 L14.4822304,7.70833333 L12.6511438,7.70833333 L12.6511438,14.1833333 L10.8200572,14.1833333 L10.8200572,7.70833333 L8.98897059,7.70833333 L8.98897059,14.1833333 C8.98897059,16.1443333 10.5087725,17.7353333 12.422258,17.8555833 L12.422258,26.2083333 L14.7111162,26.2083333 L14.7111162,17.8555833 C16.6246017,17.7353333 18.1444036,16.1443333 18.1444036,14.1833333 L18.1444036,7.70833333 L16.313317,7.70833333 L16.313317,14.1833333 Z M20.8910335,11.4083333 L20.8910335,18.8083333 L23.1798917,18.8083333 L23.1798917,26.2083333 L25.46875,26.2083333 L25.46875,7.70833333 C22.9418505,7.70833333 20.8910335,9.78033333 20.8910335,11.4083333 Z" id="Shape" fill="#FFFFFF" fill-rule="nonzero"></path>
          <polygon id="Shape" points="0 0 35.9558824 0 35.9558824 37 0 37"></polygon>
        </g>
      </g>
    </g>
  </g>
</svg>