<?xml version="1.0" encoding="utf-8"?>
<!-- Generator: Adobe Illustrator 25.3.1, SVG Export Plug-In . SVG Version: 6.00 Build 0)  -->
<svg version="1.1" id="Layer_1" xmlns="http://www.w3.org/2000/svg" xmlns:xlink="http://www.w3.org/1999/xlink" x="0px" y="0px"
	 viewBox="0 0 2349.8 2349.8" style="enable-background:new 0 0 2349.8 2349.8;" xml:space="preserve">
<style type="text/css">
	.st0{fill:url(#SVGID_1_);}
	.st1{fill:url(#SVGID_2_);}
	.st2{fill:#F3F5FB;}
	.st3{fill:url(#SVGID_3_);}
	.st4{fill:url(#SVGID_4_);}
	.st5{fill:url(#SVGID_5_);}
	.st6{fill:url(#SVGID_6_);}
	.st7{fill:#282D67;}
	.st8{fill:url(#SVGID_7_);}
	.st9{fill:url(#SVGID_8_);}
	.st10{fill:url(#SVGID_9_);}
	.st11{fill:url(#SVGID_10_);}
	.st12{fill:url(#SVGID_11_);}
	.st13{fill:url(#SVGID_12_);}
	.st14{fill:url(#SVGID_13_);}
	.st15{fill:url(#SVGID_14_);}
	.st16{fill:#E3E5F3;}
	.st17{fill:url(#SVGID_15_);}
	.st18{fill:url(#SVGID_16_);}
	.st19{fill:url(#SVGID_17_);}
	.st20{fill:url(#SVGID_18_);}
	.st21{fill:url(#SVGID_19_);}
	.st22{fill:url(#SVGID_20_);}
</style>
<g>
	
		<linearGradient id="SVGID_1_" gradientUnits="userSpaceOnUse" x1="215.308" y1="-11615.6455" x2="2134.0559" y2="-9696.8965" gradientTransform="matrix(1 0 0 -1 0 -9481.5918)">
		<stop  offset="1.240079e-03" style="stop-color:#A7B7DE"/>
		<stop  offset="0.5786" style="stop-color:#E3E5F4"/>
	</linearGradient>
	<path class="st0" d="M1861.4,2280c-458.4,93-914.7,93-1373.1,0c-210.4-42.1-376.5-206-418.6-418.6c-93-458.4-93-914.7,0-1373.1
		c42.1-210.4,206-376.5,418.6-418.6c458.4-93,914.7-93,1373.1,0c210.4,42.1,376.5,206,418.6,418.6c93,458.4,93,914.7,0,1373.1
		C2237.9,2071.8,2071.8,2237.9,1861.4,2280z"/>
	
		<linearGradient id="SVGID_2_" gradientUnits="userSpaceOnUse" x1="1016.2736" y1="-11298.2012" x2="1336.0743" y2="-10015.5547" gradientTransform="matrix(1 0 0 -1 0 -9481.5918)">
		<stop  offset="0" style="stop-color:#00BEED"/>
		<stop  offset="0.302" style="stop-color:#575BA8"/>
		<stop  offset="0.6354" style="stop-color:#EB4398"/>
		<stop  offset="0.9311" style="stop-color:#F8ED47"/>
	</linearGradient>
	<path class="st1" d="M1702,650c-62-62-163.9-62-225.9,0L650,1476.1c-62,62-62,163.9,0,225.9s163.9,62,225.9,0L1702,875.9
		C1764,813.9,1764,712,1702,650z"/>
</g>
</svg>
