<?xml version="1.0" standalone="no"?>
<!DOCTYPE svg PUBLIC "-//W3C//DTD SVG 20010904//EN"
 "http://www.w3.org/TR/2001/REC-SVG-20010904/DTD/svg10.dtd">
<svg version="1.0" xmlns="http://www.w3.org/2000/svg"
 width="289.000000pt" height="288.000000pt" viewBox="0 0 289.000000 288.000000"
 preserveAspectRatio="xMidYMid meet">
<metadata>
Created by potrace 1.14, written by Peter Selinger 2001-2017
</metadata>
<g transform="translate(0.000000,288.000000) scale(0.100000,-0.100000)"
fill="#000000" stroke="none">
<path d="M1235 2815 c-322 -52 -599 -200 -820 -438 -175 -187 -291 -412 -346
-667 -33 -151 -33 -429 0 -580 60 -279 182 -502 386 -705 203 -204 426 -326
705 -386 151 -33 429 -33 580 0 279 60 502 182 705 386 204 203 326 426 386
705 33 151 33 429 0 580 -60 279 -182 502 -386 705 -202 203 -428 327 -700
385 -132 28 -383 35 -510 15z m480 -65 c265 -56 498 -183 690 -375 193 -193
318 -423 376 -695 32 -148 32 -372 0 -520 -23 -110 -75 -258 -121 -351 -120
-238 -361 -479 -599 -599 -158 -79 -366 -135 -543 -146 l-93 -6 57 30 c371
195 765 617 859 922 67 219 -7 400 -224 544 -121 80 -228 127 -527 233 -331
116 -430 177 -430 262 0 104 190 288 548 531 51 34 95 67 98 72 12 19 -19 40
-49 34 -48 -10 -206 -80 -328 -147 -320 -174 -495 -354 -493 -509 2 -133 96
-243 293 -340 78 -38 128 -58 357 -144 311 -115 417 -213 358 -329 -51 -99
-219 -237 -449 -368 -33 -18 -78 -44 -100 -57 -146 -84 -799 -392 -832 -392
-20 0 -173 172 -235 264 -72 109 -105 172 -151 296 -76 203 -102 430 -73 628
91 618 543 1077 1161 1177 119 19 318 12 450 -15z"/>
</g>
</svg>
