<svg width="368" height="189" viewBox="0 0 368 189" fill="none" xmlns="http://www.w3.org/2000/svg">
<rect x="0.5" y="0.5" width="367" height="188" rx="2.5" fill="white" stroke="#D2DAE1"/>
<g clip-path="url(#clip0)">
<path d="M106.352 75.7794H76.5431V85.2726H95.9776C97.1953 85.2726 98.1694 86.2462 98.1694 87.4633V104.259H94.0292C92.8116 104.259 91.8374 103.285 91.8374 102.068V89.9948H83.6058C79.4169 89.9948 76.0073 93.4026 76.0073 97.5893V106.06C76.0073 110.247 79.4169 113.655 83.6058 113.655H113.951V83.3739C113.951 79.1872 110.541 75.7794 106.352 75.7794Z" fill="#0ABF53"/>
<path d="M142.396 104.21H138.256C137.038 104.21 136.064 103.236 136.064 102.019V75.7307H127.881C123.692 75.7307 120.283 79.1385 120.283 83.3252V106.06C120.283 110.247 123.692 113.655 127.881 113.655H158.226V59.9575H142.396V104.21Z" fill="#0ABF53"/>
<path d="M186.672 104.21H182.532C181.314 104.21 180.34 103.236 180.34 102.019V75.7307H164.51V106.06C164.51 110.247 167.919 113.655 172.108 113.655H186.623V118.377H165.045V129.428H194.855C199.043 129.428 202.453 126.02 202.453 121.833V75.7794H186.623V104.21H186.672Z" fill="#0ABF53"/>
<path d="M239.179 75.7794H208.834V106.109C208.834 110.296 212.243 113.703 216.432 113.703H246.241V104.21H226.807C225.589 104.21 224.615 103.236 224.615 102.019V85.2239H228.755C229.973 85.2239 230.947 86.1975 230.947 87.4146V99.4392H239.179C243.368 99.4392 246.777 96.0314 246.777 91.8447V83.3739C246.777 79.1872 243.368 75.7794 239.179 75.7794Z" fill="#0ABF53"/>
<path d="M283.406 75.7794H253.061V113.703H268.891V85.2239H273.031C274.248 85.2239 275.223 86.1975 275.223 87.4146V113.703H291.053V83.3739C291.053 79.1872 287.643 75.7794 283.406 75.7794Z" fill="#0ABF53"/>
</g>
<defs>
<clipPath id="clip0">
<rect x="76.0073" y="59.9575" width="215.045" height="69.519" fill="white"/>
</clipPath>
</defs>
</svg>
