<svg viewBox="0 0 60 60" xmlns="http://www.w3.org/2000/svg" xmlns:xlink="http://www.w3.org/1999/xlink"><defs><clipPath id="b"><use x="-5" y="-3.5" xlink:href="#a"/></clipPath><path id="a" d="M52.7 20.9c-1.5-2.8-5-4.9-12-4.9H26l-1.7 6.2c-4.4 1-8.3 2.5-11.3 4.2-1.3.8-2.6 1.6-3.7 2.7s-2.1 2.7-2.2 4.2c-.2 2 .3 3.4 1 4.6.5.8 1 1.4 1.5 2 1.7 1.9 3.8 3.3 6.1 4.5.7.4 1.5.8 2.3 1.1L16.5 51h18.4c11 0 16.1-4.6 16.1-10.7 0-3.6-2.2-5.9-5.4-7 5-1.2 7.9-4.5 7.9-9 0-.4 0-.7-.1-1-1.2 0-2.3 0-3.3.1-2.3.1-4.8.2-7.2.4-.5 0-1 .1-1.6.2 1.7.3 2.4 1.2 2.4 2.4 0 2.2-1.9 3.5-5.4 3.6h-6.6l1.2-4.7c-3.2.7-6.3 1.6-9.4 2.9-.4.1-.7.3-1.1.5l-4 14.7s-.1.3-.2.7c-.4-.3-.8-.7-1.2-1.1-1.4-1.3-2.6-2.8-3.4-4.6-.4-1-.7-1.8-.6-3.2.2-2.2 1.8-3.8 3.2-5 1.6-1.3 3.4-2.2 5.2-3 6-2.5 12.1-3.6 19.3-4.3 2.4-.2 4.8-.3 7.2-.4 4.5-.2 9.8 0 14.1.6.3 0 .9.2.9 0 .1-.2-.4-.3-.6-.4-3-.9-6.3-1.5-9.6-1.8zM29.9 36.7h6.8c2.9 0 4.4.9 4.4 2.7 0 2.2-2.1 3.7-5.5 3.7h-7.5l1.8-6.4z"/></defs><path fill="none" d="M-1-1h62v62H-1z"/><g><g fill="#00aeef"><use x="-5" y="-3.5" xlink:href="#a"/><path d="M-3 7.5h66v45H-3v-45z" clip-path="url(#b)"/></g></g></svg>
