<?xml version="1.0" encoding="utf-8"?>
<!-- Generator: Adobe Illustrator 16.0.0, SVG Export Plug-In . SVG Version: 6.00 Build 0)  -->
<!DOCTYPE svg PUBLIC "-//W3C//DTD SVG 1.1//EN" "http://www.w3.org/Graphics/SVG/1.1/DTD/svg11.dtd">
<svg version="1.1" id="Layer_1" xmlns="http://www.w3.org/2000/svg" xmlns:xlink="http://www.w3.org/1999/xlink" x="0px" y="0px"
	 width="140px" height="140px" viewBox="0 0 140 140" enable-background="new 0 0 140 140" xml:space="preserve">
<g>
	<path fill-rule="evenodd" clip-rule="evenodd" fill="#C82027" d="M116.762,19.413L20.654,0.689
		C9.593-1.47-0.348,7.498,0.669,18.727l9.662,105.603c0.966,10.543,11.111,17.527,21.281,14.683l95.498-26.622
		c8.209-2.312,13.371-10.265,12.099-18.697l-9.024-60.258C129.09,26.271,123.88,20.81,116.762,19.413L116.762,19.413z
		 M121.033,103.192h-16.349V70.448c0-7.925-0.356-18.772-10.934-18.772c-12.712,0-13.933,12.701-13.933,22.38v29.137H63.47V71.921
		c0-9.677-1.705-15.802-5.11-18.341c-1.704-1.271-3.738-1.904-6.179-1.904c-12.586,0-13.882,13.258-13.882,22.785v28.731H22.001
		V38.617h16.297v7.419c10.932-12.016,30.943-13.109,39.079,2.541c7.322-10.746,21.711-15.244,33.307-8.689
		c9.863,5.385,10.349,15.318,10.349,25.455V103.192z"/>
	<path fill-rule="evenodd" clip-rule="evenodd" fill="#FFFFFF" d="M121.035,103.195h-16.349V70.453
		c0-7.927-0.354-18.774-10.933-18.774c-12.71,0-13.932,12.703-13.932,22.38v29.137H63.474V71.924c0-9.678-1.705-15.799-5.11-18.34
		c-1.705-1.271-3.738-1.906-6.179-1.906c-12.586,0-13.882,13.261-13.882,22.788v28.729H22.005V38.621h16.298v7.417
		c10.933-12.015,30.943-13.107,39.078,2.542c7.324-10.747,21.713-15.243,33.307-8.688c9.865,5.387,10.348,15.318,10.348,25.455
		V103.195z"/>
</g>
<g>
</g>
<g>
</g>
<g>
</g>
<g>
</g>
<g>
</g>
<g>
</g>
</svg>
