<?xml version="1.0" encoding="utf-8"?>
<svg id="Layer_1" data-name="Layer 1" viewBox="0 0 140 140" xmlns="http://www.w3.org/2000/svg">
  <defs>
    <style>.cls-1{fill:none;}.cls-2{fill:#6e2c15;}.cls-3,.cls-8{fill:#fff2e0;}.cls-4{clip-path:url(#clip-path);}.cls-5{fill:#60c7ca;}.cls-6{fill:#6f2e16;}.cls-7{clip-path:url(#clip-path-2);}.cls-8{fill-rule:evenodd;}</style>
    <clipPath id="clip-path">
      <circle class="cls-1" cx="70" cy="70.05" r="59.41"/>
    </clipPath>
    <clipPath id="clip-path-2">
      <path class="cls-1" d="M132.27,70c0-.23,0-.47,0-.7s0-.61,0-.91A62.35,62.35,0,0,0,70.87,7.6,62.33,62.33,0,0,0,7.8,67c0,.23,0,.47,0,.7,0,.42,0,.84,0,1.27s0,.69,0,1,0,.69,0,1,0,.84,0,1.27c0,.23,0,.47,0,.7a62.27,62.27,0,0,0,124.46-1.4c0-.3,0-.61,0-.91S132.27,70.28,132.27,70Z"/>
    </clipPath>
  </defs>
  <title>logo</title>
  <g id="LOGO">
    <circle class="cls-2" cx="70" cy="70" r="69.91"/>
    <path class="cls-3" d="M132.33,70.17c0-.23,0-.47,0-.7s0-.61,0-.91A62.41,62.41,0,0,0,70.87,7.66,62.38,62.38,0,0,0,7.74,67.15c0,.23,0,.47,0,.71,0,.42,0,.84,0,1.27s0,.69,0,1,0,.69,0,1,0,.84,0,1.27c0,.24,0,.47,0,.71a62.33,62.33,0,0,0,124.57-1.4c0-.31,0-.61,0-.91S132.33,70.4,132.33,70.17Z"/>
    <g class="cls-4">
      <path class="cls-5" d="M70,129.78c-1.34,0-2.7,0-4-.14l4-59.51h0v0l0,0h0v0h0v.06h0v.15h0l17.4,56.94a59.79,59.79,0,0,1-7,1.69L70,70.21l3.19,59.49C72.17,129.76,71.09,129.78,70,129.78Zm-11.17-1.05-.12,0a60.24,60.24,0,0,1-7-1.77L69.88,70.22h0l0-.11h0l0-.06,0,.18h0Zm35.37-4.08L70.09,70.24h0l0-.13,30.56,51.24A60.18,60.18,0,0,1,94.23,124.66ZM45,124.32a59.89,59.89,0,0,1-6.4-3.42L69.86,70.21h0Zm61.55-7L70.1,70.08l.11.09h0L112,112.55A60.15,60.15,0,0,1,106.57,117.29Zm-73.87-.56a60,60,0,0,1-5.36-4.84L69.92,70.08h0l-.05.08Zm84.13-9.56L70.23,70.12h0l0,0,0,0-.06,0h0l-.05,0h0l0,0h0l0,0h0L127,88.1a59.92,59.92,0,0,1-2.6,6.75L70.2,70.09,121,101.25A59.88,59.88,0,0,1,116.83,107.18Zm-94.22-.72a60.38,60.38,0,0,1-4-6l51.18-30.4h0l.12-.05,0,0,0,0h0l-.1.09h0ZM69.85,70.07l-.09.05h0Zm-54.57,24a60.08,60.08,0,0,1-2.51-6.77L69.75,70l.12,0Zm113.49-13L70.28,70h0l-.11,0h.11v0L129.68,74A60.33,60.33,0,0,1,128.76,81.14ZM11.08,80.3a59.82,59.82,0,0,1-.82-7.2L69.72,70h0ZM69.92,70.11,70,70v0Zm0,0,0,0h0l0,0h0l0,0h0l0,0h0l.06,0H70v-.06h0v-.06l0-.08h0l-17.34-57a59.92,59.92,0,0,1,7-1.68L70,69.74,66.84,10.23c1-.05,2.09-.08,3.13-.08,1.36,0,2.75,0,4.11.14L70,69.8h0v0l0,0h0v0l0-.06h0l0-.12h0v0h0l0,.19h0v0H70l0,0v0Zm.1,0v0h0Zm.18,0h-.07l0,0h0Zm-.32,0,.06,0h-.06Zm-.12,0L10.33,65.86a60.38,60.38,0,0,1,.93-7.12L69.72,69.91h0l.12,0h-.12Zm.39,0h.06ZM70,70h0l0,0h0l0,0,0,0h0ZM70,70h0l0,0v0l.06,0,0,0h0l0,0h0l0,0h0l0,0h0l-.06,0h0Zm-.12,0h0l-.06,0h.07l0,0Zm.22,0L124.7,45.77a60.07,60.07,0,0,1,2.52,6.76l-57,17.38Zm.15,0h0l58.63-10.35a59.82,59.82,0,0,1,.82,7.2Zm-.17,0h0l.09-.09h0l47.13-36.36a60.26,60.26,0,0,1,4,6L70.25,69.83h0l-.12.05Zm.13-.1-.08.06.09-.05Zm-.35.09h0L13,51.77A59.87,59.87,0,0,1,15.63,45L69.8,69.85,19,38.63a60,60,0,0,1,4.16-5.93L69.77,69.81h0l0,0,0,0Zm.15,0v0l0,0Zm-.14,0-.11-.09h0L28,27.33a60.24,60.24,0,0,1,5.43-4.73Zm.18,0h0l.05-.08,37.1-46.6A60,60,0,0,1,112.61,28Zm-.15,0L39.43,18.56a60.22,60.22,0,0,1,6.4-3.3L69.91,69.7h0Zm.13-.06L81.17,11.21l.09,0A60.33,60.33,0,0,1,88.16,13l-18,56.74h0Zm.08,0h0L94.91,15.58a59.8,59.8,0,0,1,6.4,3.41Z"/>
      <path class="cls-6" d="M130.44,60.53c-1.8-.86-20.34-11-22.21-11.88h0c-.64-.3-5.85-3.21-9-5.19l-.08,0c-1.39-.89-2.72-1.76-4-2.55-2.47-1.61-6-4-6.11-4L89,36.77h0a1.38,1.38,0,0,0-2.15.19,4.14,4.14,0,0,1-2.49,1.4c-1.78,0-6.71-6.77-8.09-8.55-1.16-1.49-5.8-8.84-6.71-9.35S68,20,67.26,20.92c0,0-6.33,7.91-7.91,8.95-.58.38-1.76-.7-1.85-.68h0a.87.87,0,0,0-.28-.05c-.3,0-.39.11-.74.39h0c.16-.13-6.91,5.32-12.64,10-2.24,1.84-9.49,6.85-11.25,7.94-2.23,1.35-21.24,13.85-22.77,14.7C3.4,65.78,4.1,131,69.8,132.69,144.78,134.6,132.88,61.69,130.44,60.53Z"/>
      <path class="cls-3" d="M72.14,28.57a14,14,0,0,0-3.32-5c-1.36-1.26,2,9.75-2.28,13.32-2.48,2.06-4.4.35-6.14,6.7C57.73,53.3,47.62,58.32,47.62,58.32c18.74,3.46,13-9.86,19.06-13.61,5.2-3.2,2.48-6.93,4.91-10.14A6.09,6.09,0,0,0,72.14,28.57Z"/>
      <path class="cls-3" d="M64.61,35.61c4.16-2.4,2.84-12.36,2.16-9.87a.87.87,0,0,1-.09.27c-.54,1.12-1.7,2.56-4.15,5.12-.66.69-6.35,5.38-2.34,10.18C60.22,37.74,62.17,37,64.61,35.61Z"/>
      <path class="cls-3" d="M87.9,40.31a1.71,1.71,0,0,0-1.14,2.22c.7,2.88-.26.72-1.87.72-1,0-1.83.67-1.95,2.46a.23.23,0,0,0,.32.24,4.85,4.85,0,0,1,4.29.53c3.61,2,14.51,17.45,20.23,5C94.92,45.11,90.19,40,87.9,40.31Z"/>
      <path class="cls-3" d="M83.27,42.49c.32-.68-5.92-5.7-9-11.07h0a.16.16,0,0,0-.13-.09.15.15,0,0,0-.09,0h0l0,0a.21.21,0,0,0,0,.09h0a.39.39,0,0,0,0,.1c.07.88,1.63,3.43-.54,5.66-2.56,2.64.37,6.23-4.41,10,5.21,1.88,6.21-4.72,7.92-5.1,1.55-.34,1.86,1.17.72,1.58-3.78,1.36-2.75,9.06-9.26,11.2C85.16,64,78.46,41,82.82,42.52,83.15,42.64,83.23,42.57,83.27,42.49Z"/>
      <path class="cls-3" d="M55.28,37.51a27.13,27.13,0,0,1,2.19-3.61.42.42,0,0,0,.06-.26.42.42,0,0,0-.44-.41.38.38,0,0,0-.23.11A164.22,164.22,0,0,1,32.31,51.46c7.88,4.92,13,.91,16.22-1.82s4.86-7,6.19-10.84Zm1.45-3.88h0v0Z"/>
      <path class="cls-3" d="M57.59,44.15c0-.21,0-.77,0-1.47h0c0-.19,0-1.61-.06-1.74s-.11-1.56-.18-2.08a2,2,0,0,0-.12-.58.24.24,0,0,0-.22-.16l-.07,0h0a.23.23,0,0,0-.09.06,8.66,8.66,0,0,0-.76,2.72,23.56,23.56,0,0,1-2,5.63,30,30,0,0,1-4.15,5.91,39.44,39.44,0,0,0,4.33-2.87A7.7,7.7,0,0,0,57.59,44.15Z"/>
    </g>
    <g class="cls-7">
      <rect class="cls-3" x="8.2" y="64.97" width="122.28" height="27.77"/>
    </g>
    <path class="cls-6" d="M55.13,83a3,3,0,0,1-2.57-1.2,2.56,2.56,0,0,1-.33-2.27,2.64,2.64,0,0,1,1.64-1.62,7.64,7.64,0,0,1,2.64-.4c.34,0,.7,0,1.15,0,0-.14,0-.28,0-.42a10.43,10.43,0,0,0-.15-1.3,1.36,1.36,0,0,0-1.46-.9,2.09,2.09,0,0,0-1.37.3.68.68,0,0,0-.15.54.64.64,0,0,1-.13.5.58.58,0,0,1-.43.13,1.2,1.2,0,0,1-.81-.27.9.9,0,0,1-.29-.7,1.89,1.89,0,0,1,1-1.56,4.93,4.93,0,0,1,2.65-.66,5.83,5.83,0,0,1,1.65.24A2.51,2.51,0,0,1,60,76c0,.89,0,1.8,0,2.68,0,.57,0,1.16,0,1.73a2.05,2.05,0,0,0,.09.57.89.89,0,0,0,.88.69h.16c.08,0,.22,0,.27.11l0,0v0a1.4,1.4,0,0,1-.66.72,2.4,2.4,0,0,1-1.06.36h-.21a1.59,1.59,0,0,1-1.61-1.15,3.24,3.24,0,0,1-2.06,1.18A4.69,4.69,0,0,1,55.13,83Zm1.95-4.44a3.88,3.88,0,0,0-1.7.31,1.22,1.22,0,0,0-.74,1.22,1.21,1.21,0,0,0,.73,1.18,1.73,1.73,0,0,0,.74.15,2.06,2.06,0,0,0,1.39-.49c.09-.09.11-.14.11-.15,0-.59,0-1.18,0-1.79q0-.2,0-.41Z"/>
    <path class="cls-6" d="M32,83a4.63,4.63,0,0,1-2.92-.93,3.88,3.88,0,0,1-1.4-2.2,6,6,0,0,1,.21-4A4.25,4.25,0,0,1,29.44,74a4.62,4.62,0,0,1,2.36-.7h.32a5.74,5.74,0,0,1,1.21.12,3.28,3.28,0,0,1,1.79,1,3.45,3.45,0,0,1,.82,1.88,7.9,7.9,0,0,1,.08.9.87.87,0,0,1-.19.68.94.94,0,0,1-.7.21H30.06a4,4,0,0,0,.49,2.16,2.21,2.21,0,0,0,.93.89,3,3,0,0,0,1.37.31,4.23,4.23,0,0,0,.91-.1,3.07,3.07,0,0,0,1.46-.73.54.54,0,0,1,.36-.16.36.36,0,0,1,.34.4,1.32,1.32,0,0,1-.29.81,3.68,3.68,0,0,1-1.26.93,5.08,5.08,0,0,1-1.51.4A7.38,7.38,0,0,1,32,83Zm-1.93-6.1h3.32c.12,0,.19-.09.19-.26a4.41,4.41,0,0,0-.09-1.11,1.33,1.33,0,0,0-1-1.19,2.41,2.41,0,0,0-.49-.05,1.5,1.5,0,0,0-1.2.55A3.56,3.56,0,0,0,30.07,76.9Z"/>
    <path class="cls-6" d="M16.86,83a6,6,0,0,1-2-.35,2,2,0,0,1-1.48-1.51,1.18,1.18,0,0,1,.3-1,1.37,1.37,0,0,1,1-.52l.2,0c.25.05.31.55.31.55a1.72,1.72,0,0,0,1.11,1.56,2.59,2.59,0,0,0,.93.18,2.25,2.25,0,0,0,1-.21,1.18,1.18,0,0,0,.69-1,1.07,1.07,0,0,0-.53-1,6.36,6.36,0,0,0-1.12-.47c-.22-.08-.46-.16-.68-.26l-.28-.12a10.81,10.81,0,0,1-1.37-.65,2.17,2.17,0,0,1-.81-.87,2.68,2.68,0,0,1-.29-1.17A2.58,2.58,0,0,1,15,74a4.6,4.6,0,0,1,2.59-.71,8,8,0,0,1,1,.06,4,4,0,0,1,1.28.39,1.44,1.44,0,0,1,.68.69,1.29,1.29,0,0,1,.06.9,1.56,1.56,0,0,1-1.48.86h-.15l0-.11,0-.26c0-.18,0-.35-.09-.51a1.12,1.12,0,0,0-1.1-1h-.22a2.67,2.67,0,0,0-1,.18,1,1,0,0,0-.62.82,1,1,0,0,0,.45,1,4.23,4.23,0,0,0,.94.45l.09,0L18,77c.34.11.69.23,1,.37a3.39,3.39,0,0,1,1.54,1.14A2.63,2.63,0,0,1,21,80.22a2.53,2.53,0,0,1-.67,1.55,3.53,3.53,0,0,1-1.63,1,6.36,6.36,0,0,1-1.79.27Z"/>
    <path class="cls-6" d="M24.11,72h0a1.31,1.31,0,0,1-1.36-1.37,1.29,1.29,0,0,1,.4-1,1.45,1.45,0,0,1,1-.36h0a1.36,1.36,0,0,1,.91,2.31,1.41,1.41,0,0,1-1,.37Z"/>
    <path class="cls-6" d="M38.64,82.83a.56.56,0,0,1-.4-.16.53.53,0,0,1-.16-.39c0-2,0-4.84,0-6.5,0-.61-.28-.87-1-1H37a.37.37,0,0,1-.28-.09h0a.32.32,0,0,1,.06-.42,3.12,3.12,0,0,1,2.11-1h.15a1.32,1.32,0,0,1,1.35,1.21l0,.17,0,0A5.12,5.12,0,0,1,41,74a2.28,2.28,0,0,1,2.14-.69,1.18,1.18,0,0,1,.82.52,1.13,1.13,0,0,1,.05,1,2,2,0,0,1-.74,1,.37.37,0,0,1-.23.07h0a.38.38,0,0,1-.31-.16h0a1.22,1.22,0,0,0-1-.48,1.27,1.27,0,0,0-1.11.56.55.55,0,0,0,0,.24v0c0,1.41,0,4.54,0,6.23a.53.53,0,0,1-.16.38.56.56,0,0,1-.4.16Z"/>
    <path class="cls-6" d="M110.3,82.95a3.81,3.81,0,0,1-1.88-.49A3.43,3.43,0,0,1,107.05,81a5.73,5.73,0,0,1,.25-5.92,3.82,3.82,0,0,1,1.51-1.36,4.41,4.41,0,0,1,2-.47,4.27,4.27,0,0,1,2,.49c0-.23,0-.45,0-.66,0-.6,0-1.12,0-1.82,0-.49-.27-.71-.87-.78h0c-.11,0-.3,0-.36-.19s0-.29.2-.44a3.94,3.94,0,0,1,1.89-.9l.31,0a1.28,1.28,0,0,1,.85.28,1.33,1.33,0,0,1,.43.81,5.55,5.55,0,0,1,.09.94c0,1.63,0,3.17,0,4.66,0,1.26,0,2.56,0,3.93a7.35,7.35,0,0,0,.06,1c.11.76.3,1,1.07,1.09l.15,0h.08l.13,0v.13c0,.48-.62.88-1.56,1l-.36,0h0a1.82,1.82,0,0,1-1.11-.36,2.22,2.22,0,0,1-.66-.84l-.09.08a5.6,5.6,0,0,1-.53.46A3.65,3.65,0,0,1,110.3,82.95Zm1-8.38a2,2,0,0,0-1.16.34,2.23,2.23,0,0,0-.82,1.17,6.17,6.17,0,0,0,0,3.87,2,2,0,0,0,1.9,1.44,2.22,2.22,0,0,0,1.4-.52.68.68,0,0,0,.22-.44c0-.63,0-1.28,0-1.9,0-.22,0-.46,0-.68s0-.47,0-.71c0-.63,0-1.28,0-1.92,0-.19,0-.26-.18-.33A3.22,3.22,0,0,0,111.34,74.57Z"/>
    <path class="cls-6" d="M75.34,82.91a2.38,2.38,0,0,1-1-.22,1.61,1.61,0,0,1-.9-1.56c0-.91,0-1.84-.05-2.74,0-.61,0-1.24,0-1.86A2,2,0,0,0,73,75.35a1.06,1.06,0,0,0-.89-.36,3.34,3.34,0,0,0-.69.08l-.34.1a1.78,1.78,0,0,0-.79.39,1.29,1.29,0,0,0-.13.77c0,.39,0,.92,0,1.51,0,1.47,0,3.29,0,4.44a.53.53,0,0,1-.16.39.56.56,0,0,1-.4.16H68.25a.56.56,0,0,1-.4-.16.53.53,0,0,1-.16-.39c0-1.75,0-4.76,0-6.45,0-.66-.22-.82-1.27-1h0a.18.18,0,0,1-.09-.14c0-.16.19-.34.19-.34a3.23,3.23,0,0,1,2.1-1h0A1.36,1.36,0,0,1,70,74.52l0,.2a4,4,0,0,1,2.3-1.33,5.4,5.4,0,0,1,.89-.08,4.06,4.06,0,0,1,.77.07,2,2,0,0,1,1.25.76,2.59,2.59,0,0,1,.47,1.49c0,.75,0,1.52,0,2.26,0,.44,0,.89,0,1.34s0,.94.05,1.34A1.07,1.07,0,0,0,77,81.7h.1c.08,0,.2,0,.26.09h0v0c.06.18-.09.32-.17.4l0,0A2.7,2.7,0,0,1,75.34,82.91Z"/>
    <path class="cls-6" d="M82.17,83a4.66,4.66,0,0,1-2.9-.94,3.76,3.76,0,0,1-1.39-2.16,6,6,0,0,1,.19-4A4.25,4.25,0,0,1,79.62,74,4.63,4.63,0,0,1,82,73.27h.32a5.7,5.7,0,0,1,1.21.12,3.28,3.28,0,0,1,1.79,1,3.45,3.45,0,0,1,.82,1.88,8.25,8.25,0,0,1,.08.94.83.83,0,0,1-.19.64.89.89,0,0,1-.66.21h-5.1a4.14,4.14,0,0,0,.35,1.89A2.5,2.5,0,0,0,83,81.39a4.33,4.33,0,0,0,.94-.11,3.07,3.07,0,0,0,1.46-.73.53.53,0,0,1,.35-.16.32.32,0,0,1,.23.09.42.42,0,0,1,.11.31,1.33,1.33,0,0,1-.3.81,3.89,3.89,0,0,1-2.29,1.24A7.07,7.07,0,0,1,82.17,83Zm-1.9-6.1h3.29a.26.26,0,0,0,.19-.07.23.23,0,0,0,0-.19c0-.1,0-.2,0-.3a5.72,5.72,0,0,0-.1-.86,1.3,1.3,0,0,0-1.09-1.16l-.38,0a1.54,1.54,0,0,0-1.39.76A4,4,0,0,0,80.27,76.9Z"/>
    <path class="cls-6" d="M91.54,82.83a1,1,0,0,1-.76-.18,2.1,2.1,0,0,1-.42-.78l0,0c-.79-2-1.53-3.72-2.24-5.39a5.06,5.06,0,0,0-.65-1.1,2,2,0,0,0-.65-.5c-.12-.06-.25-.14-.28-.28a.36.36,0,0,1,.12-.3,2.75,2.75,0,0,1,2-1h0a1.18,1.18,0,0,1,1.09.73c.4.79.7,1.44.94,2,.35.87.69,1.77,1,2.63l.43,1.12,0,.08.12-.24c.18-.36.35-.71.49-1.06l.18-.43c.34-.8.7-1.63,1-2.46.22-.64.14-1.08-.28-1.36a.27.27,0,0,1-.11-.21.36.36,0,0,1,.12-.29A2.08,2.08,0,0,1,95,73.3a2,2,0,0,1,.42,0,.79.79,0,0,1,.66.94,6.16,6.16,0,0,1-.46,1.62c-.6,1.26-1.25,2.53-1.87,3.76L93,81.14l-.15.29c-.17.34-.36.7-.52,1.06a.5.5,0,0,1-.5.34h-.34Z"/>
    <path class="cls-6" d="M25.13,83A2.53,2.53,0,0,1,24,82.79a1.61,1.61,0,0,1-.9-1.56c0-.4,0-.85,0-1.4h0v-.12c0-.42,0-.84,0-1.26,0-.64,0-1.29,0-1.92v-.09h0c0-.21,0-.41,0-.61,0-.66-.28-.88-1.24-1h0a.2.2,0,0,1-.16-.15c0-.13.09-.26.23-.38A3.22,3.22,0,0,1,24,73.33H24a1.42,1.42,0,0,1,1.45,1.22,7.36,7.36,0,0,1,.08,1.06c0,.79,0,1.49,0,2.17s0,1.58,0,2.48c0,.16,0,.29,0,.41a1.21,1.21,0,0,0,.31.81,1.27,1.27,0,0,0,.84.31A.33.33,0,0,1,27,82a.32.32,0,0,1-.1.35,2.39,2.39,0,0,1-1.78.7Z"/>
    <path class="cls-6" d="M46.44,82.83a.56.56,0,0,1-.4-.16.53.53,0,0,1-.16-.39c0-2,0-4.84,0-6.5,0-.61-.28-.87-1-1h-.05a.37.37,0,0,1-.28-.09h0a.32.32,0,0,1,.06-.42,3.12,3.12,0,0,1,2.11-1h.15a1.32,1.32,0,0,1,1.35,1.21l0,.17,0,0a5.08,5.08,0,0,1,.52-.63A2.28,2.28,0,0,1,51,73.33a1.18,1.18,0,0,1,.82.52,1.12,1.12,0,0,1,.05,1,2,2,0,0,1-.74,1,.37.37,0,0,1-.23.07h0a.38.38,0,0,1-.31-.16h0a1.22,1.22,0,0,0-1-.48,1.27,1.27,0,0,0-1.11.56.56.56,0,0,0,0,.24v0c0,1.41,0,4.54,0,6.23a.53.53,0,0,1-.16.38.56.56,0,0,1-.4.16Z"/>
    <path class="cls-6" d="M99.61,83A3,3,0,0,1,97,81.8a2.56,2.56,0,0,1-.33-2.27,2.64,2.64,0,0,1,1.64-1.62,7.64,7.64,0,0,1,2.64-.4c.34,0,.7,0,1.15,0,0-.14,0-.28,0-.42a10.39,10.39,0,0,0-.15-1.3,1.36,1.36,0,0,0-1.46-.9,2.09,2.09,0,0,0-1.37.3.68.68,0,0,0-.15.54.64.64,0,0,1-.13.5.58.58,0,0,1-.43.13,1.2,1.2,0,0,1-.81-.27.9.9,0,0,1-.3-.7,1.89,1.89,0,0,1,1-1.56,4.93,4.93,0,0,1,2.65-.66,5.83,5.83,0,0,1,1.65.24A2.51,2.51,0,0,1,104.53,76c0,.89,0,1.8,0,2.68,0,.57,0,1.16,0,1.74a2,2,0,0,0,.09.57.89.89,0,0,0,.88.69h.16c.08,0,.22,0,.27.11l0,0v0a1.4,1.4,0,0,1-.66.72,2.4,2.4,0,0,1-1.06.36H104a1.59,1.59,0,0,1-1.61-1.15,3.24,3.24,0,0,1-2.06,1.18A4.69,4.69,0,0,1,99.61,83Zm1.95-4.44a3.88,3.88,0,0,0-1.7.31,1.22,1.22,0,0,0-.74,1.22,1.21,1.21,0,0,0,.73,1.18,1.73,1.73,0,0,0,.74.15,2.06,2.06,0,0,0,1.39-.49c.09-.09.11-.14.11-.15,0-.59,0-1.18,0-1.79q0-.2,0-.41Z"/>
    <path class="cls-6" d="M120.3,83a3,3,0,0,1-2.57-1.2,2.56,2.56,0,0,1-.33-2.27A2.64,2.64,0,0,1,119,77.92a7.64,7.64,0,0,1,2.64-.4c.34,0,.7,0,1.15,0,0-.14,0-.28,0-.42a10.43,10.43,0,0,0-.15-1.3,1.36,1.36,0,0,0-1.46-.9,2.09,2.09,0,0,0-1.37.3.68.68,0,0,0-.15.54.64.64,0,0,1-.13.5.58.58,0,0,1-.43.13,1.2,1.2,0,0,1-.81-.27.9.9,0,0,1-.29-.7,1.89,1.89,0,0,1,1-1.56,4.93,4.93,0,0,1,2.65-.66,5.83,5.83,0,0,1,1.65.24A2.51,2.51,0,0,1,125.22,76c0,.89,0,1.8,0,2.68,0,.57,0,1.16,0,1.74a2.05,2.05,0,0,0,.09.57.89.89,0,0,0,.88.69h.16c.08,0,.22,0,.27.11l0,0v0a1.4,1.4,0,0,1-.66.72,2.4,2.4,0,0,1-1.06.36h-.21a1.59,1.59,0,0,1-1.61-1.15A3.24,3.24,0,0,1,121,82.95,4.69,4.69,0,0,1,120.3,83Zm1.95-4.44a3.88,3.88,0,0,0-1.7.31,1.22,1.22,0,0,0-.74,1.22,1.21,1.21,0,0,0,.73,1.18,1.73,1.73,0,0,0,.74.15,2.06,2.06,0,0,0,1.39-.49c.09-.09.11-.14.11-.15,0-.59,0-1.18,0-1.79q0-.2,0-.41Z"/>
    <path class="cls-6" d="M27.1,85.39a.1.1,0,0,1,.1-.09h.47a.09.09,0,0,1,.1.09v1.3H29.4v-1.3a.09.09,0,0,1,.1-.09H30a.1.1,0,0,1,.1.09v3.25a.1.1,0,0,1-.1.09H29.5a.09.09,0,0,1-.1-.09V87.28H27.76v1.35a.09.09,0,0,1-.1.09H27.2a.1.1,0,0,1-.1-.09Z"/>
    <path class="cls-6" d="M31.11,88.6l1.56-3.3a.09.09,0,0,1,.09-.05h.05a.09.09,0,0,1,.09.05l1.55,3.3a.09.09,0,0,1-.09.13h-.44a.14.14,0,0,1-.15-.1l-.25-.53H32l-.25.53a.15.15,0,0,1-.15.1H31.2A.09.09,0,0,1,31.11,88.6Zm2.17-1-.5-1.08h0l-.49,1.08Z"/>
    <path class="cls-6" d="M35.87,85.32a.08.08,0,0,1,.09-.07H36a.09.09,0,0,1,.09,0l1.11,2.31h0l1.11-2.31a.09.09,0,0,1,.09,0h.08a.08.08,0,0,1,.09.07l.59,3.29a.09.09,0,0,1-.09.11h-.46a.11.11,0,0,1-.1-.07l-.3-1.86h0l-.88,1.93a.09.09,0,0,1-.09.05h-.09a.09.09,0,0,1-.09-.05l-.89-1.93h0l-.29,1.86a.1.1,0,0,1-.09.07h-.45a.09.09,0,0,1-.1-.11Z"/>
    <path class="cls-6" d="M40.5,85.39a.09.09,0,0,1,.1-.09h1.15a1,1,0,0,1,1.06.91.94.94,0,0,1-.55.78.89.89,0,0,1,.65.8,1,1,0,0,1-1.1.95H40.59a.09.09,0,0,1-.1-.09Zm1.19,1.35a.42.42,0,0,0,.43-.44.41.41,0,0,0-.43-.42h-.54v.86Zm.07,1.41a.44.44,0,0,0,.45-.45.48.48,0,0,0-.51-.43h-.55v.87Z"/>
    <path class="cls-6" d="M44.15,85.39a.1.1,0,0,1,.1-.09h.48a.09.09,0,0,1,.1.09v2a.73.73,0,1,0,1.46,0v-2a.09.09,0,0,1,.1-.09h.48a.1.1,0,0,1,.1.09v2a1.4,1.4,0,0,1-2.8,0Z"/>
    <path class="cls-6" d="M48.42,85.39a.09.09,0,0,1,.1-.09h1.44a1,1,0,0,1,.35,2L51,88.58a.09.09,0,0,1-.09.14h-.53a.09.09,0,0,1-.08,0l-.67-1.3h-.56v1.25a.1.1,0,0,1-.1.09h-.46a.09.09,0,0,1-.1-.09Zm1.48,1.47a.51.51,0,0,0,.5-.5.49.49,0,0,0-.5-.48h-.82v1Z"/>
    <path class="cls-6" d="M53.92,85.24a1.93,1.93,0,0,1,1.23.46.09.09,0,0,1,0,.14l-.31.32a.09.09,0,0,1-.13,0,1.16,1.16,0,0,0-.76-.28,1.13,1.13,0,0,0,0,2.26,1.6,1.6,0,0,0,.6-.12v-.42h-.4a.09.09,0,0,1-.1-.09v-.39a.09.09,0,0,1,.1-.09h1a.09.09,0,0,1,.09.09v1.25a.09.09,0,0,1,0,.08,2.58,2.58,0,0,1-1.25.32,1.76,1.76,0,1,1,0-3.52Z"/>
    <path class="cls-6" d="M56.5,85.39a.1.1,0,0,1,.1-.09h.48a.09.09,0,0,1,.1.09v2a.73.73,0,1,0,1.46,0v-2a.09.09,0,0,1,.1-.09h.48a.1.1,0,0,1,.1.09v2a1.4,1.4,0,0,1-2.8,0Z"/>
    <path class="cls-6" d="M60.76,85.39a.09.09,0,0,1,.1-.09h2a.09.09,0,0,1,.1.09v.4a.09.09,0,0,1-.1.09H61.42v.8h1.24a.1.1,0,0,1,.1.09v.41a.09.09,0,0,1-.1.09H61.42v.86H62.9a.09.09,0,0,1,.1.09v.4a.09.09,0,0,1-.1.09h-2a.09.09,0,0,1-.1-.09Z"/>
    <path class="cls-6" d="M64.12,88.24l.18-.3a.12.12,0,0,1,.17,0,1.68,1.68,0,0,0,.76.3.42.42,0,0,0,.46-.38c0-.25-.22-.42-.64-.59s-.95-.48-.95-1.06a1,1,0,0,1,1.13-.94,1.8,1.8,0,0,1,1,.33.12.12,0,0,1,0,.16l-.19.28a.13.13,0,0,1-.18.06,1.68,1.68,0,0,0-.7-.27.4.4,0,0,0-.44.34c0,.23.19.39.59.55s1.05.48,1.05,1.11a1.05,1.05,0,0,1-1.16,1,1.64,1.64,0,0,1-1.11-.38S64.07,88.32,64.12,88.24Z"/>
    <path class="cls-6" d="M67.19,88.6l1.56-3.3a.09.09,0,0,1,.09-.05h.05a.08.08,0,0,1,.09.05l1.55,3.3a.09.09,0,0,1-.09.13H70a.14.14,0,0,1-.15-.1l-.25-.53h-1.5l-.25.53a.15.15,0,0,1-.15.1h-.44A.09.09,0,0,1,67.19,88.6Zm2.17-1-.5-1.08h0l-.49,1.08Z"/>
    <path class="cls-6" d="M71.38,88.24l.18-.3a.12.12,0,0,1,.17,0,1.68,1.68,0,0,0,.76.3.42.42,0,0,0,.46-.38c0-.25-.22-.42-.64-.59s-.94-.48-.94-1.06a1,1,0,0,1,1.13-.94,1.8,1.8,0,0,1,1,.33.12.12,0,0,1,0,.16l-.19.28a.13.13,0,0,1-.18.06,1.67,1.67,0,0,0-.7-.27.4.4,0,0,0-.44.34c0,.23.19.39.59.55s1.05.48,1.05,1.11a1.05,1.05,0,0,1-1.16,1,1.64,1.64,0,0,1-1.11-.38S71.33,88.32,71.38,88.24Z"/>
    <path class="cls-6" d="M76.75,86.52a.42.42,0,0,1,.42.41.41.41,0,0,1-.42.4.41.41,0,0,1-.41-.4A.41.41,0,0,1,76.75,86.52Z"/>
    <path class="cls-6" d="M80.49,85.32a.08.08,0,0,1,.09-.07h.08a.09.09,0,0,1,.09,0l1.11,2.31h0L83,85.29a.09.09,0,0,1,.09,0h.08a.08.08,0,0,1,.09.07l.59,3.29a.09.09,0,0,1-.09.11h-.46a.11.11,0,0,1-.1-.07l-.3-1.86h0L82,88.72a.09.09,0,0,1-.09.05h-.09a.09.09,0,0,1-.09-.05l-.89-1.93h0l-.29,1.86a.1.1,0,0,1-.09.07H80a.09.09,0,0,1-.09-.11Z"/>
    <path class="cls-6" d="M84.65,88.6l1.56-3.3a.09.09,0,0,1,.09-.05h.05a.09.09,0,0,1,.09.05L88,88.6a.09.09,0,0,1-.09.13h-.44a.14.14,0,0,1-.15-.1l-.25-.53h-1.5l-.25.53a.15.15,0,0,1-.15.1h-.44A.09.09,0,0,1,84.65,88.6Zm2.17-1-.5-1.08h0l-.49,1.08Z"/>
    <path class="cls-6" d="M89,85.39a.09.09,0,0,1,.1-.09h.46a.1.1,0,0,1,.1.09v2.75H91a.09.09,0,0,1,.1.09v.4a.09.09,0,0,1-.1.09H89.14a.09.09,0,0,1-.1-.09Z"/>
    <path class="cls-6" d="M92.46,85.88h-.77a.09.09,0,0,1-.1-.09v-.4a.09.09,0,0,1,.1-.09h2.2a.09.09,0,0,1,.1.09v.4a.09.09,0,0,1-.1.09h-.77v2.75a.1.1,0,0,1-.1.09h-.47a.1.1,0,0,1-.1-.09Z"/>
    <path class="cls-6" d="M95.11,85.39a.09.09,0,0,1,.1-.09h2a.09.09,0,0,1,.1.09v.4a.09.09,0,0,1-.1.09H95.76v.8H97a.1.1,0,0,1,.1.09v.41a.09.09,0,0,1-.1.09H95.76v.86h1.49a.09.09,0,0,1,.1.09v.4a.09.09,0,0,1-.1.09h-2a.09.09,0,0,1-.1-.09Z"/>
    <path class="cls-6" d="M98.21,88.6l1.56-3.3a.09.09,0,0,1,.09-.05h.05a.09.09,0,0,1,.09.05l1.55,3.3a.09.09,0,0,1-.09.13H101a.14.14,0,0,1-.15-.1l-.25-.53h-1.5l-.25.53a.15.15,0,0,1-.15.1h-.44A.09.09,0,0,1,98.21,88.6Zm2.17-1-.5-1.08h0l-.49,1.08Z"/>
    <path class="cls-6" d="M102.6,85.39a.09.09,0,0,1,.09-.09h1.19a1.72,1.72,0,1,1,0,3.43h-1.19a.09.09,0,0,1-.09-.09Zm1.22,2.74a1.12,1.12,0,1,0,0-2.24h-.57v2.24Z"/>
    <path class="cls-6" d="M106.42,88.6,108,85.3a.09.09,0,0,1,.09-.05h.05a.09.09,0,0,1,.09.05l1.55,3.3a.09.09,0,0,1-.09.13h-.44a.14.14,0,0,1-.15-.1l-.25-.53h-1.5l-.25.53a.15.15,0,0,1-.15.1h-.44A.09.09,0,0,1,106.42,88.6Zm2.17-1-.5-1.08h0l-.49,1.08Z"/>
    <path class="cls-6" d="M110.61,88.24l.18-.3a.12.12,0,0,1,.17,0,1.69,1.69,0,0,0,.76.3.42.42,0,0,0,.46-.38c0-.25-.22-.42-.64-.59s-.94-.48-.94-1.06a1,1,0,0,1,1.13-.94,1.79,1.79,0,0,1,1,.33.12.12,0,0,1,0,.16l-.19.28a.13.13,0,0,1-.18.06,1.67,1.67,0,0,0-.7-.27.4.4,0,0,0-.44.34c0,.23.19.39.59.55s1.05.48,1.05,1.11a1.05,1.05,0,0,1-1.16,1,1.64,1.64,0,0,1-1.11-.38S110.56,88.32,110.61,88.24Z"/>
    <path class="cls-8" d="M65.59,113.39c0-.07.26-.38.1-.25a5.78,5.78,0,0,0,.32-.86c.05-.27,0-.68,0-.95a4.87,4.87,0,0,0,0-1,3.24,3.24,0,0,1,0-1.08c0-.09.09-.13.12-.18a.42.42,0,0,1,.28-.23,3.08,3.08,0,0,1,1.41-.14c.42.06.56.15.85.17.46,0,.65,0,1.08,0s.91,0,1.35.05c.65,0,1.35,0,2,0a.85.85,0,0,0,.63-.24.6.6,0,0,1-.15-.1.46.46,0,0,1-.14-.24s.06-.07.13-.07h.32a.28.28,0,0,1,.18.06h0l0,0c.1-.05,0-.31.14-.32.44,0,.47.21.81.19a4.2,4.2,0,0,0,.76.41,2.16,2.16,0,0,1,.72.41s0,.38-.14.45a.65.65,0,0,1-.41,0c-.3.33-.72.21-1,.4s-.47.71-.86.9l-.18.41a6.16,6.16,0,0,1-.23.67c-.06.11-.14.2-.23.36a2.13,2.13,0,0,1-.5.54c0,.29.18.49.22.77s-.07.59,0,.86a6,6,0,0,0,.36.57c.06.1,0,.16.06.26s.28.18.2.35h-.59c0-.16-.17-.12-.16-.26a3.73,3.73,0,0,0-.5-1.46,1.77,1.77,0,0,1-.31-.86c-.17.15-.11.4-.21.67a3.44,3.44,0,0,1-.2.36,1.58,1.58,0,0,0-.18.69.89.89,0,0,0,.15.35c.05.09,0,.16.11.23s.19.09.13.26H71.5a.23.23,0,0,0,0-.25c-.06-.05-.06-.09-.06-.18,0-.33.14-.81.14-1.19a8.82,8.82,0,0,1,.05-1.31c-.57-.27-1.47.34-2.39.21-.6-.11-.6-.3-.81-.55a1.08,1.08,0,0,0-.18.36,2.18,2.18,0,0,0-.14,1.13,5.45,5.45,0,0,0,.51,1.06c.1.18-.1.21.21.38s.27.22.23.34h-.68c0-.08.06-.18,0-.2s-.13-.07-.15-.16c-.18-.72-.79-1.54-.91-2s.22-1,.07-1.1-.31.69-.37,1a3.17,3.17,0,0,0-.27,1.13c0,.26.28.67.26.89s.41.12.32.46h-.76c0-.15.11-.19-.1-.36s0-.85-.07-1.23a2.34,2.34,0,0,0-.12-.76c-.08-.25.2-.83.16-1.1s-.08-.79-.09-1.22c0,0,0-.12,0,0-.07.48,0,1.54,0,1.79s0,0,0,0l-.09.48c0,.17.09.23.09.34s-.14.12-.18.25a.57.57,0,0,0,0,.15c0-.26-.1-.12-.14.18s-.12.17-.14.14A1,1,0,0,1,65.59,113.39Z"/>
    <polygon class="cls-3" points="76.8 114.54 76.51 114.84 76.03 113.94 75.6 114.9 75.25 114.38 74.55 115.58 77.56 115.58 76.8 114.54"/>
    <polygon class="cls-3" points="64.69 114.54 64.4 114.84 63.91 113.94 63.48 114.9 63.13 114.38 62.44 115.58 65.45 115.58 64.69 114.54"/>
    <rect class="cls-3" x="62.44" y="115.57" width="15.13" height="0.28"/>
    <path class="cls-3" d="M43.75,113.84a.12.12,0,0,1,.17,0l2.38,1.32a.12.12,0,0,1,0,.17l-.35.63a.12.12,0,0,1-.17,0l-1.59-.88-.46.83,1.31.72a.13.13,0,0,1,0,.17l-.35.63a.13.13,0,0,1-.17,0l-1.31-.72-.77,1.4a.13.13,0,0,1-.17,0l-.68-.38a.12.12,0,0,1,0-.17Z"/>
    <path class="cls-3" d="M46.89,115.55a.12.12,0,0,1,.17-.06l1.79.82a1.41,1.41,0,0,1-.72,2.68l.12,1.89a.12.12,0,0,1-.18.13l-.8-.36a.12.12,0,0,1-.07-.1l-.07-1.95-.41-.19-.7,1.52a.13.13,0,0,1-.17.06l-.71-.33a.13.13,0,0,1-.06-.17ZM48,118.06a.53.53,0,0,0,.67-.27.5.5,0,0,0-.25-.66l-.88-.4-.43.93Z"/>
    <path class="cls-3" d="M50.81,117.28a.12.12,0,0,1,.16-.07l2.55.94a.12.12,0,0,1,.07.16l-.25.67a.12.12,0,0,1-.16.07l-1.71-.63-.28.77,1.41.52a.13.13,0,0,1,.07.16l-.25.67a.12.12,0,0,1-.16.07l-1.41-.52-.31.83,1.71.63a.12.12,0,0,1,.07.16l-.25.67a.12.12,0,0,1-.16.07l-2.55-.94a.12.12,0,0,1-.07-.16Z"/>
    <path class="cls-3" d="M53,122.17l.45-.44a.17.17,0,0,1,.23,0,2,2,0,0,0,.8.61.41.41,0,0,0,.55-.25c.08-.27-.09-.53-.47-.83a1.71,1.71,0,0,1-.82-1.75,1.36,1.36,0,0,1,1.82-.83,2.45,2.45,0,0,1,1.21.87.17.17,0,0,1,0,.21l-.46.39c-.06.06-.19.08-.24,0a2.06,2.06,0,0,0-.79-.64.38.38,0,0,0-.49.21c-.07.23.07.47.51.81a1.74,1.74,0,0,1,.86,1.81,1.44,1.44,0,0,1-1.87.87,2.09,2.09,0,0,1-1.28-.9C52.95,122.27,52.93,122.24,53,122.17Z"/>
    <path class="cls-3" d="M59.72,119.72a2.21,2.21,0,0,1,1.43.92.12.12,0,0,1,0,.18l-.61.42a.12.12,0,0,1-.16,0,1.34,1.34,0,0,0-.8-.51,1.35,1.35,0,0,0-.54,2.63,1.39,1.39,0,0,0,.93-.13.13.13,0,0,1,.17,0l.39.64a.13.13,0,0,1,0,.17,2.26,2.26,0,0,1-1.7.3,2.37,2.37,0,1,1,1-4.64Z"/>
    <path class="cls-3" d="M63.9,120.38a2.37,2.37,0,1,1-2.62,2.08A2.36,2.36,0,0,1,63.9,120.38ZM63.47,124a1.32,1.32,0,1,0-1.15-1.45A1.32,1.32,0,0,0,63.47,124Z"/>
    <path class="cls-3" d="M69.27,123.18,67.83,121a.12.12,0,0,1,.11-.19h.86a.13.13,0,0,1,.11.06l.91,1.35.92-1.34a.12.12,0,0,1,.11-.06h.86a.12.12,0,0,1,.1.19l-1.48,2.18v2.1a.13.13,0,0,1-.13.12h-.78a.12.12,0,0,1-.12-.13Z"/>
    <path class="cls-3" d="M73.29,120.79a.12.12,0,0,1,.11-.13l.16,0,2.86,2.25h0l-.23-2.32a.12.12,0,0,1,.11-.14l.79-.08a.13.13,0,0,1,.14.11l.44,4.4a.12.12,0,0,1-.11.13h-.1l-.09,0-2.84-2.34h0l.24,2.44a.12.12,0,0,1-.11.14l-.78.08a.13.13,0,0,1-.14-.11Z"/>
    <path class="cls-3" d="M78.14,124.69,79.36,120a.13.13,0,0,1,.1-.09h.06a.13.13,0,0,1,.12.05l2.83,4a.12.12,0,0,1-.08.19l-.72.13c-.12,0-.18,0-.26-.12l-.33-.47-1.76.33-.14.56a.25.25,0,0,1-.2.2l-.71.13A.12.12,0,0,1,78.14,124.69Zm2.4-1.88-.69-1h0L79.56,123Z"/>
    <path class="cls-3" d="M82.38,120.31l-.91.23a.12.12,0,0,1-.15-.09l-.17-.7a.12.12,0,0,1,.09-.15l2.83-.71a.13.13,0,0,1,.15.09l.17.7a.13.13,0,0,1-.09.15l-.91.23.85,3.41a.13.13,0,0,1-.09.15l-.77.19a.13.13,0,0,1-.15-.09Z"/>
    <path class="cls-3" d="M84.39,118.94a.13.13,0,0,1,.08-.16l.77-.25a.12.12,0,0,1,.16.08l.83,2.53a.82.82,0,1,0,1.55-.51L87,118.1a.12.12,0,0,1,.08-.16l.77-.25a.13.13,0,0,1,.16.08l.85,2.58a1.87,1.87,0,0,1-3.56,1.17Z"/>
    <path class="cls-3" d="M88.55,117.54a.12.12,0,0,1,.07-.16l1.81-.76A1.4,1.4,0,0,1,91.92,119l1.48,1.19a.12.12,0,0,1,0,.22l-.81.34a.12.12,0,0,1-.12,0L91,119.44l-.42.18.65,1.55a.13.13,0,0,1-.07.16l-.72.3a.12.12,0,0,1-.16-.07Zm2.56.92a.53.53,0,0,0,.26-.68.5.5,0,0,0-.65-.27l-.9.38.4.95Z"/>
    <path class="cls-3" d="M93.66,120.08l-.18-4.88a.13.13,0,0,1,.07-.12l.06,0a.13.13,0,0,1,.13,0l3.85,3a.12.12,0,0,1,0,.2l-.65.33a.22.22,0,0,1-.28,0l-.45-.35-1.59.81,0,.58a.24.24,0,0,1-.14.25l-.64.33A.12.12,0,0,1,93.66,120.08Zm1.77-2.48-.94-.74h0l.06,1.19Z"/>
    <path class="cls-3" d="M95.73,114.13a.12.12,0,0,1,0-.17l.67-.4a.13.13,0,0,1,.17,0l1.8,3,1.34-.8a.12.12,0,0,1,.17,0l.37.61a.13.13,0,0,1,0,.17l-2.12,1.27a.12.12,0,0,1-.17,0Z"/>
    <path class="cls-3" d="M100.47,114.1a.33.33,0,0,1-.19-.6,58,58,0,0,0,6-4.94.33.33,0,0,1,.45.48,58.7,58.7,0,0,1-6.09,5A.33.33,0,0,1,100.47,114.1Z"/>
    <path class="cls-3" d="M41,114.85a.33.33,0,0,1-.18-.05,53.45,53.45,0,0,1-6.57-5,.33.33,0,1,1,.44-.49,52.78,52.78,0,0,0,6.48,5,.33.33,0,0,1-.18.6Z"/>
  </g>
</svg>