<?xml version="1.0" encoding="UTF-8" standalone="no"?>
<svg
   xmlns:dc="http://purl.org/dc/elements/1.1/"
   xmlns:cc="http://creativecommons.org/ns#"
   xmlns:rdf="http://www.w3.org/1999/02/22-rdf-syntax-ns#"
   xmlns:svg="http://www.w3.org/2000/svg"
   xmlns="http://www.w3.org/2000/svg"
   xml:space="preserve"
   enable-background="new 0 0 537.288 157.627"
   viewBox="0 0 499.81818 129.96074"
   height="129.96074"
   width="499.81821"
   y="0px"
   x="0px"
   id="Ebene_1"
   version="1.1"><metadata
     id="metadata15"><rdf:RDF><cc:Work
         rdf:about=""><dc:format>image/svg+xml</dc:format><dc:type
           rdf:resource="http://purl.org/dc/dcmitype/StillImage" /><dc:title></dc:title></cc:Work></rdf:RDF></metadata><defs
     id="defs13" /><path
     id="path8093"
     d="m 464.5792,55.868 c 0,-1.786 0.945,-3.301 2.835,-4.543 1.891,-1.242 4.613,-1.864 8.171,-1.864 l 10.894,0 0,12.639 8.338,0 0,-16.542 -19.231,0 c -3.188,0 -5.985,0.262 -8.393,0.786 -2.409,0.524 -4.429,1.263 -6.059,2.214 -1.632,0.951 -2.854,2.077 -3.668,3.378 -0.816,1.301 -1.224,2.708 -1.224,4.223 l 0,39.021 c 0,1.554 0.407,2.981 1.224,4.281 0.814,1.301 2.018,2.427 3.612,3.378 1.593,0.952 3.595,1.688 6.003,2.213 2.407,0.524 5.205,0.787 8.393,0.787 3.186,0 5.983,-0.292 8.393,-0.874 2.408,-0.582 4.428,-1.398 6.059,-2.446 1.63,-1.049 2.852,-2.291 3.669,-3.728 0.813,-1.437 1.223,-3.008 1.223,-4.717 l -8.226,0.581 c 0,2.02 -0.945,3.738 -2.836,5.155 -1.89,1.417 -4.576,2.125 -8.059,2.125 -3.557,0 -6.3,-0.62 -8.226,-1.862 -1.929,-1.243 -2.892,-2.758 -2.892,-4.544 l 0,-39.661 z m -39.796,-10.31 c -3.187,0 -5.985,0.262 -8.392,0.786 -2.41,0.524 -4.43,1.263 -6.059,2.214 -1.632,0.951 -2.854,2.077 -3.668,3.378 -0.818,1.301 -1.224,2.729 -1.224,4.28 l 0,39.139 c 0,1.515 0.405,2.922 1.224,4.224 0.813,1.301 2.036,2.427 3.668,3.378 1.629,0.951 3.648,1.698 6.059,2.242 2.406,0.543 5.205,0.814 8.392,0.814 3.113,0 5.873,-0.301 8.282,-0.902 2.407,-0.602 4.408,-1.427 6.003,-2.476 1.592,-1.048 2.796,-2.29 3.612,-3.727 0.814,-1.437 1.223,-2.99 1.223,-4.66 l -8.226,0.641 c 0,2.02 -0.945,3.729 -2.834,5.125 -1.891,1.398 -4.577,2.097 -8.061,2.097 -3.557,0 -6.28,-0.61 -8.17,-1.835 -1.89,-1.223 -2.835,-2.727 -2.835,-4.513 l 0,-15.434 11.005,0 c 3.113,0 5.873,-0.264 8.282,-0.787 2.407,-0.524 4.427,-1.262 6.058,-2.213 1.629,-0.951 2.853,-2.077 3.669,-3.378 0.814,-1.301 1.223,-2.728 1.223,-4.281 l 0,-24.112 -19.231,0 z m 10.894,3.903 0,20.618 c 0,1.824 -0.945,3.34 -2.834,4.543 -1.891,1.204 -4.577,1.805 -8.061,1.805 l -11.005,0 0,-20.559 c 0,-1.786 0.945,-3.301 2.835,-4.543 1.89,-1.242 4.613,-1.864 8.17,-1.864 l 10.895,0 z m -62.139,45.894 c 0,1.515 0.406,2.922 1.223,4.224 0.814,1.301 2.019,2.427 3.613,3.378 1.592,0.951 3.594,1.698 6.002,2.242 2.407,0.543 5.205,0.814 8.394,0.814 l 3.668,0 0,-3.96 -3.668,0 c -3.558,0 -6.265,-0.612 -8.115,-1.835 -1.854,-1.223 -2.778,-2.727 -2.778,-4.514 l 0,-46.243 15.229,0 0,-3.902 -15.229,0 0,-7.338 -8.338,0 0,7.338 -9.227,0 0,3.902 9.227,0 0,45.894 z m -54.026,-1.106 0,10.6 5.559,0 c 2.001,-0.116 4.186,-0.465 6.559,-1.048 2.371,-0.582 4.779,-1.427 7.226,-2.533 2.444,-1.106 4.78,-2.484 7.003,-4.136 2.223,-1.65 4.225,-3.62 6.003,-5.911 1.778,-2.291 3.185,-4.902 4.224,-7.834 1.037,-2.931 1.557,-6.241 1.557,-9.93 l 0,-27.899 -8.338,0 0,27.898 c 0,4.621 -0.797,8.562 -2.389,11.822 -1.595,3.263 -3.541,5.951 -5.837,8.067 -2.298,2.116 -4.688,3.728 -7.17,4.834 -2.483,1.106 -4.651,1.834 -6.503,2.184 l 0,-54.805 -7.893,0 0,32.965 c 0,3.378 -0.816,6.349 -2.445,8.911 -1.631,2.563 -3.613,4.747 -5.947,6.552 -2.335,1.807 -4.779,3.233 -7.337,4.281 -2.557,1.048 -4.763,1.747 -6.614,2.097 l 0,-54.806 -8.336,0 0,59.29 6.002,0 c 1.778,-0.116 3.705,-0.396 5.78,-0.844 2.074,-0.446 4.169,-1.107 6.281,-1.98 2.112,-0.874 4.205,-1.95 6.28,-3.232 2.074,-1.281 4.002,-2.795 5.781,-4.543 l 0.554,0 z m -75.923,-39.546 c 0,-1.785 0.945,-3.301 2.834,-4.543 1.89,-1.242 4.615,-1.864 8.171,-1.864 l 10.894,0 0,46.536 c 0,2.019 -0.944,3.736 -2.835,5.153 -1.891,1.418 -4.577,2.126 -8.059,2.126 -3.557,0 -6.281,-0.62 -8.171,-1.863 -1.889,-1.242 -2.834,-2.756 -2.834,-4.543 l 0,-41.002 z m 30.236,-10.31 -19.23,0 c -3.188,0 -5.986,0.262 -8.394,0.786 -2.409,0.525 -4.429,1.263 -6.058,2.214 -1.631,0.952 -2.854,2.077 -3.669,3.378 -0.816,1.301 -1.223,2.708 -1.223,4.223 l 0,40.361 c 0,1.554 0.407,2.98 1.223,4.281 0.815,1.301 2.019,2.427 3.613,3.378 1.593,0.952 3.594,1.689 6.003,2.213 2.407,0.524 5.206,0.786 8.393,0.786 3.186,0 5.982,-0.291 8.393,-0.873 2.407,-0.583 4.428,-1.397 6.059,-2.447 1.629,-1.048 2.852,-2.29 3.668,-3.727 0.814,-1.437 1.223,-3.009 1.223,-4.718 l 0,-49.855 z m -53.025,-30.634 -8.337,0 0,91.091 8.337,0 0,-91.091 z m -59.138,81.596 c 0,1.515 0.406,2.922 1.223,4.224 0.814,1.301 2.037,2.427 3.668,3.378 1.629,0.951 3.649,1.698 6.058,2.242 2.408,0.543 5.206,0.814 8.393,0.814 3.113,0 5.873,-0.271 8.282,-0.814 2.407,-0.544 4.427,-1.291 6.058,-2.242 1.629,-0.951 2.852,-2.077 3.669,-3.378 0.814,-1.302 1.222,-2.709 1.222,-4.224 l 0,-6.931 c 0,-1.552 -0.463,-3.019 -1.389,-4.397 -0.928,-1.378 -2.15,-2.688 -3.669,-3.931 -1.519,-1.243 -3.261,-2.427 -5.224,-3.553 -1.965,-1.126 -3.985,-2.252 -6.059,-3.378 -1.705,-0.933 -3.39,-1.873 -5.057,-2.825 -1.668,-0.951 -3.151,-1.931 -4.447,-2.941 -1.297,-1.009 -2.353,-2.087 -3.168,-3.232 -0.816,-1.145 -1.223,-2.378 -1.223,-3.698 l 0,-5.766 c 0,-1.785 0.945,-3.301 2.835,-4.543 1.89,-1.242 4.613,-1.864 8.17,-1.864 3.483,0 6.17,0.622 8.06,1.864 1.889,1.242 2.834,2.758 2.834,4.543 l 0,5.125 8.337,0 0,-4.775 c 0,-1.553 -0.408,-2.98 -1.222,-4.281 -0.817,-1.301 -2.04,-2.426 -3.669,-3.378 -1.631,-0.951 -3.651,-1.688 -6.058,-2.214 -2.409,-0.524 -5.169,-0.786 -8.282,-0.786 -3.187,0 -5.985,0.262 -8.393,0.786 -2.409,0.525 -4.429,1.263 -6.058,2.214 -1.631,0.952 -2.854,2.077 -3.668,3.378 -0.817,1.301 -1.223,2.729 -1.223,4.281 l 0,5.416 c 0,1.631 0.462,3.145 1.39,4.543 0.925,1.398 2.167,2.728 3.723,3.989 1.557,1.263 3.316,2.457 5.281,3.582 1.962,1.127 3.982,2.233 6.058,3.319 1.704,0.933 3.39,1.864 5.058,2.797 1.667,0.932 3.149,1.912 4.446,2.94 1.296,1.029 2.335,2.097 3.113,3.203 0.778,1.107 1.167,2.301 1.167,3.582 l 0,7.339 c 0,1.786 -0.945,3.29 -2.834,4.513 -1.89,1.225 -4.577,1.835 -8.06,1.835 -3.557,0 -6.28,-0.61 -8.17,-1.835 -1.89,-1.223 -2.835,-2.727 -2.835,-4.513 l 0,-4.368 -8.337,0 0,3.96 z"
     style="fill:#1a1a1a;fill-opacity:1" /><g
     style="fill:#1a1a1a;fill-opacity:1"
     transform="translate(-17.982795,-15.734)"
     id="g8097"><path
       id="path8099"
       d="m 127.261,65.515 c -1.346,-3.698 -3.151,-7.253 -5.411,-10.569 l 7.955,-11.892 -8.567,-8.492 -11.714,7.985 C 106.067,40.145 102.39,38.26 98.587,36.876 L 98.033,22.568 86.11,20.734 81.358,33.993 c -4.453,0.079 -8.883,0.784 -13.155,2.083 l -0.224,0.128 c -0.438,1.753 -1.022,4.624 -1.209,7.493 13.323,-5.354 29.063,-3.603 41.104,5.976 17.833,14.185 20.79,40.14 6.605,57.973 -4.981,6.264 -11.419,10.671 -18.444,13.16 l -0.022,-0.033 c -1.77,0.624 -3.554,1.087 -5.339,1.461 -2.64,3 -5.186,5.236 -9.163,7.138 0.267,0.122 0.098,0.097 0.098,0.097 2.141,0.438 6.029,0.259 8.834,-0.243 2.994,-0.535 5.291,-1.248 5.433,-1.29 l 9.119,11.074 10.601,-5.756 -4.183,-13.24 c 3.031,-2.331 5.835,-5.058 8.323,-8.186 0.378,-0.476 0.735,-0.962 1.092,-1.446 l 13.781,3.572 5.193,-10.889 -11.345,-8.385 c 1.072,-3.907 1.628,-7.909 1.692,-11.907 l 13.378,-4.994 -1.991,-11.896 -14.275,-0.368 z"
       style="fill:#1a1a1a;fill-opacity:1" /></g><path
     id="path8095"
     d="M 55.606205,6.1099997 C 43.924205,15.602 41.408205,31.606 48.700205,42.829 c 3.843,5.915 9.106,11.225 13.78,16.613 5.697,6.566 11.662002,12.877 13.635002,22.8 2.055,10.335 -4.184,20.409 -12.050002,25.641 -2.429,1.616 -6.096,3.101 -9.053,4.019 -2.441,0.758 -3.595,0.588 -4.506,0.865 0,0 -4.279,4.702 -6.292,6.86 -1.901,2.038 -4.095,4.457 -5.273,5.11 -0.965,0.534 -5.237,-0.034 -5.226,-0.2 0.01,-0.166 2.213,-2.755 3.333,-3.949 8.649,-9.213 19.42,-17.886 17.835,-33.279 -0.07,-0.687 -0.318,-1.557 -0.472,-2.178 -3.978,-15.999 -14.211,-28.06 -18.931,-43.763 -0.384,1.658 0.488,6.297 1.223,8.9 0.717,2.541 1.266,4.138 2.227,6.991 1.497,4.442 4.016,9.662 5.489,14.994 3.677,13.312 4.273,24.358 -2.009,34.176 -1.109,1.734 -3.061,5.677 -4.647,6.024 -1.031,0.227 -4.093,-1.367 -5.116,-1.852 -11.592,-5.496 -24.6040002,-20.308 -26.8740002,-36.832 -2.136,-15.55 0.198,-25.459 6.4500002,-37.237 4.868,-7.545 11.225,-14.135 18.375,-19.106 11.379,-7.9090003 24.966,-11.4460003 25.008,-11.3160003"
     style="fill:#80c128;fill-opacity:1" /></svg>
