<svg xmlns="http://www.w3.org/2000/svg" viewBox="0 0 110 100"><style>.st0{enable-background:new ;} .st1{fill:#FFFFFF;} .st2{fill:#0EB550;} .st3{fill:#FFFFFF;stroke:#FFFFFF;stroke-width:0.5;}</style><title>logo copy</title><g id="Page-1"><g id="logo-copy"><g id="Group-4"><g id="Group-2"><g class="st0"><path class="st1" d="M117.605263 61.195396h1.8v6.9h7.7v-6.9h1.8v14.6h-1.8v-6.1h-7.7v6.1h-1.8v-14.6zM131.705263 70.795396c0-2.9 2.1-5.2 5.2-5.2 3 0 5.2 2.1 5.2 5.2s-2.2 5.1-5.2 5.1c-3.1 0-5.2-2.2-5.2-5.1zm8.7 0c0-2.1-1.5-3.6-3.5-3.6-2.1 0-3.5 1.6-3.5 3.6s1.4 3.6 3.5 3.6c1.9 0 3.5-1.5 3.5-3.6zM144.805263 72.795396v-5.6h-1.3v-1.4h1.3v-3.4l1.7-.2v3.6h3.3v1.4h-3.3v5.4c0 1.2.3 1.8 1.2 1.8.6 0 1.2-.2 1.7-.5l.5 1.5c-.6.3-1.3.6-2.4.6-1.9-.1-2.7-1.2-2.7-3.2zM160.405263 71.295396h-7.7c.2 1.9 1.5 3.1 3.4 3.1 1.3 0 2.2-.6 2.8-1.4l1.2 1c-.9 1.1-2.2 1.9-4.1 1.9-2.8 0-5-2.1-5-5.1 0-3 2.1-5.2 4.8-5.2 2.8 0 4.7 2.1 4.7 5-.1.3-.1.6-.1.7zm-7.7-1.4h6.1c-.3-1.7-1.3-2.7-2.9-2.7-1.6 0-2.9 1-3.2 2.7zM163.105263 60.595396h1.7v15.2h-1.7v-15.2zM167.305263 74.495396l.9-1.3c.8.7 1.7 1.2 3.1 1.2 1.2 0 1.9-.6 1.9-1.3 0-.9-.9-1.2-2.4-1.7-1.6-.6-3-1.3-3-3.1 0-1.5 1.4-2.7 3.3-2.7 1.2 0 2.3.3 3.4 1.2l-.9 1.3c-.9-.8-1.8-1-2.7-1-.8 0-1.5.5-1.5 1.2 0 .8.8 1.2 1.9 1.6 2.1.8 3.5 1.2 3.5 3.2 0 1.6-1.2 2.9-3.6 2.9-1.7-.1-3-.6-3.9-1.5z"/></g><g class="st0"><path class="st1" d="M121.105263 32.195396h-5.8v-5.5h17.7v5.4h-5.8v17.4h-6.1v-17.3zM146.905263 49.595396l-4.3-7h-1.4v7h-6v-22.9h9.2c5.8 0 8.3 3.4 8.3 8.1 0 3.4-1.5 5.6-3.9 6.8l5.2 7.9h-7.1zm-5.7-12.3h1.9c1.9 0 3.4-.9 3.4-2.6 0-1.4-1.1-2.6-3.4-2.6h-1.9v5.2zM155.905263 26.695396h15.2v5.4h-9.3v3.4h7.3v5.3h-7.3v3.2h10v5.4h-15.9v-22.7zM174.405263 26.695396h15.2v5.4h-9.3v3.4h7.3v5.3h-7.3v3.2h10v5.4h-15.9v-22.7zM210.605263 43.195396c0 3.7-2.4 6.4-7.3 6.4h-10.4v-22.9h9c5.3 0 7.6 2.2 7.6 5.6 0 1.9-.7 3.9-3.5 5v.1c3.5.9 4.6 3.1 4.6 5.8zm-11.8-7.4h2c1.5 0 2.5-.7 2.5-1.8s-.8-1.9-2.5-1.9h-1.9v3.7zm5.5 6.5c0-1.2-.8-2-2.8-2h-2.7v4.1h2.7c1.7 0 2.8-.7 2.8-2.1zM212.205263 38.195396c0-7 4.9-11.8 11.9-11.8s11.9 4.8 11.9 11.8c0 7-4.9 11.8-11.9 11.8-7-.1-11.9-4.9-11.9-11.8zm17.4 0c0-3.4-2.2-6.1-5.5-6.1-3.2 0-5.5 2.7-5.5 6.1s2.3 6.1 5.5 6.1c3.2-.1 5.5-2.7 5.5-6.1z"/></g></g><g id="Group"><path id="Oval-52-Copy-4" class="st2" d="M43 99.8c23.8 0 59.8-19.3 59.8-43S66.8 0 43 0 0 33.1 0 56.8s19.3 43 43 43z"/><path id="Shape-Copy-3" class="st3" d="M31.8 35.2h-.2v.1h-.1v.1h-.1v.2h-.1v.1h-.1v.3h-.1v.2H31v.2h-.1v.4h-.1v.6h-.1v1.8h.1v.5h.1v.5h.1v.2h.1v.2h.1v.2h.1v.1h.1v.2h.1v.1h.1v.1h.1v.1h.1v.1h.1v.1h.2v.1h.1v.1h.1v.1h.2v.1h.2v.1h.4v.1h.4v.1h.6v.1h6v-.1h.2v-.1h.2V42h.1v-.1h.1v-.2h.1v-.9h-.1v-.2h-.1v-.2h-.1v-.1h-.2v-.1h-.2v-.1h-5.3V40h-.7v-.1h-.4v-.1h-.1v-.1h-.1v-.1h-.1v-.1h-.1v-.2h-.1v-.7H33v-.2h.1v-.8h.1v-.2h.1V37h.2v-.1h.2v-.1h.2v-.1h.4v-.1h.5v-.1h27.3l.6.1.4.1.1.1.1.1.1.1.1.1.1.2.1.5v.2l-.1.7.1.3-.1.2-.1.2-.1.1-.1.1h-.1v.1H63v.3h-.1v.1h-.5v.1H47v.1h-.6v.1H46v.1h-.2v.1h-.1v.1h-.2v.1h-.1v.2h-.2v.1H45v.1h-.1v.2h-.1v.1h-.1v.1h-.1v.2h-.1v.2h-.1v.1h-.1v.4H44v.2h-.1v.4h-.1v.6h-.1v.8h-.1v21.9h.1v.9h.1v.7h.1v.4h.1v.4h.1v.4h.1v.2h.1v.4h.1v.1h.1v.1h.1v.1h.1v.1h.3v.2h.1v.1h.1v.1h.1v.1h.1v.1h.2v.2h.1v.1h.1v.1h.2v.1h.2v.1h.2v.1h.4v.1h.2v.1h.5v.3h2v-.1h.6v-.1h.4v-.1h.4v-.1h.1v-.1h.2v-.1h.1v-.1h.2V71h.1v-.1h.1v-.1h.2v-.1h.1v-.1h.1v-.1h.1v-.2h.1v-.1h.1V70h.1v-.2h.1v-.1h.4v-.2h.1v-.2h.1v-.2h.1v-.2h.1v-.4h.1V68h.1v-.4h.1V67h.3V47.6h-.1v-.2h-.1v-.2h-.1V47h-.1v-.1h-.2v-.1H53v-.1h-.5v.1h-.4v.1h-.2v.1h-.1v.1h-.1v.1h-.1v.2h-.1v18.9h-.1v.7h-.1v.4H51v.4h-.1v.2h-.1v.2h-.1v.2h-.1v.1h-.1v.1h-.1v.1h-.2v.1H50v.1h-.2v.1h-.2v.1h-.7v.1h-.7v-.1h-.4V69h-.2v-.1h-.2v-.1h-.1v-.1h-.1v-.1H47v-.1h-.1v-.2h-.1v-.2h-.1v-.2h-.1v-.5h-.1V67h-.1V44.4h.1v-.6h.1v-.2h.1v-.2h.1v-.2h.1V43h.2v-.1h.5v-.1h14v.1h.2v-.1h1.1v-.1h.5v-.1h.4v-.1h.2v-.1h.2v-.1h.2v-.1h.1v-.1h.2V42h.1v-.1h.1v-.1h.1v-.1h.1v-.1h.1v-.1h.1v-.1h.1v-.2h.1v-.1h.1v-.2h.1v-.2h.3v-.2h.1v-.2h.1v-.4h.1v-.6h.1V37h-.1v-.5h-.1v-.2h-.1v-.2H66v-.2h-.1v-.2h-.1v-.1h-.1v-.1h-.1v-.2h-.1v-.1h-.1v-.1h-.2V35h-.1v-.1h-.2v-.1h-.1v-.1h-.2v-.1h-.2v-.1H64v-.1h-.4V34H63v-.1H34.4v.1h-.6v.1h-.5v.1h-.2v.1h-.4v.1h-.2v.1h-.1v.1h-.2v.1H32v.1h-.1v.1h-.1v.3z"/></g></g></g></g></svg>