<svg xmlns="http://www.w3.org/2000/svg" width="64" height="64" viewBox="0 0 64 64"><path fill="#37474F" d="M22 31c-4.96 0-9 4.04-9 9s4.04 9 9 9c4.97 0 9-4.03 9-9s-4.03-9-9-9zm0 17c-4.4 0-8-3.58-8-8s3.58-8 8-8 8 3.6 8 8-3.58 8-8 8z"/><path fill="#37474F" d="M23 24c.07 0 .2.1.22.18l.6 3.03.05.28.1.67.66.15c1.34.3 2.6.83 3.77 1.57l.58.36.55-.4.05-.03.17-.13 2.58-1.72.1-.02c.1 0 .16.03.18.05l1.42 1.42c.05.05.07.2.03.27l-1.72 2.58-.16.22-.4.55.36.58c.74 1.16 1.27 2.43 1.57 3.77l.15.66.67.1h.05c.07.03.15.04.2.05l3.05.6c.08.02.18.15.18.22v2c0 .07-.1.2-.18.22l-3.03.6-.23.04h-.05l-.67.1-.15.68c-.3 1.33-.83 2.6-1.57 3.76l-.35.6.4.55.15.2 1.72 2.58c.04.06.02.23-.03.28l-1.4 1.42c-.03.02-.1.05-.18.05-.06 0-.1 0-.1-.02l-2.6-1.72c-.05-.04-.1-.1-.2-.16l-.56-.4-.57.36c-1.16.74-2.43 1.27-3.76 1.57l-.67.18-.1.68-.05.23-.6 3.02c-.02.08-.14.18-.22.18h-2c-.07 0-.2-.1-.2-.18l-.62-3.04-.03-.2v-.06l-.12-.67-.66-.15c-1.33-.3-2.6-.83-3.77-1.57l-.57-.36-.55.4-.06.04c-.06.05-.1.1-.17.13l-2.58 1.72-.1.02c-.1 0-.15-.03-.17-.05l-1.42-1.4c-.05-.06-.07-.23-.03-.3l1.73-2.57.12-.17.04-.05.4-.55-.37-.58c-.74-1.16-1.27-2.43-1.57-3.76l-.14-.67-.68-.1H9.4l-.18-.05-3.04-.6C6.1 41.2 6 41.08 6 41v-2c0-.07.1-.2.18-.22l3.04-.6c.06-.02.12-.02.2-.03h.06l.67-.12.15-.66c.3-1.33.83-2.6 1.57-3.77l.36-.57-.4-.55-.04-.06c-.05-.06-.1-.1-.13-.17l-1.72-2.58c-.04-.06-.02-.22.03-.27l1.4-1.42c.03-.02.1-.05.18-.05.06 0 .1.02.1.02l2.6 1.72.16.13.05.03.55.4.58-.36c1.17-.74 2.43-1.27 3.77-1.57l.66-.15.1-.67.02-.07.03-.18.6-3.04c.02-.07.15-.18.22-.18h2zm0-1h-2c-.55 0-1.1.44-1.2.98l-.6 3.04-.05.3c-1.48.34-2.85.92-4.1 1.7l-.25-.18-2.57-1.72c-.2-.13-.43-.2-.67-.2-.32 0-.65.13-.87.35L9.26 28.7c-.4.38-.45 1.07-.15 1.53l1.72 2.57.2.26c-.8 1.24-1.38 2.6-1.7 4.1-.12 0-.23.02-.32.04l-3.04.6c-.54.1-.98.65-.98 1.2v2c0 .55.44 1.1.98 1.2l3.04.6.3.05c.34 1.48.92 2.85 1.7 4.1l-.18.25-1.72 2.57c-.3.46-.24 1.15.15 1.54l1.42 1.43c.2.22.54.34.86.34.24 0 .47-.06.66-.2l2.58-1.7.26-.2c1.24.8 2.6 1.37 4.08 1.7l.06.3.6 3.05c.1.54.65.98 1.2.98h2c.55 0 1.1-.44 1.2-.98l.6-3.04.05-.3c1.47-.34 2.85-.92 4.1-1.7l.24.18 2.57 1.72c.2.13.43.2.66.2.33 0 .66-.13.88-.35l1.43-1.42c.4-.37.45-1.07.15-1.52l-1.72-2.58-.2-.26c.8-1.24 1.38-2.6 1.7-4.1.12 0 .23-.02.32-.04l3.04-.6c.54-.1.98-.65.98-1.2v-2c0-.55-.44-1.1-.98-1.2l-3.04-.6-.3-.05c-.34-1.48-.92-2.85-1.7-4.1l.18-.25 1.72-2.57c.3-.46.23-1.15-.15-1.54l-1.42-1.43c-.2-.22-.54-.34-.86-.34-.24 0-.48.06-.67.2l-2.58 1.7-.26.2c-1.24-.8-2.6-1.37-4.1-1.7 0-.1-.02-.22-.04-.3l-.6-3.05c-.1-.54-.65-.98-1.2-.98z"/><path fill="#37474F" d="M22 35.95c-2.2 0-4 1.8-4 4.05s1.8 4.06 4 4.06 4-1.82 4-4.06-1.8-4.05-4-4.05zM22 43c-1.66 0-3-1.34-3-3s1.34-3 3-3 3 1.35 3 3-1.34 3-3 3zM57.36 16.36l-3.1-.02h-.4c-.33-.6-.7-1.16-1.12-1.68.06-.13.12-.25.16-.37l1.2-2.87c.2-.5 0-1.17-.44-1.48L52 8.85c-.27-.2-.6-.24-.93-.18-.23.04-.45.15-.6.3l-2.22 2.2-.27.28c-.65-.2-1.3-.33-2-.4l-.13-.38-1.18-2.87c-.2-.5-.82-.84-1.36-.73l-1.95.38c-.54.1-1 .64-1 1.2v3.5c-.6.32-1.17.7-1.7 1.12-.12-.07-.25-.13-.36-.17l-2.87-1.2c-.2-.1-.45-.1-.68-.06-.32.06-.62.24-.8.5L32.83 14c-.3.46-.24 1.15.15 1.54l2.18 2.2c.08.1.2.2.3.28-.2.65-.34 1.3-.4 2l-.4.13-2.86 1.18c-.5.2-.84.82-.73 1.36l.38 1.95c.1.54.64 1 1.2 1h3.5c.32.6.7 1.17 1.12 1.7-.07.12-.13.25-.17.36l-1.2 2.87c-.2.5 0 1.17.44 1.48L38 33.17c.26.17.6.23.93.17.23-.05.45-.16.6-.32l2.2-2.18c.1-.08.2-.2.3-.3.63.2 1.3.34 1.98.4l.15.4 1.18 2.86c.2.5.82.84 1.36.73l1.95-.38c.54-.1 1-.64 1-1.2v-3.1-.4c.6-.3 1.17-.7 1.7-1.1l.36.16 2.87 1.2c.2.1.45.1.68.06.32-.06.62-.24.8-.5L57.17 28c.3-.46.24-1.15-.15-1.54l-2.18-2.2c-.08-.1-.2-.2-.3-.28.2-.64.34-1.3.4-2l.4-.13 2.86-1.18c.5-.2.84-.82.73-1.36l-.38-1.95c-.1-.54-.64-1-1.2-1zm.6 3.14c0 .07-.07.22-.14.25l-2.87 1.17-.33.13-.6.2-.07.64c-.06.6-.18 1.2-.36 1.78l-.2.6.48.44c.1.08.18.17.25.24l2.18 2.2c.07.05.08.22.04.28l-1.12 1.66c0 .02-.07.06-.15.08h-.1l-2.87-1.2c-.1-.04-.2-.1-.32-.14l-.58-.28-.5.4c-.45.38-.97.72-1.5 1l-.58.3.03.64v3.46c0 .07-.1.2-.18.2l-1.97.4c-.07 0-.2-.07-.24-.14l-1.18-2.86-.12-.34-.22-.6-.63-.06c-.6-.07-1.2-.2-1.77-.37l-.6-.2-.44.48-.25.25-2.2 2.18c-.02.02-.05.05-.1.06-.1 0-.17 0-.2-.02l-1.64-1.12c-.06-.04-.1-.2-.07-.27l1.2-2.85c.03-.1.08-.2.14-.33l.27-.57-.4-.5c-.38-.45-.72-.97-1-1.5l-.3-.58-.64.03h-3.46c-.07 0-.2-.1-.2-.18l-.4-1.97c0-.07.07-.2.14-.24l2.87-1.18.34-.12.6-.22.05-.63c.06-.6.18-1.2.36-1.77l.2-.6-.47-.44-.26-.25-2.18-2.2c-.06-.06-.08-.22-.04-.28l1.12-1.66c.02-.02.08-.06.16-.07.06-.02.1 0 .1 0l2.87 1.2c.1.03.22.1.33.14l.57.27.5-.4c.46-.38.97-.72 1.52-1l.56-.3-.03-.63V8.66c0-.08.1-.2.2-.22l1.95-.38c.07 0 .22.06.24.13l1.18 2.87.13.34.2.6.64.05c.6.06 1.2.18 1.78.36l.6.2.44-.47c.08-.1.16-.2.24-.26l2.2-2.18c0-.02.05-.04.1-.05.1-.02.16 0 .18.02l1.66 1.1c.06.05.1.2.08.28l-1.2 2.86-.14.33-.28.57.4.5c.38.46.72.97 1 1.52l.3.56.65-.03h3.46c.07 0 .2.1.2.2l.4 1.95z"/><path fill="#37474F" d="M44.24 17.07c-2.17.43-3.6 2.53-3.17 4.7.42 2.16 2.52 3.58 4.7 3.16 2.16-.43 3.58-2.53 3.15-4.7-.4-2.16-2.52-3.58-4.68-3.16zm1.33 6.88c-1.62.3-3.2-.75-3.52-2.38-.3-1.62.75-3.2 2.38-3.5 1.62-.33 3.2.73 3.52 2.36.3 1.62-.75 3.2-2.38 3.52z"/><path fill="#37474F" d="M40.05 16.05c-2.73 2.73-2.73 7.17 0 9.9 2.73 2.73 7.17 2.73 9.9 0 2.73-2.73 2.73-7.17 0-9.9-2.73-2.73-7.17-2.73-9.9 0zm9.2 9.2c-2.35 2.34-6.15 2.34-8.5 0-2.34-2.35-2.34-6.15 0-8.5 2.35-2.33 6.15-2.33 8.5 0 2.34 2.35 2.34 6.15 0 8.5zM57.73 49.72c.55-.06 1.07-.54 1.15-1.1.08-.5-.22-1.07-.68-1.3-.03-.03-.06-.05-.1-.06l-1.96-.8c-.05-.04-.1-.06-.17-.08-.07-.88-.3-1.75-.64-2.56.04-.05.1-.1.12-.14l1.35-1.64c.35-.43.37-1.14.05-1.58-.1-.14-.24-.25-.4-.34-.34-.18-.77-.23-1.12-.08l-1.97.8-.16.1c-.42-.37-.88-.7-1.38-.97-.3-.15-.6-.3-.9-.4v-.2l-.2-2.1c-.04-.42-.33-.8-.7-1.02-.13-.06-.26-.1-.4-.13-.53-.08-1.15.27-1.36.78l-.82 1.96-.06.17c-.9.07-1.75.3-2.57.64-.03-.04-.08-.1-.12-.12l-1.64-1.35c-.06-.05-.12-.1-.18-.12-.42-.23-1-.2-1.4.07-.44.33-.63 1.02-.42 1.52l.8 1.97.08.16c-.36.42-.68.88-.95 1.38-.16.3-.3.6-.4.9h-.2l-2.1.2c-.55.06-1.07.55-1.15 1.1-.08.5.22 1.07.67 1.32.03 0 .06.03.1.04l1.96.82.17.06c.07.9.28 1.75.64 2.57l-.13.12-1.35 1.64c-.36.43-.38 1.14-.05 1.58.1.14.24.25.4.34.34.18.77.23 1.12.08l1.96-.8.16-.08c.4.36.87.68 1.38.95.3.16.58.3.9.4v.2l.2 2.1c.04.42.33.82.7 1.02.12.07.25.1.38.13.55.08 1.17-.27 1.38-.77l.8-1.95.07-.18c.9-.06 1.77-.28 2.58-.64l.14.13 1.64 1.35c.05.05.1.1.17.12.43.24 1.02.2 1.4-.07.45-.33.64-1 .43-1.52l-.82-1.96-.07-.16c.36-.4.68-.87.95-1.38.16-.3.3-.6.4-.9h.2l2.1-.2zm-2.2-.8H55.38l-.64.05-.23.6c-.1.3-.23.55-.35.77-.23.43-.5.84-.83 1.2l-.4.5.24.57.05.1.03.05.8 1.96c.04.1 0 .27-.07.33h-.02c-.05.05-.22.07-.34 0l-1.63-1.34-.05-.06-.07-.06-.48-.42-.58.25c-.73.32-1.48.5-2.26.58l-.64.05-.22.6-.02.06-.03.06-.8 1.96c-.04.1-.22.18-.3.17 0 0-.03 0-.06-.03-.1-.06-.18-.17-.2-.23l-.2-2.1v-.17l-.04-.63-.6-.23c-.3-.1-.54-.22-.77-.35-.43-.23-.83-.5-1.2-.83l-.5-.42-.6.27-.03.02-.07.03-1.96.8c-.05.03-.17.02-.27-.03l-.07-.05v-.02c-.05-.08-.05-.26 0-.33l1.36-1.63.04-.05.06-.07.42-.48-.25-.58c-.32-.73-.5-1.5-.57-2.26l-.05-.63-.6-.2-.1-.05-.04-.02-1.96-.8c-.1-.06-.18-.23-.17-.3.03-.1.17-.24.26-.25l2.1-.2h.17l.63-.06.23-.58c.1-.3.23-.56.35-.78.23-.43.5-.84.84-1.2l.4-.5-.26-.58-.04-.07-.02-.05-.8-1.96c-.05-.1 0-.3.08-.34.07-.04.23-.05.34 0l1.64 1.35.04.06.08.06.47.42.6-.25c.7-.32 1.46-.5 2.23-.57l.63-.05.22-.6.03-.1.02-.04.8-1.96c.05-.08.23-.18.3-.17h.02l.04.03c.1.06.18.18.18.23l.2 2.1v.17l.05.63.6.23c.3.1.55.23.77.35.43.23.84.5 1.2.83l.5.42.58-.27.07-.03.05-.03 1.96-.8c.05-.03.17-.02.27.03l.07.05c.06.08.05.28 0 .35l-1.35 1.64-.06.04-.06.07-.42.48.25.58c.33.73.5 1.5.57 2.26l.05.63.6.2.1.05.04.02 1.97.8c.1.07.17.23.16.3-.02.1-.17.24-.26.25l-2.1.2z"/><path fill="#37474F" d="M49.67 43.93c-1.7-.93-3.82-.3-4.75 1.4-.92 1.7-.3 3.82 1.4 4.75 1.7.92 3.83.3 4.75-1.4.93-1.7.3-3.83-1.4-4.75zM46.8 49.2c-1.2-.66-1.66-2.18-1-3.4.66-1.2 2.18-1.66 3.4-1 1.2.66 1.66 2.18 1 3.4-.66 1.2-2.18 1.66-3.4 1z"/></svg>