<svg xmlns="http://www.w3.org/2000/svg" width="64" height="64" viewBox="0 0 64 64"><path fill="#37474F" d="M57 10H7c-1.1 0-2 .9-2 2v40c0 1.1.9 2 2 2h50c1.1 0 2-.9 2-2V12c0-1.1-.9-2-2-2zM6 12c0-.55.45-1 1-1h50c.55 0 1 .45 1 1v9H6v-9zm52 40c0 .55-.45 1-1 1H7c-.55 0-1-.45-1-1V22h52v30z"/><path fill="#37474F" d="M11 13.5c-1.38 0-2.5 1.12-2.5 2.5s1.12 2.5 2.5 2.5 2.5-1.12 2.5-2.5-1.12-2.5-2.5-2.5zm0 4c-.83 0-1.5-.67-1.5-1.5s.67-1.5 1.5-1.5 1.5.67 1.5 1.5-.67 1.5-1.5 1.5zM17 13.5c-1.38 0-2.5 1.12-2.5 2.5s1.12 2.5 2.5 2.5 2.5-1.12 2.5-2.5-1.12-2.5-2.5-2.5zm0 4c-.83 0-1.5-.67-1.5-1.5s.67-1.5 1.5-1.5 1.5.67 1.5 1.5-.67 1.5-1.5 1.5zM23 13.5c-1.38 0-2.5 1.12-2.5 2.5s1.12 2.5 2.5 2.5 2.5-1.12 2.5-2.5-1.12-2.5-2.5-2.5zm0 4c-.83 0-1.5-.67-1.5-1.5s.67-1.5 1.5-1.5 1.5.67 1.5 1.5-.67 1.5-1.5 1.5zM53 15c0-.55-.45-1-1-1H40c-.55 0-1 .45-1 1v2c0 .55.45 1 1 1h12c.55 0 1-.45 1-1v-2zm-1 2H40v-2h12v2zM34.8 34.58l3.2 2.28V49c0 1.65 1.35 3 3 3s3-1.35 3-3V36.86l3.2-2.28c.44-.32.8-1.03.8-1.58v-5c0-.55-.32-1.32-.7-1.7L44 23v6l-3 2-3-2v-6l-3.3 3.3c-.38.38-.7 1.15-.7 1.7v5c0 .55.36 1.26.8 1.58zM35 28c0-.28.2-.8.4-1l1.6-1.6V29.55l.45.3 3 2 .55.36.56-.37 3-2 .44-.3V25.2l1.6 1.7c.2.2.4.82.4 1.1v5c0 .23-.2.63-.4.77l-3.18 2.27-.42.3V49c0 1.1-.9 2-2 2s-2-.9-2-2V36.34l-.42-.3-3.18-2.27c-.2-.14-.4-.54-.4-.77v-5z"/><path fill="#B2FF59" stroke="#37474F" stroke-miterlimit="10" d="M41 49V38" stroke-linecap="round"/><path fill="#37474F" d="M32 41h-4V24h-8v17h-4l8 11 8-11zm-12 1h1V25h6v17h3.04L24 50.3 17.96 42H20z"/></svg>