<svg xmlns="http://www.w3.org/2000/svg" width="54" height="54" viewBox="0 0 54 54"><path d="M32.57 22.5l-.52.88c-.27.48-.3.98-.07 1.12.24.14.66-.14.94-.62l.5-.9c.3-.47.32-.97.08-1.1-.24-.14-.66.13-.93.6zm3.43 6c.14.25.64.22 1.1-.05l.9-.52c.5-.27.76-.7.63-.93-.14-.24-.65-.2-1.12.07l-.88.5c-.48.3-.76.7-.62.94zm1.47 5.5c0 .27.45.5 1 .5h1.03c.55 0 1-.23 1-.5s-.45-.5-1-.5h-1.03c-.55 0-1 .22-1 .5zm.53 6.07l-.88-.52c-.48-.27-.98-.3-1.12-.07-.14.24.14.66.61.94l.9.5c.5.3 1 .32 1.12.08.14-.24-.14-.66-.6-.93zm-5.08 4.05c-.28-.48-.7-.76-.94-.62s-.2.64.07 1.12l.52.9c.27.46.7.74.93.6.24-.13.2-.64-.07-1.1l-.5-.9zm-6.42.85c-.28 0-.5.45-.5 1V47c0 .55.23 1 .5 1s.5-.45.5-1v-1.03c0-.55-.23-1-.5-1zm-6.42-.85l-.5.9c-.3.46-.32.97-.08 1.1.24.13.66-.14.93-.6l.52-.9c.27-.48.3-.98.07-1.12-.23-.14-.66.14-.94.62zm-4.2-4.57l-.9.52c-.47.27-.74.7-.6.93.13.24.63.2 1.1-.07l.9-.5c.48-.3.76-.7.62-.95-.14-.23-.64-.2-1.12.07zM15.53 34c0-.28-.45-.5-1-.5H13.5c-.55 0-1 .22-1 .5 0 .27.45.5 1 .5h1.03c.55 0 1-.23 1-.5zm.85-6.42l-.9-.5c-.47-.3-.97-.32-1.1-.08-.14.24.14.66.6.93l.9.52c.48.27.98.3 1.12.06.14-.22-.14-.64-.62-.92zm4.05-5.08c-.27-.5-.7-.76-.93-.63-.23.13-.2.64.07 1.12l.5.88c.3.48.7.76.95.62s.2-.64-.07-1.12l-.52-.9z" fill="#37474f"/><path d="M26.5 18c-8.84 0-16 7.16-16 16s7.16 16 16 16 16-7.17 16-16-7.16-16-16-16zm0 31c-8.28 0-15-6.72-15-15 0-8.28 6.72-15 15-15 8.28 0 15 6.72 15 15 0 8.28-6.72 15-15 15z" fill="#37474f"/><path d="M44 18.5l.5.5 3-3-3-3-3 3 .5.5-2.4 2.4c-3.05-2.63-6.87-4.38-11.1-4.8v-.42c2.9-.86 5-3.5 5-6.68 0-3.87-3.13-7-7-7s-7 3.13-7 7c0 3.17 2.1 5.84 5 6.7v.4c-10.1 1-18 9.53-18 19.9 0 11.04 8.96 20 20 20s20-8.96 20-20c0-5-1.86-9.6-4.9-13.1zm.5-4.1l1.6 1.6-1.6 1.58L42.9 16zm-1.8 2.8l.6.6-2.38 2.36-.6-.58 2.4-2.38zM24.5 9V6h4v3zm3 1v4h-2v-4zm-7-3c0-3.3 2.7-6 6-6s6 2.7 6 6c0 2.6-1.68 4.8-4 5.63V10h1V5h-6v5h1v2.63c-2.32-.82-4-3.03-4-5.63zm25 27c0 10.48-8.52 19-19 19s-19-8.52-19-19 8.52-19 19-19 19 8.52 19 19z" fill="#37474f"/><path d="M26.88 22.66c.07-.18.12-.4.12-.63V21c0-.55-.23-1-.5-1s-.5.45-.5 1v1.03c0 .24.05.45.12.63l-1.36 9.55c-.47.47-.76 1.1-.76 1.8a2.5 2.5 0 0 0 5 0c0-.7-.3-1.33-.76-1.8l-1.36-9.54zm-.38 4.4l.65 4.53c-.2-.06-.42-.1-.65-.1-.23 0-.44.04-.65.1zm0 8.44c-.83 0-1.5-.67-1.5-1.5s.67-1.5 1.5-1.5 1.5.67 1.5 1.5-.67 1.5-1.5 1.5z" fill="#37474f"/></svg>
