<svg xmlns="http://www.w3.org/2000/svg" width="64" height="64" viewBox="0 0 64 64"><path fill="#37474F" d="M28 15h14v1H28zM28 19h20v1H28z"/><path fill="#37474F" d="M43 5H10v54h44V16L43 5zm8.6 10H44V7.4l7.6 7.6zM53 58H11V6h32v10h10v42z"/><path fill="#37474F" d="M16 31h32v1H16zM16 27h32v1H16zM16 23h32v1H16zM26 11H16v10h10V11zm-1 9h-8v-8h8v8zM32 50c-2.2 0-4 1.8-4 4 0 1.2.54 2.27 1.38 3H32c-1.65 0-3-1.35-3-3s1.35-3 3-3c1.66 0 3 1.35 3 3s-1.34 3-3 3h2.62c.84-.73 1.38-1.8 1.38-3 0-2.2-1.8-4-4-4z"/><path fill="#37474F" d="M32 44.96c-4.97 0-9 4.05-9 9.04 0 1.05.2 2.06.52 3h1.07c-.4-.93-.6-1.94-.6-3 0-4.4 3.6-8 8-8 4.42 0 8 3.6 8 8 0 1.06-.2 2.07-.6 3h1.08c.33-.94.52-1.95.52-3 0-5-4.03-9.04-9-9.04z"/><path fill="#37474F" d="M45.44 50.1c-.3-1-.68-1.95-1.17-2.84.12-.16.24-.3.33-.44l2.38-3.32c.32-.45.26-1.13-.13-1.52l-2.83-2.83c-.22-.22-.53-.33-.84-.33-.24 0-.48.07-.68.2l-3.32 2.38-.44.33c-.9-.5-1.84-.88-2.83-1.17 0-.2-.04-.4-.06-.55l-.68-4c-.1-.56-.6-1-1.16-1h-4c-.55 0-1.07.44-1.16 1l-.68 4-.07.56c-1 .3-1.95.68-2.84 1.17-.16-.12-.3-.24-.44-.33l-3.32-2.38c-.2-.14-.43-.2-.68-.2-.3 0-.62.1-.84.33l-2.83 2.83c-.4.4-.44 1.07-.12 1.52l2.37 3.32.33.44c-.5.9-.88 1.84-1.16 2.83-.2 0-.4.04-.56.06l-4 .67c-.56.1-1 .62-1 1.17v4c0 .4.24.79.58 1h5.76l-.66-.1c-.2 0-.36-.03-.5-.05l-4.03-.67c-.06 0-.15-.12-.15-.18v-4c0-.06.1-.17.15-.18l4.03-.67.5-.06.66-.1.2-.63c.26-.93.62-1.8 1.07-2.63l.33-.58-.4-.52-.32-.4-2.36-3.32c-.04-.05-.02-.2.02-.23l2.83-2.84c0-.02.06-.04.13-.04.04 0 .08 0 .1.02l3.3 2.37.4.32.53.4.58-.3c.82-.46 1.7-.82 2.63-1.1l.64-.18.1-.66c0-.2.03-.36.05-.5l.67-4.03c0-.06.12-.15.18-.15h4c.06 0 .17.1.18.15l.67 4.03.06.5.1.66.63.18c.93.27 1.8.64 2.63 1.1l.58.3.53-.4c.14-.12.27-.23.4-.3l3.3-2.38.1-.02c.07 0 .13.02.14.04l2.84 2.82c.05.05.06.2.02.24l-2.37 3.32c-.1.1-.2.25-.3.4l-.43.5.32.6c.44.8.8 1.7 1.08 2.63l.18.64.67.08.5.07 4.02.67c.06 0 .15.12.15.18v4c0 .06-.1.17-.15.18l-4.03.67-.5.06-.66.1h5.76c.34-.22.58-.6.58-1v-4c0-.55-.44-1.07-1-1.16l-4-.68-.56-.07zM28 11h13.94v1H28z"/></svg>