<svg xmlns="http://www.w3.org/2000/svg" width="64" height="64" viewBox="0 0 64 64"><path fill="#37474F" d="M58 50H38v1H26v-1H6c-.55 0-1 .45-1 1s.44 1.1.98 1.22l6.07 1.35c1.07.24 2.84.43 3.95.43h32c1.1 0 2.87-.2 3.95-.43l6.07-1.35c.54-.12.98-.67.98-1.22s-.45-1-1-1zm-.2 1.24l-6.06 1.35c-1 .2-2.72.4-3.74.4H16c-1.02 0-2.73-.2-3.74-.4L6.2 51.23c-.1-.02-.2-.16-.2-.24h19v1h14v-1h19c0 .08-.1.22-.2.24zM53 16H11c-.55 0-1 .45-1 1v30h44V17c0-.55-.45-1-1-1zm0 30H11V17h42v29z"/><path fill="#37474F" d="M56 17c0-1.65-1.35-3-3-3H11c-1.65 0-3 1.35-3 3v32h48V17zm-1 31H9V17c0-1.1.9-2 2-2h42c1.1 0 2 .9 2 2v31z"/><path fill="#37474F" d="M14 43h2v1h-2zM14 40h2v1h-2zM14 37h2v1h-2zM14 34h2v1h-2zM14 31h2v1h-2zM14 28h2v1h-2zM14 25h2v1h-2zM14 22h2v1h-2zM14 19h2v1h-2zM18 37h8v1h-8zM27 37h2v1h-2zM28 43h10v1H28zM25 43h2v1h-2zM18 43h6v1h-6zM22 40h8v1h-8zM39 37h8v1h-8zM30 37h8v1h-8zM36 31h8v1h-8zM33 31h2v1h-2zM18 28h2v1h-2zM24 31h4v1h-4zM18 25h4v1h-4zM23 25h4v1h-4zM28 25h13v1H28zM32 22h4v1h-4zM27 22h4v1h-4zM37 22h2v1h-2zM37 34h5v1h-5zM32 34h4v1h-4zM18 34h11v1H18zM18 22h8v1h-8zM18 19h2v1h-2z"/></svg>