<svg xmlns="http://www.w3.org/2000/svg" width="54" height="54" viewBox="0 0 54 54"><path d="M53.061 47.06l-14-14c-.58-.58-1.3-.88-2-.88-.25 0-.5.06-.75.13l-1.98-1.98c2.33-3.15 3.73-7.04 3.73-11.27 0-10.5-8.5-19-19-19s-19 8.5-19 19 8.5 19 19 19c4.23 0 8.12-1.4 11.27-3.73l1.98 1.98c-.28.94-.04 1.96.75 2.75l14 14c.58.58 1.3.88 2 .88s1.42-.3 2-.88l2-2c1.17-1.17 1.17-2.83 0-4zm-34-10c-9.93 0-18-8.07-18-18s8.07-18 18-18 18 8.07 18 18-8.08 18-18 18zm13.73-1.68l-1.65-1.65a20.6 20.6 0 0 0 2.6-2.6l1.64 1.66c-.1.1-.22.17-.32.27l-2 2c-.1.1-.18.2-.27.32zm19.57 14.98l-2 2c-.4.37-.83.58-1.3.58-.47 0-.9-.2-1.3-.6l-14-14c-.77-.76-.77-1.8 0-2.57l2-2c.4-.37.83-.58 1.3-.58.47 0 .9.2 1.3.6l14 14c.77.76.77 1.8 0 2.57z" fill="#37474f"/><path d="M28.611 9.51c-.2-.2-.52-.2-.7 0-.18.2-.2.52 0 .7 2.35 2.37 3.65 5.5 3.65 8.85 0 3.34-1.3 6.48-3.66 8.84-4.88 4.87-12.8 4.87-17.68 0-.2-.2-.5-.2-.7 0-.2.2-.2.5 0 .7 2.63 2.64 6.08 3.95 9.54 3.95 3.46 0 6.9-1.32 9.55-3.95 2.55-2.54 3.95-5.94 3.95-9.54 0-3.6-1.4-7-3.95-9.55z" fill="#37474f"/><path d="M19.061 3.06c-8.82 0-16 7.18-16 16s7.18 16 16 16 16-7.18 16-16-7.18-16-16-16zm0 31c-8.28 0-15-6.72-15-15 0-8.28 6.72-15 15-15 8.28 0 15 6.72 15 15 0 8.28-6.72 15-15 15z" fill="#37474f"/></svg>
