<svg xmlns="http://www.w3.org/2000/svg" width="64" height="64" viewBox="0 0 64 64"><path fill="#37474F" d="M58 52L44 38c-.58-.58-1.3-.88-2-.88-.25 0-.5.06-.75.13l-1.98-1.98C41.6 32.12 43 28.23 43 24c0-10.5-8.5-19-19-19S5 13.5 5 24s8.5 19 19 19c4.23 0 8.12-1.4 11.27-3.73l1.98 1.98c-.28.94-.04 1.96.75 2.75l14 14c.58.58 1.3.88 2 .88s1.42-.3 2-.88l2-2c1.17-1.17 1.17-2.83 0-4zM24 42c-9.93 0-18-8.07-18-18S14.07 6 24 6s18 8.07 18 18-8.08 18-18 18zm13.73-1.68l-1.65-1.65c.94-.78 1.8-1.65 2.6-2.6l1.64 1.66c-.1.1-.22.17-.32.27l-2 2c-.1.1-.18.2-.27.32zM57.3 55.3l-2 2c-.4.37-.83.58-1.3.58s-.9-.2-1.3-.6l-14-14c-.77-.76-.77-1.8 0-2.57l2-2c.4-.37.83-.58 1.3-.58s.9.2 1.3.6l14 14c.77.76.77 1.8 0 2.57z"/><path fill="#37474F" d="M33.55 14.45c-.2-.2-.52-.2-.7 0s-.2.52 0 .7c2.35 2.37 3.65 5.5 3.65 8.85 0 3.34-1.3 6.48-3.66 8.84-4.88 4.87-12.8 4.87-17.68 0-.2-.2-.5-.2-.7 0s-.2.5 0 .7c2.63 2.64 6.08 3.95 9.54 3.95s6.9-1.32 9.55-3.95C36.1 31 37.5 27.6 37.5 24c0-3.6-1.4-7-3.95-9.55z"/><path fill="#37474F" d="M24 8C15.18 8 8 15.18 8 24s7.18 16 16 16 16-7.18 16-16S32.82 8 24 8zm0 31c-8.28 0-15-6.72-15-15S15.72 9 24 9s15 6.72 15 15-6.72 15-15 15z"/></svg>