<svg xmlns="http://www.w3.org/2000/svg" width="54" height="54" viewBox="0 0 54 54"><path d="M52 5H2C.9 5 0 5.9 0 7v40c0 1.1.9 2 2 2h50c1.1 0 2-.9 2-2V7c0-1.1-.9-2-2-2zM1 7c0-.55.45-1 1-1h50c.55 0 1 .45 1 1v9H1zm52 40c0 .55-.45 1-1 1H2c-.55 0-1-.45-1-1V17h52z" fill="#37474f"/><path d="M6 8.5a2.5 2.5 0 0 0 0 5 2.5 2.5 0 0 0 0-5zm0 4c-.83 0-1.5-.67-1.5-1.5S5.17 9.5 6 9.5s1.5.67 1.5 1.5-.67 1.5-1.5 1.5zm6-4a2.5 2.5 0 0 0 0 5 2.5 2.5 0 0 0 0-5zm0 4c-.83 0-1.5-.67-1.5-1.5s.67-1.5 1.5-1.5 1.5.67 1.5 1.5-.67 1.5-1.5 1.5zm6-4a2.5 2.5 0 0 0 0 5 2.5 2.5 0 0 0 0-5zm0 4c-.83 0-1.5-.67-1.5-1.5s.67-1.5 1.5-1.5 1.5.67 1.5 1.5-.67 1.5-1.5 1.5zM48 10c0-.55-.45-1-1-1H35c-.55 0-1 .45-1 1v2c0 .55.45 1 1 1h12c.55 0 1-.45 1-1zm-1 2H35v-2h12zM29.8 29.58l3.2 2.28V44c0 1.65 1.35 3 3 3s3-1.35 3-3V31.86l3.2-2.28c.44-.32.8-1.03.8-1.58v-5c0-.55-.32-1.32-.7-1.7L39 18v6l-3 2-3-2v-6l-3.3 3.3c-.38.38-.7 1.15-.7 1.7v5c0 .55.36 1.26.8 1.58zM30 23c0-.28.2-.8.4-1l1.6-1.6v4.15l.45.3 3 2 .55.36.56-.37 3-2 .44-.3V20.2l1.6 1.7c.2.2.4.82.4 1.1v5c0 .23-.2.63-.4.77l-3.18 2.27-.42.3V44c0 1.1-.9 2-2 2s-2-.9-2-2V31.34l-.42-.3-3.18-2.27c-.2-.14-.4-.54-.4-.77z" fill="#37474f"/><path stroke-miterlimit="10" d="M36 44V33" fill="#b2ff59" stroke="#37474f" stroke-linecap="round"/><path d="M27 36h-4V19h-8v17h-4l8 11zm-12 1h1V20h6v17h3.04L19 45.3 12.96 37z" fill="#37474f"/></svg>
