<svg xmlns="http://www.w3.org/2000/svg" width="54" height="54" viewBox="0 0 54 54"><path d="M53 43H33v1H21v-1H1c-.55 0-1 .45-1 1s.44 1.1.98 1.22l6.07 1.35c1.07.24 2.84.43 3.95.43h32c1.1 0 2.87-.2 3.95-.43l6.07-1.35c.54-.12.98-.67.98-1.22 0-.55-.45-1-1-1zm-.2 1.24l-6.06 1.35c-1 .2-2.72.4-3.74.4H11c-1.02 0-2.73-.2-3.74-.4L1.2 44.23c-.1-.02-.2-.16-.2-.24h19v1h14v-1h19c0 .08-.1.22-.2.24zM48 9H6c-.55 0-1 .45-1 1v30h44V10c0-.55-.45-1-1-1zm0 30H6V10h42z" fill="#37474f"/><path d="M51 10c0-1.65-1.35-3-3-3H6c-1.65 0-3 1.35-3 3v32h48zm-1 31H4V10c0-1.1.9-2 2-2h42c1.1 0 2 .9 2 2z" fill="#37474f"/><path d="M9 36h2v1H9zm0-3h2v1H9zm0-3h2v1H9zm0-3h2v1H9zm0-3h2v1H9zm0-3h2v1H9zm0-3h2v1H9zm0-3h2v1H9zm0-3h2v1H9zm4 18h8v1h-8zm9 0h2v1h-2zm1 6h10v1H23zm-3 0h2v1h-2zm-7 0h6v1h-6zm4-3h8v1h-8zm17-3h8v1h-8zm-9 0h8v1h-8zm6-6h8v1h-8zm-3 0h2v1h-2zm-15-3h2v1h-2zm6 3h4v1h-4zm-6-6h4v1h-4zm5 0h4v1h-4zm5 0h13v1H23zm4-3h4v1h-4zm-5 0h4v1h-4zm10 0h2v1h-2zm0 12h5v1h-5zm-5 0h4v1h-4zm-14 0h11v1H13zm0-12h8v1h-8zm0-3h2v1h-2z" fill="#37474f"/></svg>
