<svg xmlns="http://www.w3.org/2000/svg" width="110" height="110" version="1" viewBox="0 0 110 110"><circle cx="55" cy="55" r="55" fill="#E04F5F"/><path fill="#FCF6C2" d="M59 34L27 46v25l24 12 32-12V46"/><path fill="#F3B607" d="M83 71L51 83V58l32-12"/><path fill="#FACB1B" d="M27 71l24 12V58L27 46"/><path fill="#F3B607" d="M59 48v4c0 1.1-2.7 2-6 2s-6-.9-6-2v-4c0 1.1 2.7 2 6 2s6-.9 6-2z"/><path fill="#FCF6C2" d="M53 46c-3.3 0-6 .9-6 2s2.7 2 6 2 6-.9 6-2-2.7-2-6-2z"/><path fill="#F3B607" d="M47 42v4c0 1.1-2.7 2-6 2s-6-.9-6-2v-4c0 1.1 2.7 2 6 2s6-.9 6-2z"/><path fill="#FCF6C2" d="M41 40c-3.3 0-6 .9-6 2s2.7 2 6 2 6-.9 6-2-2.7-2-6-2z"/><path fill="#F3B607" d="M63 36v4c0 1.1-2.7 2-6 2s-6-.9-6-2v-4c0 1.1 2.7 2 6 2s6-.9 6-2z"/><path fill="#FCF6C2" d="M57 34c-3.3 0-6 .9-6 2s2.7 2 6 2 6-.9 6-2-2.7-2-6-2z"/><path fill="#F3B607" d="M75 42v4c0 1.1-2.7 2-6 2s-6-.9-6-2v-4c0 1.1 2.7 2 6 2s6-.9 6-2z"/><path fill="#FCF6C2" d="M69 40c-3.3 0-6 .9-6 2s2.7 2 6 2 6-.9 6-2-2.7-2-6-2z"/></svg>