<svg xmlns="http://www.w3.org/2000/svg" viewBox="0 0 800 800"><path fill="#F06292" d="M771.9 400c0 205.3-166.6 371.9-371.9 371.9S28.1 605.3 28.1 400 194.7 28.1 400 28.1 771.9 194.7 771.9 400z"/><path fill="none" stroke="#FFF" stroke-width="20" stroke-miterlimit="10" d="M400 143v192M400 335l63.6-66M400 335l-66.5-66.5M398.6 657.1v-192M398.6 465.1l-63.6 66M398.6 465.1l66.4 66.4" stroke-linecap="round" stroke-linejoin="round"/><g><path fill="none" stroke="#FFF" stroke-width="20" stroke-miterlimit="10" d="M675.1 401.4H483.2M483.2 401.4l66 63.6M483.2 401.4l66.4-66.4" stroke-linecap="round" stroke-linejoin="round"/></g><g><path fill="none" stroke="#FFF" stroke-width="20" stroke-miterlimit="10" d="M124.7 397.1h192M316.7 397.1l-66-63.6M316.7 397.1l-66.5 66.5" stroke-linecap="round" stroke-linejoin="round"/></g></svg>