<?xml version="1.0" ?><!DOCTYPE svg  PUBLIC '-//W3C//DTD SVG 1.1//EN'  'http://www.w3.org/Graphics/SVG/1.1/DTD/svg11.dtd'><svg enable-background="new 0 0 800 800" version="1.1" viewBox="0 0 800 800" xml:space="preserve" xmlns="http://www.w3.org/2000/svg" xmlns:xlink="http://www.w3.org/1999/xlink"><g id="Layer_1"><path d="M771.9,400c0,205.3-166.6,371.9-371.9,371.9S28.1,605.3,28.1,400S194.7,28.1,400,28.1   S771.9,194.7,771.9,400z" fill="#F06292"/></g><g id="Layer_2"><path d="   M468.2,497.4c0,0,81,0,88.6,0c42.5,0,77-34.5,77-77s-34.5-77-77-77c-0.2,0-0.4,0-0.6,0c0.6-4.8,1-9.7,1-14.7   c0-65.4-53-118.4-118.4-118.4c-50.9,0-94.2,32.2-110.9,77.4c-10.6-10.6-25.2-17.2-41.4-17.2c-32.3,0-58.5,26.2-58.5,58.5   c0,0.8,0.1,1.6,0.1,2.4c-35.7,9.9-62,42.5-62,81.3c0,46.7,37.8,84.5,84.5,84.5c8.1,0,81.2,0,81.2,0" fill="none" stroke="#FFFFFF" stroke-linecap="round" stroke-linejoin="round" stroke-miterlimit="10" stroke-width="16"/><g><polyline fill="none" points="448.7,557.7     400,606.4 351.3,557.7   " stroke="#FFFFFF" stroke-linecap="round" stroke-miterlimit="10" stroke-width="16"/><line fill="none" stroke="#FFFFFF" stroke-linecap="round" stroke-miterlimit="10" stroke-width="16" x1="400" x2="400" y1="411.5" y2="603.1"/></g></g></svg>