<?xml version="1.0" ?><!DOCTYPE svg  PUBLIC '-//W3C//DTD SVG 1.0//EN'  'http://www.w3.org/TR/2001/REC-SVG-20010904/DTD/svg10.dtd'><svg height="110px" style="enable-background:new 0 0 110 110;" version="1.0" viewBox="0 0 110 110" width="110px" xml:space="preserve" xmlns="http://www.w3.org/2000/svg" xmlns:xlink="http://www.w3.org/1999/xlink"><g id="Artboard"/><g id="Multicolor"><circle cx="55" cy="55" r="55" style="fill:#E04F5F;"/><g><polygon points="59,34 27,46 27,71 51,83 83,71 83,46   " style="fill:#FCF6C2;"/><polygon points="83,71 51,83 51,58 83,46   " style="fill:#F3B607;"/><polygon points="27,71 51,83 51,58 27,46   " style="fill:#FACB1B;"/><path d="M59,48v4c0,1.1-2.69,2-6,2s-6-0.9-6-2v-4c0,1.1,2.69,2,6,2S59,49.1,59,48z" style="fill:#F3B607;"/><path d="M53,46c-3.31,0-6,0.9-6,2s2.69,2,6,2s6-0.9,6-2S56.31,46,53,46z" style="fill:#FCF6C2;"/><path d="M47,42v4c0,1.1-2.69,2-6,2s-6-0.9-6-2v-4c0,1.1,2.69,2,6,2S47,43.1,47,42z" style="fill:#F3B607;"/><path d="M41,40c-3.31,0-6,0.9-6,2s2.69,2,6,2s6-0.9,6-2S44.31,40,41,40z" style="fill:#FCF6C2;"/><path d="M63,36v4c0,1.1-2.69,2-6,2s-6-0.9-6-2v-4c0,1.1,2.69,2,6,2S63,37.1,63,36z" style="fill:#F3B607;"/><path d="M57,34c-3.31,0-6,0.9-6,2s2.69,2,6,2s6-0.9,6-2S60.31,34,57,34z" style="fill:#FCF6C2;"/><path d="M75,42v4c0,1.1-2.69,2-6,2s-6-0.9-6-2v-4c0,1.1,2.69,2,6,2S75,43.1,75,42z" style="fill:#F3B607;"/><path d="M69,40c-3.31,0-6,0.9-6,2s2.69,2,6,2s6-0.9,6-2S72.31,40,69,40z" style="fill:#FCF6C2;"/></g></g></svg>