<svg xmlns="http://www.w3.org/2000/svg">
	<symbol id="github" viewBox="0 0 24 24">
		<path d="M12 0c-6.626 0-12 5.373-12 12 0 5.302 3.438 9.8 8.207 11.387.599.111.793-.261.793-.577v-2.234c-3.338.726-4.033-1.416-4.033-1.416-.546-1.387-1.333-1.756-1.333-1.756-1.089-.745.083-.729.083-.729 1.205.084 1.839 1.237 1.839 1.237 1.07 1.834 2.807 1.304 3.492.997.107-.775.418-1.305.762-1.604-2.665-.305-5.467-1.334-5.467-5.931 0-1.311.469-2.381 1.236-3.221-.124-.303-.535-1.524.117-3.176 0 0 1.008-.322 3.301 1.23.957-.266 1.983-.399 3.003-.404 1.02.005 2.047.138 3.006.404 2.291-1.552 3.297-1.23 3.297-1.23.653 1.653.242 2.874.118 3.176.77.84 1.235 1.911 1.235 3.221 0 4.609-2.807 5.624-5.479 5.921.43.372.823 1.102.823 2.222v3.293c0 .319.192.694.801.576 4.765-1.589 8.199-6.086 8.199-11.386 0-6.627-5.373-12-12-12z" fill="#fff"/>
	</symbol>

    <symbol id="twitter" viewBox="0 0 34 27.646">
        <path d="M10.68 27.646c12.83 0 19.85-10.64 19.85-19.85 0-.3 0-.599-.013-.898A14.213 14.213 0 0 0 34 3.278a14.14 14.14 0 0 1-4.014 1.103A7.02 7.02 0 0 0 33.061.517a13.877 13.877 0 0 1-4.435 1.687A6.963 6.963 0 0 0 23.537 0c-3.85 0-6.98 3.13-6.98 6.98 0 .544.069 1.074.178 1.591-5.796-.285-10.94-3.074-14.381-7.292a6.978 6.978 0 0 0-.939 3.51 6.995 6.995 0 0 0 3.102 5.81 7.057 7.057 0 0 1-3.156-.871v.095a6.991 6.991 0 0 0 5.591 6.844 6.802 6.802 0 0 1-1.836.245c-.45 0-.885-.041-1.306-.123a6.976 6.976 0 0 0 6.517 4.844 13.993 13.993 0 0 1-8.667 2.993c-.558 0-1.116-.027-1.66-.095a19.845 19.845 0 0 0 10.68 3.115" fill="#fff" />
    </symbol>

    <symbol id="i18n" viewBox="0 0 24 24">
        <path d="M0 0h24v24H0z" fill="none" />
        <path d="M12.87 15.07l-2.54-2.51.03-.03c1.74-1.94 2.98-4.17 3.71-6.53H17V4h-7V2H8v2H1v1.99h11.17C11.5 7.92 10.44 9.75 9 11.35 8.07 10.32 7.3 9.19 6.69 8h-2c.73 1.63 1.73 3.17 2.98 4.56l-5.09 5.02L4 19l5-5 3.11 3.11.76-2.04zM18.5 10h-2L12 22h2l1.12-3h4.75L21 22h2l-4.5-12zm-2.62 7l1.62-4.33L19.12 17h-3.24z" fill="#fff" />
    </symbol>
</svg>
