<svg xmlns="http://www.w3.org/2000/svg" xmlns:xlink="http://www.w3.org/1999/xlink" width="34" height="34" viewBox="0 0 8.996 8.996"><path d="M4.498 2.117a2.381 2.381 0 1 0 0 4.763 2.381 2.381 0 0 0 0-4.763zm-.24 1.023h.482l1.002 2.55h-.367a.159.159 0 0 1-.1-.03.2.2 0 0 1-.058-.077l-.19-.52H3.97l-.19.52a.169.169 0 0 1-.056.074.152.152 0 0 1-.1.033h-.37zm.239.437a3.4 3.4 0 0 1-.095.306l-.309.844h.812l-.31-.848a4.343 4.343 0 0 1-.097-.302z" fill="#e2e2e2"/><a id="a" transform="matrix(1.13333 0 0 -1.13333 -.6 1.548)" stroke="#fff" stroke-width=".467"><path d="M4.498 1.366V-.035" fill="none"/></a><use xlink:href="#a" transform="rotate(-45 4.498 4.498)" width="100%" height="100%"/><use xlink:href="#a" transform="rotate(-90 4.498 4.498)" width="100%" height="100%"/><use xlink:href="#a" transform="rotate(-135 4.498 4.498)" width="100%" height="100%"/><use xlink:href="#a" transform="rotate(-180 4.498 4.498)" width="100%" height="100%"/><use xlink:href="#a" transform="rotate(45 4.498 4.498)" width="100%" height="100%"/><use xlink:href="#a" transform="rotate(90 4.498 4.498)" width="100%" height="100%"/><use xlink:href="#a" transform="rotate(135 4.498 4.498)" width="100%" height="100%"/></svg>
