<svg xmlns="http://www.w3.org/2000/svg" xmlns:xlink="http://www.w3.org/1999/xlink" width="34" height="34" viewBox="0 0 8.996 8.996"><path d="M4.498 2.117a2.381 2.381 0 1 0 0 4.763 2.381 2.381 0 0 0 0-4.763z" fill="#e2e2e2"/><a id="a" transform="matrix(1.13333 0 0 -1.13333 -.6 1.548)" stroke="#fff" stroke-width=".467"><path d="M4.498 1.366V-.035" fill="none"/></a><use xlink:href="#a" transform="rotate(-45 4.498 4.498)" width="100%" height="100%"/><use xlink:href="#a" transform="rotate(-90 4.498 4.498)" width="100%" height="100%"/><use xlink:href="#a" transform="rotate(-135 4.498 4.498)" width="100%" height="100%"/><use xlink:href="#a" transform="rotate(-180 4.498 4.498)" width="100%" height="100%"/><use xlink:href="#a" transform="rotate(45 4.498 4.498)" width="100%" height="100%"/><use xlink:href="#a" transform="rotate(90 4.498 4.498)" width="100%" height="100%"/><use xlink:href="#a" transform="rotate(135 4.498 4.498)" width="100%" height="100%"/></svg>
