<svg xmlns="http://www.w3.org/2000/svg" viewBox="0 0 512 512"><path fill="#F06292" d="M494 256c0 131.4-106.6 238-238 238S18 387.4 18 256 124.6 18 256 18s238 106.6 238 238z"/><path fill="none" stroke="#FFF" stroke-width="16" stroke-miterlimit="10" d="M291.9 129.5l-61.9 142c-29.5-52 7.6-128.1 61.9-142z" stroke-linecap="round" stroke-linejoin="round"/><ellipse cx="235.5" cy="368.2" fill="none" stroke="#FFF" stroke-width="16" stroke-miterlimit="10" ry="28.7" rx="34.1" stroke-linecap="round" stroke-linejoin="round" transform="rotate(113.553 235.496 368.17)"/><path fill="none" stroke="#FFF" stroke-width="16" stroke-miterlimit="10" d="M229.9 271.5l19.3 65.4" stroke-linecap="round" stroke-linejoin="round"/><g><path fill="none" stroke="#FFF" stroke-width="16" stroke-miterlimit="10" d="M359.2 171.7L249.7 281.2c59.2 8.4 116.5-54 109.5-109.5z" stroke-linecap="round" stroke-linejoin="round"/><ellipse cx="157.8" cy="311.4" fill="none" stroke="#FFF" stroke-width="16" stroke-miterlimit="10" ry="28.7" rx="34.1" stroke-linecap="round" stroke-linejoin="round" transform="rotate(-45 157.754 311.405)"/><path fill="none" stroke="#FFF" stroke-width="16" stroke-miterlimit="10" d="M249.7 281.2l-67.8 6.1" stroke-linecap="round" stroke-linejoin="round"/></g></svg>