<svg xmlns="http://www.w3.org/2000/svg" width="110" height="110" version="1" viewBox="0 0 110 110"><circle cx="55" cy="55" r="55" fill="#E04F5F"/><path fill="#E2E4E5" d="M80.32 34.67c-2-2-5-1.9-6.9-.03l6.87 6.86c1.95-1.97 1.85-5 .02-6.83z"/><path fill="#FFF" d="M73.43 34.64l3.5 3.5 3.42-3.43c-1.88-1.96-4.98-2.02-6.92-.06z"/><path fill="#CFD3D4" d="M76.85 41.5l1.72-1.72-3.43-3.42L73.5 38c1.22 1.06 2.34 2.24 3.35 3.5zM55 31c1.36 0 2.7.1 4 .3V28h-8v3.3c1.3-.2 2.64-.3 4-.3z"/><circle cx="55" cy="59" r="28" fill="#FFF"/><circle cx="55" cy="59.2" r="23" fill="#9CE5F4"/><path fill="#C9F2F8" d="M32 59.2c0 12.7 10.3 23 23 23v-46c-12.7 0-23 10.3-23 23z"/><path fill="#DF2C2C" d="M55 53c-3.5-8-13-5.48-13 3.55C42.18 64.77 55 71 55 71s12.82-6.23 13-14.45C68 47.52 58.5 46 55 53z"/><path fill="#E2E4E5" d="M63 29H47v-2.1c0-1.53 1.24-2.9 2.77-2.9h10.46c1.53 0 2.77 1.37 2.77 2.9V29z"/><path fill="#FFF" d="M55 24h-5.23C48.24 24 47 25.37 47 26.9V29h8v-5z"/></svg>