<svg xmlns="http://www.w3.org/2000/svg" width="64" height="64" viewBox="0 0 64 64"><circle cx="32" cy="32" r="32" fill="#76C2AF"/><path fill="#231F20" d="M47.95 42.4l-2.98-9.55c-.16-.53-.73-.82-1.25-.66l-8.87 2.76 7.1-4.44c.45-.3.6-.9.3-1.37l-6.9-11.03c-.3-.47-.92-.6-1.4-.32l-8.73 5.48L23.88 19c-.66-2.1-3.03-4.8-6.9-3.6-.78.25-1.22 1.1-.97 1.88.26.8 1.1 1.23 1.9.98 2.16-.68 2.94 1.1 3.12 1.64L29 45.4c-2 1.3-3 3.84-2.25 6.24.72 2.3 2.83 3.86 5.25 3.86.55 0 1.1-.08 1.64-.25 1.4-.44 2.55-1.4 3.23-2.7.44-.84.63-1.76.6-2.7l8.34-2.6c.8-.24 1.24-1.08 1-1.87-.26-.8-1.1-1.24-1.9-1L36.6 47l10.7-3.33c.25-.08.46-.26.6-.5s.13-.5.05-.76zm-17.6-6.03c-.25.08-.46.25-.58.5s-.15.5-.07.75l2.15 6.9-4.54-14.55 3.85 6.13.02.02-.8.25z" opacity=".2"/><path fill="#F5CF87" stroke="#F5CF87" stroke-width="2" stroke-miterlimit="10" d="M32 32.57l9.4-5.9-6.9-11.02-9.4 5.9z" stroke-linecap="round" stroke-linejoin="round"/><path fill="none" stroke="#FFF" stroke-width="3" stroke-miterlimit="10" d="M45.36 42.82L32 47l-9.55-30.54s-1.2-3.82-5-2.63" stroke-linecap="round" stroke-linejoin="round"/><path fill="#E0995E" stroke="#E0995E" stroke-width="2" stroke-miterlimit="10" d="M33.64 43.87L47 39.7l-2.98-9.55-13.37 4.17z" stroke-linecap="round" stroke-linejoin="round"/><ellipse cx="32" cy="47" fill="#F5CF87" stroke="#4F5D73" stroke-width="3" stroke-miterlimit="10" ry="4" rx="4" stroke-linecap="round" stroke-linejoin="round" transform="rotate(-17.355 32.003 47.005)"/></svg>