<svg xmlns="http://www.w3.org/2000/svg" viewBox="0 0 800 800"><path fill="#F06292" d="M771.9 400c0 205.3-166.6 371.9-371.9 371.9S28.1 605.3 28.1 400 194.7 28.1 400 28.1 771.9 194.7 771.9 400z"/><path fill="none" stroke="#FFF" stroke-width="16" stroke-miterlimit="10" d="M468.2 497.4h88.6c42.5 0 77-34.5 77-77s-34.5-77-77-77h-.6c.6-4.8 1-9.7 1-14.7 0-65.4-53-118.4-118.4-118.4-50.9 0-94.2 32.2-110.9 77.4-10.6-10.6-25.2-17.2-41.4-17.2-32.3 0-58.5 26.2-58.5 58.5 0 .8.1 1.6.1 2.4-35.7 9.9-62 42.5-62 81.3 0 46.7 37.8 84.5 84.5 84.5h81.2" stroke-linecap="round" stroke-linejoin="round"/><path fill="none" stroke="#FFF" stroke-width="16" stroke-miterlimit="10" d="M448.7 557.7L400 606.4l-48.7-48.7M400 411.5v191.6" stroke-linecap="round"/></svg>