<svg xmlns="http://www.w3.org/2000/svg" viewBox="0 0 90 30"><path fill="#0abf53" d="M27.79 18.52h-1.73a.91.91 0 01-.91-.9v-11H21.7a3.2 3.2 0 00-3.19 3.19v9.51a3.2 3.2 0 003.19 3.19h12.7V0h-6.62v18.52zm-15.1-11.9H.24v3.96h8.12c.5 0 .91.41.91.91v7.03H7.53a.91.91 0 01-.9-.9v-5.06H3.18A3.2 3.2 0 000 15.75v3.55a3.2 3.2 0 003.19 3.18h12.7V9.78a3.2 3.2 0 00-3.2-3.16zm31.91 11.9h1.73V6.62h6.62v19.32a3.2 3.2 0 01-3.18 3.19H37.3v-4.64h9.03V22.5h-6.07a3.2 3.2 0 01-3.19-3.19V6.62h6.62v11c0 .5.41.9.91.9zm23.7-11.9H55.6v12.7a3.2 3.2 0 003.18 3.19h12.47v-3.96h-8.12a.91.91 0 01-.91-.91v-7.06h1.72c.5 0 .91.41.91.91v5.05h3.44a3.2 3.2 0 003.19-3.18V9.8a3.2 3.2 0 00-3.19-3.19zm5.82 0h12.7A3.18 3.18 0 0190 9.8v12.7h-6.62v-11c0-.5-.41-.9-.91-.9h-1.73V22.5h-6.62V6.62z"/></svg>
