<svg xmlns="http://www.w3.org/2000/svg" width="160" height="33" fill="none"><path fill="#FFBC2B" d="m15.402 9.187-.405-3.897c-.089-1.72 2.429-1.721 2.341 0l-.405 3.897c-.109.913-1.426.906-1.53 0Zm-4.688 1.678-2.3-3.172c-.938-1.443 1.246-2.705 2.028-1.17L12.04 10.1c.363.845-.782 1.498-1.325.765Zm-3.222 3.797-3.577-1.596c-1.534-.781-.274-2.966 1.17-2.028l3.172 2.3c.737.55.072 1.687-.765 1.325Zm-.701 4.966-3.896.406c-1.72.088-1.722-2.43 0-2.342l3.896.406c.914.108.906 1.425 0 1.53Zm18.797-1.574 3.896-.406c1.72-.089 1.721 2.43 0 2.342l-3.896-.406c-.914-.109-.906-1.426 0-1.53ZM24.1 13.3l3.17-2.3c1.443-.938 2.706 1.245 1.171 2.028l-3.577 1.596c-.846.363-1.498-.781-.765-1.325Zm-3.798-3.222L21.9 6.5c.78-1.533 2.966-.273 2.028 1.172l-2.3 3.171c-.55.737-1.688.072-1.325-.765Zm4.588 12.056c-1.405.93-2.936 1.221-4.488 1.004 1.451-1.715 2.083-3.555 2.333-4.517a5.281 5.281 0 0 0-.036-2.875c-.531-1.735-1.835-2.771-3.489-2.771-1.363 0-2.4.683-3.01 1.98-.612-1.297-1.648-1.98-3.011-1.98-1.654 0-2.958 1.036-3.489 2.77a5.284 5.284 0 0 0-.036 2.876c.195.752.58 1.887 1.311 3.093a8.949 8.949 0 0 0-4.308 2.342.635.635 0 0 0-.035.873.635.635 0 0 0 .869.105c1.29-.932 2.744-1.515 4.208-1.634 1.73-.14 3.381.048 5.389.97.966.445 2.186.948 3.729.948 2.003 0 3.832-.832 4.929-2.288a.621.621 0 0 0-.057-.811.621.621 0 0 0-.808-.085Zm-3.942-4.638c0 .651-.439 2.915-2.698 4.974-.665-.255-2.645-1.131-5.082-1.013-1.25-1.459-1.718-3.189-1.723-3.96-.012-1.692 1.024-2.25 1.9-2.25.912 0 1.593.577 1.821 1.543a1.061 1.061 0 0 0 2.067 0c.229-.966.91-1.542 1.82-1.542 1.158 0 1.895.909 1.895 2.248Z"/><path fill="#0374DA" fill-rule="evenodd" d="M107.974 8.298c-.975 0-1.717.627-1.717 1.625 0 .999.742 1.601 1.717 1.601.974 0 1.694-.603 1.694-1.6 0-.998-.742-1.626-1.694-1.626ZM81.486 13.01c-1.37 0-2.67.58-3.412 1.926V9.265a.387.387 0 0 0-.386-.387h-1.804a.386.386 0 0 0-.386.387v15.474c0 .213.173.386.386.386h1.804a.387.387 0 0 0 .386-.386v-6.624c0-1.764 1.138-2.831 2.739-2.831 1.393 0 2.39 1.02 2.39 2.715v6.74c0 .213.173.386.386.386h1.804a.387.387 0 0 0 .386-.386v-7.157c0-2.762-1.81-4.572-4.293-4.572Zm-35.726 0c-3.481 0-6.058 2.53-6.058 6.173 0 3.644 2.576 6.197 6.058 6.197 3.482 0 6.057-2.53 6.057-6.197 0-3.668-2.576-6.173-6.057-6.173Zm0 10.072c-1.973 0-3.412-1.438-3.412-3.898s1.439-3.853 3.412-3.853c1.973 0 3.434 1.416 3.434 3.853 0 2.437-1.462 3.898-3.434 3.898Zm11.576-1.532-3.017-8.035a.386.386 0 0 0-.361-.25h-1.972a.386.386 0 0 0-.359.53l4.427 11.086a.386.386 0 0 0 .358.243h1.89c.159 0 .3-.096.359-.244l4.383-11.087a.386.386 0 0 0-.359-.528h-1.902c-.161 0-.306.1-.362.25l-3.085 8.035Zm5.568-2.367c0-3.713 2.39-6.173 5.733-6.173 3.226 0 5.523 2.46 5.523 6.104l-.001.274a.384.384 0 0 1-.386.376h-8.269c.185 2.298 1.439 3.389 3.156 3.389 1.386 0 2.468-.566 3.154-2.053a.394.394 0 0 1 .49-.205l1.466.562c.204.077.305.31.218.51-1.048 2.402-3.049 3.413-5.281 3.413-3.39 0-5.803-2.484-5.803-6.197Zm5.71-4.038c-1.625 0-2.693.951-3.04 2.785h5.942c-.326-1.903-1.416-2.785-2.902-2.785Zm18.498 4.038c0-3.644 2.577-6.173 6.058-6.173 3.482 0 6.058 2.505 6.058 6.173s-2.576 6.197-6.058 6.197c-3.482 0-6.058-2.553-6.058-6.197Zm2.646 0c0 2.46 1.439 3.9 3.412 3.9 1.972 0 3.434-1.462 3.434-3.9 0-2.436-1.461-3.852-3.434-3.852s-3.412 1.393-3.412 3.853Zm19.083-5.918h-1.805a.386.386 0 0 0-.386.385v11.09c0 .213.173.386.387.386h1.804a.386.386 0 0 0 .386-.386V13.65a.386.386 0 0 0-.386-.386Zm13.09-4.387h-1.781a.386.386 0 0 0-.386.387v5.95c-.766-1.276-2.02-2.205-3.876-2.205-3.087 0-5.385 2.6-5.385 6.173 0 3.574 2.298 6.197 5.385 6.197 1.857 0 3.11-.928 3.876-2.205v1.564c0 .213.173.386.386.386h1.781a.386.386 0 0 0 .386-.386V9.265a.386.386 0 0 0-.386-.387Zm-5.462 14.204c-1.973 0-3.365-1.438-3.365-3.898s1.393-3.853 3.365-3.853c1.972 0 3.342 1.416 3.342 3.853 0 2.437-1.392 3.898-3.342 3.898Zm29.354-9.817h1.978c.283 0 .469.294.35.55l-6.997 14.963a.385.385 0 0 1-.349.222h-1.956a.387.387 0 0 1-.35-.55l2.574-5.508-4.397-9.124a.386.386 0 0 1 .348-.554h2.059c.152 0 .29.09.352.229l2.962 6.618 3.076-6.623a.388.388 0 0 1 .35-.223Zm8.883 4.99-1.184-.279c-1.416-.348-2.391-.673-2.391-1.554 0-.743.836-1.254 2.112-1.254 1.277 0 2.39.512 2.772 1.842.058.2.262.32.464.27l1.429-.354a.388.388 0 0 0 .284-.463c-.477-2.221-2.462-3.43-4.949-3.43-2.785 0-4.595 1.392-4.595 3.434 0 1.787 1.114 2.948 3.783 3.598l1.16.301c1.601.372 2.321.743 2.321 1.532 0 .79-.928 1.37-2.414 1.37-1.485 0-2.63-.654-3.101-2.069a.386.386 0 0 0-.484-.246l-1.355.438a.388.388 0 0 0-.25.483c.753 2.451 2.846 3.505 5.214 3.505 2.948 0 4.873-1.485 4.873-3.574 0-1.787-1.206-2.924-3.69-3.55h.001ZM37.199 21.21c0 1.398.781 1.588 1.822 1.55a.387.387 0 0 1 .401.386v1.521a.387.387 0 0 1-.343.384c-2.692.3-4.306-.973-4.306-3.841V9.285c0-.213.173-.386.386-.386h1.654c.213 0 .386.173.386.386V21.21Zm67.612 1.55c-1.041.038-1.822-.152-1.822-1.55V9.285a.386.386 0 0 0-.386-.386h-1.654a.386.386 0 0 0-.385.386V21.21c0 2.868 1.614 4.141 4.306 3.841a.387.387 0 0 0 .343-.383v-1.522a.386.386 0 0 0-.402-.385Zm30.655-.634c.18.539.582.747 1.108.81h.001a.385.385 0 0 1 .334.384v1.625a.387.387 0 0 1-.385.387c-1.824-.002-3.049-.84-3.469-2.52l-.007-.023c-.111.22-.2.386-.2.386-.766 1.277-2.019 2.205-3.876 2.205-3.087 0-5.385-2.623-5.385-6.197 0-3.573 2.299-6.173 5.385-6.173 1.856 0 3.11.929 3.876 2.205V13.65c0-.213.173-.386.386-.386h1.781c.214 0 .386.173.386.386v8.01c0 .158.016.315.065.465Zm-9.279-2.943c0 2.46 1.392 3.9 3.365 3.9 1.95 0 3.343-1.463 3.343-3.9s-1.371-3.853-3.343-3.853-3.365 1.392-3.365 3.853Z" clip-rule="evenodd"/></svg>