<svg xmlns="http://www.w3.org/2000/svg" viewBox="0 0 48 48"><path fill="#58E47B" d="M11.62 2h24.76C41.7 2 46 6.3 46 11.62v24.76C46 41.7 41.7 46 36.38 46H11.62A9.62 9.62 0 012 36.38V11.62C2 6.3 6.3 2 11.62 2z"/><path fill="#FFF" d="M32.42 15.58a2 2 0 01-.01 2.83 2 2 0 01-2.83 0 2 2 0 01.01-2.82 2 2 0 012.83-.01M20 41a12 12 0 110-24 12 12 0 010 24z"/><path fill="#1A1A1A" stroke="#1A1A1A" stroke-width=".2" d="M16.72 18a.72.72 0 01-.72-.72v-4.26c0-.12-.02-1.35.84-2.23a2.8 2.8 0 012.12-.79h4.32a.72.72 0 010 1.44h-4.34c-.48-.02-.82.11-1.07.36-.44.44-.43 1.2-.43 1.2v4.28c0 .4-.32.72-.72.72m19.56 0a.72.72 0 01-.72-.72v-4.26c0-.03 0-.78-.43-1.22-.25-.25-.61-.37-1.07-.36h-4.34a.72.72 0 010-1.44h4.32c.9-.02 1.6.25 2.12.8.86.87.84 2.1.84 2.24v4.24c0 .4-.32.72-.72.72M18.9 31c-.85 0-1.55-.27-2.06-.8a3.27 3.27 0 01-.84-2.24v-4.24a.72.72 0 111.44 0v4.26c0 .03 0 .78.43 1.22.25.25.6.38 1.07.36h4.34a.72.72 0 010 1.44h0-4.38m15.41-.06h-4.1 0a.68.68 0 010-1.36h4.06c.46.02.78-.1 1-.33.42-.41.4-1.12.4-1.12V24.1a.68.68 0 111.36 0v4c0 .1.02 1.27-.78 2.09a2.6 2.6 0 01-1.94.74"/></svg>
