<svg xmlns="http://www.w3.org/2000/svg" fill="none" viewBox="0 0 26 30"><path fill="url(#a)" fill-rule="evenodd" d="M11.914 20.26a1.388 1.388 0 0 1 0-.573 1.33 1.33 0 0 1 .528-.783c.13-.093.266-.178.407-.256a3.555 3.555 0 0 1 1.116-.323c.483-.02.895.015 1.237.102.332.079.664.218.996.418.33.2.582.506.753.916.142.312.274.58.4.806.126.224.284.405.475.541.372.274.87.41 1.493.41.684 0 1.211-.15 1.584-.454.292-.234.437-.522.437-.864 0-.37-.191-.668-.573-.893-.14-.079-.394-.164-.762-.257a23.388 23.388 0 0 0-1.425-.3 46.806 46.806 0 0 1-2.24-.468 11.128 11.128 0 0 1-1.425-.425c-.693-.284-1.271-.753-1.734-1.407a3.794 3.794 0 0 1-.709-2.256c0-.917.257-1.713.77-2.387.502-.665 1.201-1.163 2.096-1.495.885-.322 2.076-.483 3.574-.483.794 0 1.483.03 2.066.088.584.059 1.06.156 1.433.293.744.263 1.372.66 1.885 1.187.483.517.9 1.24 1.252 2.167.06.157.073.299.038.425a.754.754 0 0 1-.19.33c-.09.093-.203.173-.338.242a3.045 3.045 0 0 1-.43.176c-.292.097-.714.175-1.267.234-.17.019-.339.019-.506 0-.165-.02-.461-.168-.632-.197a4.197 4.197 0 0 1-.867-.256 1.832 1.832 0 0 1-.747-.565c-.14-.478-.351-.81-.633-.995-.412-.284-.895-.425-1.448-.425-.583 0-1 .107-1.252.322-.26.224-.264.612-.264.914 0 .343.165.601.497.777.171.097.438.183.8.257.361.073.82.144 1.372.212 1.7.224 2.956.508 3.77.85.815.34 1.443.853 1.886 1.537.442.694.663 1.426.663 2.198 0 .8-.23 1.587-.693 2.358a3.98 3.98 0 0 1-.898 1.04 5.816 5.816 0 0 1-1.29.791c-.934.45-2.287.673-4.057.673-2.422 0-4.147-.365-5.172-1.098a4.954 4.954 0 0 1-1.29-1.326 4.73 4.73 0 0 1-.686-1.779zm8.1-17.463c.01.01.014.05.014.118-.04.332-.115.94-.226 1.824-.11.883-.206 2.048-.287 3.494a11.569 11.569 0 0 0-1.862-.052c-.578.034-1.084.09-1.516.169-.252.048-.493.098-.723.146a6.387 6.387 0 0 0-.665.176 5.285 5.285 0 0 0-1.485.769 6.305 6.305 0 0 0-1.191 1.135c-.338.42-.601.865-.792 1.333-.192.47-.287.928-.287 1.377 0 .098-.005.257-.014.476-.01.22.011.476.067.77.055.292.155.602.301.93.146.326.38.641.702.945l.468.453c.1.098.155.172.165.22.01.05-.023.08-.097.095a1.69 1.69 0 0 0-.295.096 3.279 3.279 0 0 0-.43.219c-.166.098-.334.25-.505.454a2.76 2.76 0 0 0-.505.909 4.586 4.586 0 0 0-.234 1.186c-.03.43-.007.874.068 1.333.076.459.216.905.422 1.34.206.435.482.838.83 1.209.347.37.776.683 1.29.937.633.323 1.223.57 1.771.74.549.171 1.023.3 1.425.389.403.087.709.146.92.176.212.029.302.058.272.087a.52.52 0 0 0-.045.08.456.456 0 0 1-.076.08c-.472.43-.968.86-1.485 1.29a18.39 18.39 0 0 1-1.546 1.158 9.69 9.69 0 0 1-1.493.827c-.483.21-.93.315-1.343.315-.497 0-.977-.105-1.455-.315a7.568 7.568 0 0 1-1.417-.827A15.38 15.38 0 0 1 7.36 27.7c-.463-.43-.93-.86-1.403-1.29-.443-.41-.85-.812-1.222-1.207-.371-.395-.618-.775-.739-1.136-.04-.107-.07-.295-.09-.564a20.29 20.29 0 0 1-.045-.959c-.232-.01-.453-.015-.664-.015-.211 0-.342.005-.392.015a1.14 1.14 0 0 0-.114.286c-.024.103-.047.2-.067.293-.02.092-.043.178-.068.256a.311.311 0 0 1-.098.161c-.04.03-.133.05-.279.058a5.686 5.686 0 0 1-.905-.022c-.135-.014-.214-.036-.233-.065a2.25 2.25 0 0 1-.129-.271l-.211-.49a6.96 6.96 0 0 1-.196-.507 1.288 1.288 0 0 1-.083-.315c0-.063.028-.168.083-.329.055-.16.12-.33.196-.505l.211-.49a2.3 2.3 0 0 1 .129-.272c.02-.03.098-.051.233-.066a6.16 6.16 0 0 1 .445-.03c.16-.004.314-.002.46.008.146.01.239.03.28.058.04.03.072.084.097.162.025.078.048.164.068.256.02.093.043.19.067.293.026.103.064.198.114.286.05.01.178.014.384.014h.656c0-.429.003-.883.008-1.362.005-.479.015-.96.03-1.443l.046-1.435c.014-.474.032-.92.052-1.34a27.66 27.66 0 0 0-.693-.022 3.12 3.12 0 0 0-.422.006 1.75 1.75 0 0 0-.099.286 13.067 13.067 0 0 1-.151.564.396.396 0 0 1-.082.161c-.04.03-.132.05-.272.06a4.833 4.833 0 0 1-.912-.03c-.136-.02-.214-.044-.235-.074a2.464 2.464 0 0 1-.127-.263 41.097 41.097 0 0 1-.212-.483 7.553 7.553 0 0 1-.196-.506 1.286 1.286 0 0 1-.082-.33c0-.058.027-.168.082-.329a7.73 7.73 0 0 1 .196-.505c.076-.176.146-.337.212-.484.065-.147.108-.234.127-.263.021-.03.099-.054.235-.074a3.93 3.93 0 0 1 .452-.036c.166-.005.319-.003.46.007.14.01.231.03.272.059.04.029.07.08.09.153a11.518 11.518 0 0 1 .143.564c.026.108.058.2.099.278.05.02.193.027.429.023.236-.005.475-.007.716-.007.02-.284.03-.53.03-.74v-.491c0-.704-.007-1.4-.022-2.088a54.795 54.795 0 0 0-.083-2.043h-.43c-.166 0-.326-.003-.482-.008a15.925 15.925 0 0 0-.415-.006h-.226a1.07 1.07 0 0 0-.114.285 10.27 10.27 0 0 0-.067.3 4.15 4.15 0 0 1-.06.256.282.282 0 0 1-.091.155c-.04.029-.133.049-.28.058-.145.01-.299.012-.46.007a6.193 6.193 0 0 1-.444-.029c-.136-.015-.214-.037-.234-.066a2.506 2.506 0 0 1-.128-.264 27.239 27.239 0 0 1-.212-.483 12.45 12.45 0 0 1-.203-.505C.03 8.664 0 8.555 0 8.496s.03-.168.09-.33c.06-.161.129-.33.203-.505.076-.176.146-.337.212-.483a2.67 2.67 0 0 1 .128-.264c.02-.029.098-.054.234-.073a4.628 4.628 0 0 1 .905-.03c.146.01.238.03.279.059.04.03.07.08.09.154.02.074.04.159.06.256.021.098.043.198.068.3.025.103.063.198.114.286.03.01.1.015.21.015h1.282a62.684 62.684 0 0 0-.256-3.26c-.09-.795-.155-1.364-.196-1.706 0-.078.005-.122.015-.132a.446.446 0 0 1 .045-.11.207.207 0 0 1 .106-.08c.232-.117.621-.318 1.17-.6.547-.284 1.19-.575 1.93-.872A19.109 19.109 0 0 1 9.1.337a10.425 10.425 0 0 1 5.25 0c.87.225 1.673.485 2.413.784.739.297 1.38.588 1.923.871.543.283.93.484 1.16.6.092.06.146.128.167.205z" clip-rule="evenodd"/><defs><linearGradient id="a" x1="0" x2="26.001" y1="12.429" y2="12.429" gradientUnits="userSpaceOnUse"><stop stop-color="#10B7F4"/><stop offset="1" stop-color="#128DF6"/></linearGradient></defs></svg>
