<svg xmlns="http://www.w3.org/2000/svg" viewBox="0 0 2304 496"><path fill="#57585b" d="M900 0l-45 27-1 31v331h47v-23c17 17 37 26 60 29 44 7 88-18 107-58 25-52 25-132-7-181-36-55-113-66-160-19L900 0m494 114h-44v41h44v164c0 24 1 54 24 68 28 19 62 5 91-3l-12-38c-14 4-34 12-47 0-13-13-9-38-9-54V155h68v-41h-68V1l-46 26-1 25v62m686-85l-1 31v329h47v-85l1-38 40-43 60 118 17 33 8 15h50l-101-200 70-75-55 1-90 93V2M361 321h-1l-33 28c27 41 87 53 132 44 38-8 66-35 66-75 0-10-1-20-5-30-15-44-71-55-109-72-16-8-39-21-33-42 9-34 60-27 83-15l23 15 32-25c-45-66-192-56-185 40 3 49 59 67 97 82 18 8 39 16 48 35 13 26-13 44-35 47-31 5-59-11-80-32m794 0h-1l-33 28v1c32 39 85 53 133 43 51-12 80-61 58-110-18-41-72-50-108-68-16-8-38-19-32-41 8-33 59-27 82-16l24 16 32-25c-27-39-84-48-127-37-26 6-50 24-57 51-2 9-2 19-1 28 5 48 59 65 97 80 18 8 39 16 48 35 13 26-13 44-36 47-31 5-58-11-79-32m414-185l13 40 23-14c32-15 90-26 111 12 8 16 7 37 7 55l-28-11c-18-5-38-8-56-6-26 3-54 13-72 33-28 33-26 95 5 125 21 20 51 28 79 26 29-2 49-15 72-31v24h44V227c0-31 0-65-20-90-19-22-44-26-71-29-15-2-31 0-46 3-22 5-41 14-61 25m462 189l-44-14c-10 42-64 53-95 27-11-10-17-23-22-37-3-10-4-20-5-30-3-40 1-104 48-117 20-6 42-3 57 11 5 4 16 21 16 21l43-14c-19-68-117-85-167-42-47 40-52 111-42 168 7 37 28 74 64 89 52 22 137 3 147-62M571 114v128c0 30-2 60 6 89 15 52 69 76 120 62 19-5 29-17 44-29v25h46V114h-46v128c0 26 3 53-7 77-16 39-77 45-103 13-15-20-14-48-14-72V114h-46m392 36c28-2 53 16 64 41 14 33 13 80 2 114-8 23-26 44-52 47-26 2-66-8-75-36l-1-114c0-6-1-13 2-18 12-21 37-32 60-34m687 102a117 117 0 0172 19v47l-12 14a89 89 0 01-46 22c-17 2-39 1-53-11-24-18-26-58-2-76 12-10 27-13 41-15z"/><path fill="#ff661a" d="M0 114v33h247v-33H0m0 64v32h247v-32H0m0 63v154c11-4 22-11 32-17l57-32c9-5 24-18 35-19 3 0 7 4 10 5l23 13c29 17 59 37 90 50V241H0"/></svg>
