<svg xmlns="http://www.w3.org/2000/svg" viewBox="0 0 102 32"><path fill="#37454D" fill-rule="evenodd" d="M13.96 11.1H8.99v5.52c0 .45.06.86.1 1.23.06.37.18.7.35.96.18.27.45.48.8.63.36.14.84.22 1.43.22.3 0 .7-.03 1.18-.09.48-.05.84-.18 1.1-.38v4.21c-.66.2-1.26.34-1.93.41-.66.07-1.32.1-1.96.1-.94 0-1.8-.09-2.59-.27a6.18 6.18 0 01-2.07-.86A4.17 4.17 0 014 21.24a4.87 4.87 0 01-.51-2.3V11.1H0V7.05h3.49V2.2h5.5v4.86h4.97v4.05m1.34-4.04h5.1v2.7h.05a5.75 5.75 0 011.91-2.3c.74-.5 1.67-.76 2.79-.76.29 0 .59 0 .88.03.29.02.54.06.8.13v4.63a9.31 9.31 0 00-1.06-.26 6.88 6.88 0 00-1.09-.08c-.96 0-1.73.13-2.28.4-.56.27-1 .65-1.3 1.14-.3.48-.49 1.06-.58 1.73a17.05 17.05 0 00-.12 2.23v6.88h-5.1V7.05m12.75 0H33v16.48h-4.96V7.05zm-.2-4.33c0-.74.25-1.38.78-1.9a2.57 2.57 0 011.89-.79c.73 0 1.37.26 1.89.79.52.52.78 1.16.78 1.9a2.6 2.6 0 01-.78 1.9 2.56 2.56 0 01-1.9.8 2.56 2.56 0 01-1.88-.8 2.6 2.6 0 01-.79-1.9zm5.82 4.33h5.44l4.12 11.21h.07l3.83-11.2h5.06l-6.44 16.47h-5.33L33.66 7.05m27.06 9.32c-.38 0-.85 0-1.42.02a7.23 7.23 0 00-1.65.28c-.52.15-.97.38-1.34.7-.37.31-.55.75-.55 1.31 0 .61.25 1.06.77 1.35.51.3 1.05.44 1.6.44.5 0 .98-.07 1.43-.2a4.23 4.23 0 001.23-.58c.36-.25.65-.56.87-.94.2-.39.33-.84.33-1.35v-1.03h-1.27zM62 21.5h-.1a5.1 5.1 0 01-2.22 1.86 7.6 7.6 0 01-2.94.56c-.76 0-1.5-.1-2.2-.32a5.52 5.52 0 01-1.86-.97 4.64 4.64 0 01-1.28-1.59 4.85 4.85 0 01-.47-2.2c0-.94.18-1.74.52-2.39a4.66 4.66 0 011.41-1.62 6.99 6.99 0 012.03-1 14.8 14.8 0 012.37-.52c.82-.11 1.63-.18 2.45-.2.82-.02 1.57-.04 2.26-.04 0-.9-.31-1.61-.95-2.14-.64-.53-1.4-.8-2.27-.8a4.91 4.91 0 00-2.26.53 6.2 6.2 0 00-1.83 1.43l-2.69-2.76a9.21 9.21 0 013.3-1.98c1.24-.44 2.54-.66 3.88-.66 1.48 0 2.7.19 3.64.56.95.37 1.72.92 2.29 1.64.57.72.94 1.6 1.17 2.65.22 1.04.3 2.25.3 3.63v8.36H62V21.5zM80.16 7.04v2.2h-.08c-.09-.11-.21-.3-.57-.61a6.7 6.7 0 00-1.3-.87 7.13 7.13 0 00-1.6-.64 8.52 8.52 0 00-2.08-.29c-1.17 0-2.24.32-3.16.81-.92.48-1.59.98-2.2 1.8a7.4 7.4 0 00-1.25 2.68 13.36 13.36 0 00-.35 3.35c0 1.25.18 2.42.48 3.49.3 1.07.8 2.03 1.43 2.76.69.8 1.4 1.2 2.38 1.62a7.9 7.9 0 003.25.56c.77-.01 1.51-.18 2.38-.51a4.82 4.82 0 002.07-1.58h.06v1.6c0 1.17-.26 2.13-.98 2.89-.73.75-1.8 1.16-3.35 1.16-1.03 0-1.68.02-2.73-.26a9.2 9.2 0 01-2.9-1.32L67.2 29.5c1.3.95 2.49 1.54 3.9 1.91 1.4.38 2.84.5 4.3.5 3.19 0 5.44-.81 7-2.43 1.56-1.61 2.2-3.98 2.2-7.1V7.04h-4.44zM78.9 18.33a3.31 3.31 0 01-2.7 1.15 3.31 3.31 0 01-2.69-1.15 4.56 4.56 0 01-.96-3.01c0-1.25.32-2.25.96-3.02a3.32 3.32 0 012.7-1.15c1.15 0 2.05.38 2.7 1.15.63.77.95 1.77.95 3.02 0 1.24-.32 2.24-.96 3zm11.13-3.03c0 1.24.32 2.24.96 3 .64.77 1.53 1.16 2.69 1.16s2.04-.39 2.68-1.15c.64-.77.96-1.77.96-3 0-1.24-.32-2.25-.96-3.01-.64-.77-1.53-1.15-2.69-1.15s-2.04.38-2.68 1.15a4.54 4.54 0 00-.96 3m-4.55 0c0-1.3.21-2.48.63-3.54.43-1.06 1.01-1.97 1.75-2.72a7.6 7.6 0 012.61-1.74 8.46 8.46 0 013.2-.6c1.14 0 2.2.2 3.2.6a7.62 7.62 0 012.62 1.74 8.18 8.18 0 011.74 2.72c.43 1.06.64 2.24.64 3.54 0 1.3-.21 2.49-.64 3.55a8.16 8.16 0 01-1.74 2.71 7.58 7.58 0 01-2.61 1.74 8.46 8.46 0 01-3.2.61 8.46 8.46 0 01-3.2-.6 7.57 7.57 0 01-2.62-1.75 8.19 8.19 0 01-1.75-2.71 9.45 9.45 0 01-.63-3.55"/></svg>
