<svg width="102" height="32" xmlns="http://www.w3.org/2000/svg">
  <g fill="#37454D" fill-rule="evenodd">
    <path d="M13.956 11.105H8.991v5.515c0 .45.055.86.105 1.232.049.37.175.691.347.962.172.27.444.478.801.624.357.146.835.22 1.426.22.295 0 .7-.028 1.18-.085.48-.056.838-.186 1.106-.387v4.219c-.67.202-1.27.337-1.935.405-.664.068-1.324.102-1.964.102-.936 0-1.8-.09-2.587-.27-.788-.18-1.479-.467-2.07-.861a4.165 4.165 0 01-1.398-1.537c-.332-.63-.513-1.394-.513-2.295v-7.844H0v-4.05h3.489v-4.86h5.502v4.86h4.965v4.05M15.298 7.055h5.1v2.7h.05c.537-1.08 1.174-1.784 1.912-2.29.738-.507 1.667-.767 2.786-.767.29 0 .589.01.879.031.291.024.545.066.814.133v4.626a9.313 9.313 0 00-1.065-.253 6.881 6.881 0 00-1.094-.085c-.963 0-1.725.135-2.284.406-.56.268-.99.647-1.293 1.13-.302.484-.49 1.064-.58 1.738a17.05 17.05 0 00-.126 2.23v6.873h-5.1V7.055M28.046 7.055h4.965v16.472h-4.965V7.055zm-.202-4.333c0-.743.26-1.377.783-1.902a2.567 2.567 0 011.89-.79c.738 0 1.369.264 1.89.79.523.525.784 1.159.784 1.902 0 .742-.261 1.375-.784 1.9a2.562 2.562 0 01-1.89.79 2.564 2.564 0 01-1.89-.79 2.597 2.597 0 01-.783-1.9zM33.671 7.055h5.436l4.127 11.207h.067l3.826-11.207h5.066L45.75 23.527h-5.335L33.671 7.055M60.732 16.371c-.38 0-.856-.01-1.427.023a7.229 7.229 0 00-1.644.273c-.525.158-.973.388-1.342.702-.369.316-.553.75-.553 1.313 0 .608.257 1.056.772 1.349.514.292 1.05.439 1.61.439.492 0 .967-.069 1.426-.204a4.231 4.231 0 001.225-.575c.358-.247.655-.561.868-.945.212-.382.33-.832.33-1.35V16.37h-1.265zm1.265 5.131h-.091c-.56.81-1.304 1.48-2.23 1.862a7.598 7.598 0 01-2.937.561c-.76 0-1.493-.113-2.198-.327a5.52 5.52 0 01-1.862-.966 4.641 4.641 0 01-1.275-1.589c-.314-.629-.47-1.361-.47-2.194 0-.945.173-1.745.52-2.398a4.662 4.662 0 011.409-1.621 6.985 6.985 0 012.03-.996c.76-.236 1.549-.41 2.367-.523.815-.112 1.632-.18 2.449-.204.816-.021 1.57-.033 2.264-.033 0-.9-.318-1.615-.956-2.144-.637-.529-1.393-.793-2.265-.793a4.91 4.91 0 00-2.265.523 6.204 6.204 0 00-1.828 1.435l-2.685-2.769a9.214 9.214 0 013.288-1.974c1.253-.44 2.55-.659 3.893-.659 1.476 0 2.689.186 3.64.557.95.372 1.711.919 2.282 1.639.57.72.945 1.602 1.169 2.65.223 1.046.313 2.256.313 3.629v8.36h-4.562v-2.026zM80.156 7.039v2.207h-.075c-.088-.12-.212-.305-.572-.616-.475-.41-.822-.605-1.291-.866a7.13 7.13 0 00-1.61-.642 8.523 8.523 0 00-2.08-.287c-1.168 0-2.234.32-3.154.805-.92.485-1.594.979-2.209 1.8-.605.809-.96 1.62-1.243 2.678-.284 1.056-.355 2.272-.355 3.356 0 1.242.186 2.418.487 3.483.303 1.07.792 2.036 1.424 2.765.688.793 1.394 1.203 2.382 1.62.987.418 2.037.57 3.25.557.767-.009 1.514-.179 2.376-.513 1.05-.407 1.784-1.169 2.073-1.58h.059v1.596c0 1.174-.255 2.14-.983 2.896-.73.756-1.793 1.162-3.343 1.162-1.031 0-1.68.022-2.73-.264-.912-.248-2.06-.685-2.91-1.313l-2.45 3.616c1.306.951 2.486 1.537 3.902 1.914 1.403.374 2.839.491 4.297.491 3.187 0 5.443-.807 7.003-2.422 1.56-1.614 2.196-3.98 2.196-7.097V7.039h-4.444zm-1.254 11.29c-.64.768-1.538 1.151-2.695 1.151-1.158 0-2.056-.383-2.696-1.151-.639-.767-.96-1.773-.96-3.014 0-1.242.321-2.247.96-3.015.64-.767 1.538-1.152 2.696-1.152 1.157 0 2.055.385 2.695 1.152.64.768.96 1.773.96 3.015 0 1.241-.32 2.247-.96 3.014zM90.031 15.303c0 1.237.32 2.24.957 3.004.638.765 1.533 1.148 2.687 1.148s2.049-.383 2.686-1.148c.638-.765.957-1.767.957-3.004 0-1.238-.32-2.24-.957-3.005-.637-.765-1.532-1.148-2.686-1.148s-2.049.383-2.687 1.148c-.637.765-.957 1.767-.957 3.005m-4.553 0c0-1.305.213-2.487.637-3.546.426-1.057 1.007-1.963 1.747-2.716a7.596 7.596 0 012.61-1.74 8.457 8.457 0 013.203-.608c1.133 0 2.2.203 3.202.608a7.615 7.615 0 012.611 1.74c.739.753 1.321 1.66 1.745 2.716.426 1.06.638 2.24.638 3.546 0 1.305-.212 2.486-.638 3.544-.424 1.059-1.006 1.965-1.745 2.718a7.585 7.585 0 01-2.61 1.738 8.456 8.456 0 01-3.203.609 8.46 8.46 0 01-3.203-.609 7.566 7.566 0 01-2.61-1.738c-.74-.753-1.321-1.66-1.747-2.718-.424-1.058-.637-2.24-.637-3.544"/>
  </g>
</svg>
