<svg xmlns="http://www.w3.org/2000/svg" viewBox="0 0 102 32"><path fill="#1391D2" d="M13.971 11.018H9V16.5c0 .93.082 2.119.959 2.655a4.649 4.649 0 002.9.283 2.242 2.242 0 001.107-.386v4.2a10.114 10.114 0 01-1.938.4c-3.556.359-8.54-.253-8.54-4.838v-7.8H0V6.988h3.492V2.153H9v4.836h4.97v4.03zm14.1-4.03h4.97v16.389h-4.97V6.989zm-.2-4.311a2.676 2.676 0 115.351 0 2.677 2.677 0 01-5.353 0" /><path fill="#1391D2" d="M15.314 6.989h5.105v2.686h.051A5.715 5.715 0 0122.384 7.4a6.338 6.338 0 014.482-.6v4.6c-1.029-.278-3.2-.715-4.717.211-.96.586-1.731 1.288-1.731 4.929v6.839h-5.105V6.989z" /><path fill="#FC9E15" d="M33.706 6.989h5.441l4.133 11.149h.066l3.83-11.149h5.071L45.8 23.377h-5.34" /><path fill="#FC9E15" d="M56.992 16.844c-1 .62-1.683 1.829-.763 2.775.9.922 2.522.829 3.632.441a2.98 2.98 0 002.2-2.784v-1.018c.017 0-3.794-.208-5.069.585zm5.07 4.518h-.093a5.079 5.079 0 01-2.232 1.852c-3.563 1.464-8.748-.019-8.75-4.492 0-4.655 5.07-5.606 8.784-5.712a89.25 89.25 0 012.267-.034 2.62 2.62 0 00-.957-2.132 4.243 4.243 0 00-4.535-.268A6.2 6.2 0 0054.716 12l-2.688-2.752a9.255 9.255 0 013.292-1.966 11.844 11.844 0 017.044-.27 5.625 5.625 0 013.952 4.437 17.479 17.479 0 01.314 3.61v8.317h-4.567v-2.014z"/><path fill="#E3403D" d="M80.24 6.973v2.2h-.076a3.041 3.041 0 00-.574-.613c-3.254-2.8-8.812-2.238-10.915 1.679a11.506 11.506 0 00-.924 6.812c.283 2.077 1.05 4.275 2.879 5.478a7.739 7.739 0 006.936.71 4.8 4.8 0 002.075-1.572h.059v1.588a3.9 3.9 0 01-.984 2.881c-1.449 1.493-4.218 1.4-6.079.894a9.223 9.223 0 01-2.914-1.307l-2.451 3.6a11.307 11.307 0 003.906 1.9c3.583.949 8.543.928 11.312-1.921 1.561-1.606 2.2-3.96 2.2-7.06V6.971h-4.448zM78.984 18.2a3.707 3.707 0 01-5.4 0 5.013 5.013 0 010-6 3.707 3.707 0 015.4 0 5.011 5.011 0 010 6c-.639.763.641-.763 0 0z" /><path fill="#E3403D" d="M90.124 15.195c0 2.215 1.289 4.13 3.648 4.13s3.647-1.915 3.647-4.131-1.287-4.133-3.647-4.133-3.647 1.917-3.648 4.134m-4.556 0a8.224 8.224 0 0114.711-5.43 9.491 9.491 0 01.687 9.766 8.214 8.214 0 01-15.4-4.336" /></svg>
