<svg xmlns="http://www.w3.org/2000/svg" viewBox="0 0 223 42"><g fill="#377DFF" fill-rule="evenodd"><path d="M59 31.8c1.4 0 2.7-.3 4-.9a7.4 7.4 0 0 0 2.7-2.3v2.5c0 .2.2.4.5.4h5.5a.5.5 0 0 0 .4-.4V10.4a.5.5 0 0 0-.4-.5h-5.5a.5.5 0 0 0-.5.5v11.3c0 1.4-.3 2.5-1.1 3.3-.8.8-1.8 1.2-3.2 1.2-1.3 0-2.3-.4-3.1-1.2a4.5 4.5 0 0 1-1.2-3.3V10.4a.5.5 0 0 0-.4-.5h-5.3a.5.5 0 0 0-.4.5v12c0 1.8 0 3.8.7 5.2a6.8 6.8 0 0 0 2.8 3 9 9 0 0 0 4.5 1.2Zm23.1 6V29c.8.8 1.6 1.2 2.8 1.8a8.3 8.3 0 0 0 8.7-.6 9 9 0 0 0 3.6-3.9 12.2 12.2 0 0 0 0-11.4c-.9-1.7-2-3-3.5-4a8.7 8.7 0 0 0-8.8-.5 8.5 8.5 0 0 0-2.8 2.5v-2a1 1 0 0 0-1-.9l-4.8.8a.5.5 0 0 0-.4.5v26.5a1 1 0 0 0 1 1l4.8-.7a.5.5 0 0 0 .4-.4Zm5-11.7a5 5 0 0 1-3.5-1.5c-1-1-1.5-2.2-1.5-3.9s.5-3 1.5-3.9a5 5 0 0 1 3.5-1.4 5 5 0 0 1 3.6 1.4c1 1 1.5 2.2 1.5 3.9 0 1.6-.5 3-1.5 4a5 5 0 0 1-3.6 1.4Zm20.5 5.4V3h-6.3v28.6h6.3Zm14 .4c2 0 4-.5 5.6-1.4a10 10 0 0 0 4-3.9c1-1.7 1.5-3.6 1.5-5.9s-.5-4.1-1.4-5.8a10 10 0 0 0-4-4c-1.7-.8-3.6-1.3-5.7-1.3-2 0-4 .5-5.7 1.4a10 10 0 0 0-4 3.9 11 11 0 0 0-1.4 5.8c0 2.3.5 4.2 1.4 6 1 1.6 2.3 2.9 4 3.8 1.6.9 3.5 1.4 5.6 1.4Zm0-5.8c-1.4 0-2.5-.4-3.3-1.4-.9-1-1.3-2.2-1.3-4 0-1.7.4-3 1.3-4 .9-.9 2-1.4 3.3-1.4 1.3 0 2.4.5 3.3 1.4.9 1 1.3 2.3 1.3 4 0 1.8-.4 3-1.3 4-1 1-2 1.4-3.4 1.4Zm23.2 5.8c1.5 0 2.8-.4 4-1 1.1-.6 2-1.4 2.7-2.4V31c0 .2.2.4.4.4h5a.5.5 0 0 0 .5-.4V10.7a.5.5 0 0 0-.3-.5l-4.6-.2a1 1 0 0 0-1 .9v2a7 7 0 0 0-2.7-2.4 8.4 8.4 0 0 0-4-.9 9 9 0 0 0-8.3 5.2 13 13 0 0 0-1.2 5.9c0 2.2.4 4.2 1.2 5.9.9 1.7 2 3 3.5 3.9 1.4.9 3 1.4 4.8 1.4Zm1.6-5.8c-1.4 0-2.5-.5-3.5-1.5s-1.4-2.3-1.4-4c0-1.6.5-2.9 1.4-3.8 1-1 2.1-1.4 3.5-1.4 1.3 0 2.5.5 3.4 1.4 1 1 1.5 2.3 1.5 4s-.5 2.9-1.5 3.8-2 1.5-3.4 1.5Zm23.2 5.8c1.6 0 3-.4 4.1-1a6.9 6.9 0 0 0 2.8-2.5v2.7c0 .2.2.4.4.4h5.3a.5.5 0 0 0 .5-.4V4.2a.5.5 0 0 0-.4-.4l-4.8-.8a1 1 0 0 0-1 1v8.9c-.7-1-1.7-1.8-2.9-2.4a9 9 0 0 0-4-.9c-1.8 0-3.5.5-5 1.4a9 9 0 0 0-3.4 3.8 13.8 13.8 0 0 0 0 11.8c1 1.7 2 3 3.4 3.9 1.5.9 3.2 1.4 5 1.4Zm27-21.9c2 0 3.8.4 5.4 1.3a9.3 9.3 0 0 1 3.8 3.7 11.1 11.1 0 0 1 1.3 6.7.8.8 0 0 1-.8.8h-14c0 1.3.5 2.3 1.2 3 .8.7 1.4 1 2.8 1 1.5.1 2.8-.4 3.9-1.5a1.6 1.6 0 0 1 1.2-.5h4.7a.4.4 0 0 1 .4.5c-.4 1.2-1 2.3-1.8 3.2a8 8 0 0 1-3.5 2.6 12 12 0 0 1-10.2-.3 9.5 9.5 0 0 1-3.9-3.8 12 12 0 0 1-1.3-5.8c0-2.2.4-4.1 1.3-5.8a9.3 9.3 0 0 1 3.8-3.8c1.6-.8 3.5-1.3 5.6-1.3Zm19.3.3c.2 0 .4.2.4.4v2a15.9 15.9 0 0 1 3.2-1.8l3-.6a.4.4 0 0 1 .5.5V16a.4.4 0 0 1-.3.4l-2.9.6a5 5 0 0 0-2.3.9c-.8.7-1.2 2-1.2 3.7V31a.4.4 0 0 1-.4.4h-5.7a.4.4 0 0 1-.4-.4V10.7c0-.2.2-.4.4-.4Zm-44.7 5a5.3 5.3 0 0 1 5.3 5.5 5 5 0 0 1-5.3 5.3c-1.4 0-2.6-.5-3.7-1.5s-1.5-2.3-1.5-4c0-1.6.5-2.9 1.5-3.8a5 5 0 0 1 3.7-1.4Zm25.3 0c-.9 0-1.7 0-2.8.9-.7.5-1.1 1.2-1.3 2.2a.4.4 0 0 0 .4.5h7.2a.4.4 0 0 0 .4-.5c-.2-1-.5-1.7-1-2.2-1-.8-2.1-1-3-1Z" fill-rule="nonzero"/><path d="m22 .7 12.5 6.5a6.6 6.6 0 0 1 3.6 5.8v15a6.6 6.6 0 0 1-3.6 5.8l-12.4 6.5a6.6 6.6 0 0 1-6.1 0L3.6 33.8A6.6 6.6 0 0 1 0 28V13a6.6 6.6 0 0 1 3.6-5.8L16 .7a6.6 6.6 0 0 1 6 0Zm-3 9.7-8.2 9.3a.3.3 0 0 0 .2.6h5l.7 8.1a.5.5 0 0 0 .6.5h3.6c.3 0 .5-.2.6-.5l.7-8.1h5a.3.3 0 0 0 .2-.6l-8.3-9.3Z"/></g></svg>
