<svg xmlns="http://www.w3.org/2000/svg" width="223" height="42"><script/><g fill="#377DFF" fill-rule="evenodd"><path fill-rule="nonzero" d="M58.982 31.777c1.44 0 2.752-.29 3.938-.872 1.187-.581 2.126-1.35 2.82-2.306v2.482c0 .256.207.464.463.464h5.467a.464.464 0 00.464-.464v-20.7a.464.464 0 00-.464-.464h-5.467a.464.464 0 00-.464.464v11.28c0 1.447-.386 2.571-1.16 3.372-.772.801-1.825 1.202-3.158 1.202-1.306 0-2.346-.4-3.119-1.202-.773-.8-1.16-1.925-1.16-3.372v-11.28a.464.464 0 00-.463-.464h-5.26a.464.464 0 00-.464.464v11.976c0 1.886-.006 3.826.714 5.22.72 1.396 1.489 2.359 2.795 3.095 1.306.737 2.812 1.105 4.518 1.105zm23.153 5.977v-8.613c.759.756 1.593 1.163 2.779 1.783 1.186.62 2.552.93 4.098.93 1.84 0 3.157-.596 4.65-1.513 1.493-.917 2.672-2.222 3.539-3.914.866-1.693 1.444-3.513 1.444-5.735 0-2.222-.578-4.06-1.444-5.74-.867-1.679-2.046-2.97-3.539-3.875-1.493-.905-2.81-1.47-4.65-1.47-1.573 0-2.945.31-4.118.93-1.173.62-2.093 1.435-2.76 2.442v-1.965a.927.927 0 00-1.08-.915l-4.754.8a.464.464 0 00-.386.457v26.548a.927.927 0 001.044.92l4.772-.61a.464.464 0 00.405-.46zM87.13 26.08c-1.403 0-2.593-.478-3.57-1.434-.977-.956-1.465-2.261-1.465-3.915s.488-2.959 1.465-3.915c.977-.956 2.167-1.434 3.57-1.434 1.431 0 2.635.472 3.612 1.415.976.943 1.465 2.242 1.465 3.895 0 1.654-.495 2.965-1.486 3.934-.99.97-2.187 1.454-3.59 1.454zm20.51 5.465V2.864h-6.36v28.68h6.36zm13.885.31c2.094 0 3.99-.453 5.687-1.357 1.698-.904 3.039-2.203 4.022-3.895.983-1.693 1.474-3.65 1.474-5.872s-.485-4.18-1.455-5.872c-.97-1.692-2.298-2.99-3.983-3.895-1.685-.904-3.575-1.357-5.669-1.357-2.093 0-3.983.453-5.668 1.357-1.685.904-3.013 2.203-3.983 3.895-.97 1.693-1.455 3.65-1.455 5.872 0 2.248.478 4.212 1.436 5.891.957 1.68 2.272 2.972 3.945 3.876 1.672.904 3.555 1.357 5.649 1.357zm-.003-5.737c-1.306 0-2.392-.465-3.258-1.395-.867-.93-1.3-2.26-1.3-3.992 0-1.757.44-3.094 1.32-4.011.88-.918 1.985-1.376 3.318-1.376 1.306 0 2.406.465 3.299 1.395.893.93 1.34 2.26 1.34 3.992 0 1.731-.46 3.062-1.38 3.992-.92.93-2.033 1.395-3.339 1.395zm23.245 5.737c1.525 0 2.862-.31 4.012-.93 1.15-.62 2.049-1.435 2.695-2.442v2.598c0 .256.207.464.463.464h4.986a.464.464 0 00.464-.462l.108-20.376a.464.464 0 00-.436-.465l-4.604-.268a.927.927 0 00-.981.926v2.08c-.62-1.008-1.506-1.822-2.656-2.442-1.15-.62-2.487-.93-4.012-.93-1.783 0-3.399.452-4.846 1.356-1.447.904-2.59 2.196-3.43 3.876-.84 1.68-1.26 3.63-1.26 5.852 0 2.222.42 4.18 1.26 5.872.84 1.693 1.983 2.997 3.43 3.915 1.447.917 3.05 1.376 4.807 1.376zm1.62-5.775c-1.359 0-2.512-.485-3.458-1.454-.946-.969-1.42-2.28-1.42-3.934 0-1.653.474-2.952 1.42-3.895.946-.943 2.1-1.415 3.459-1.415 1.36 0 2.512.478 3.458 1.434.946.956 1.42 2.261 1.42 3.915s-.474 2.959-1.42 3.915-2.099 1.434-3.458 1.434zm23.208 5.775c1.573 0 2.952-.31 4.138-.93 1.187-.62 2.1-1.448 2.74-2.481v2.637c0 .256.207.464.463.464h5.298a.464.464 0 00.463-.464V4.214a.464.464 0 00-.393-.458l-4.764-.73a.927.927 0 00-1.068.917v8.959c-.693-1.008-1.646-1.809-2.859-2.403-1.212-.594-2.552-.892-4.018-.892-1.84 0-3.505.453-4.998 1.357-1.492.904-2.483 2.196-3.349 3.876-.866 1.68-1.3 3.63-1.3 5.852 0 2.222.434 4.18 1.3 5.872.866 1.693 1.857 2.997 3.35 3.915 1.492.917 3.158 1.376 4.997 1.376zm26.933-21.84c2.06 0 3.892.43 5.495 1.29a9.29 9.29 0 013.759 3.679c.903 1.593 1.354 3.452 1.354 5.576 0 .276-.017.657-.053 1.144a.812.812 0 01-.81.753h-14.02c.103 1.315.529 2.32 1.28 3.016.75.695 1.389.964 2.766 1.043 1.543.088 2.835-.423 3.876-1.535a1.624 1.624 0 011.185-.514h4.73a.406.406 0 01.384.536c-.416 1.238-1.003 2.311-1.76 3.22-1.299 1.555-2.093 1.985-3.492 2.617-1.4.632-2.964.948-4.694.948-2.086 0-3.943-.442-5.572-1.327-1.628-.885-2.9-2.15-3.816-3.794-.915-1.643-1.373-3.565-1.373-5.766 0-2.2.451-4.122 1.354-5.765a9.349 9.349 0 013.797-3.794c1.628-.885 3.498-1.328 5.61-1.328zm19.388.303c.224 0 .406.182.406.406v2.02a15.905 15.905 0 013.187-1.797c.712-.295 1.73-.494 3.053-.599a.406.406 0 01.438.405v5.377a.406.406 0 01-.335.4c-1.06.187-1.999.36-2.819.521-.964.188-1.734.463-2.303.949-.814.695-1.221 1.915-1.221 3.66v9.42a.406.406 0 01-.406.405h-5.714a.406.406 0 01-.405-.406V10.724c0-.224.181-.406.405-.406zm-44.676 5.064c1.454 0 2.687.478 3.699 1.434s1.518 2.261 1.518 3.915-.506 2.959-1.518 3.915-2.245 1.434-3.7 1.434c-1.453 0-2.687-.485-3.699-1.454s-1.518-2.28-1.518-3.934c0-1.653.506-2.952 1.518-3.895 1.012-.943 2.246-1.415 3.7-1.415zm25.212-.17c-.85 0-1.611 0-2.767.948-.657.539-1.092 1.271-1.303 2.197a.406.406 0 00.395.496h7.22a.406.406 0 00.4-.472c-.162-.986-.524-1.714-1.083-2.183-.97-.812-2.012-.987-2.862-.987z"/><path d="M22.086.736L34.5 7.157a6.627 6.627 0 013.583 5.887v14.912a6.627 6.627 0 01-3.583 5.887l-12.414 6.42a6.627 6.627 0 01-6.089 0l-12.414-6.42A6.627 6.627 0 010 27.956V13.044a6.627 6.627 0 013.583-5.887L15.997.737a6.627 6.627 0 016.09 0zm-2.995 9.636l-8.309 9.36a.334.334 0 00.25.556h4.97l.73 8.108a.534.534 0 00.53.486h3.657a.535.535 0 00.532-.486l.728-8.109 4.971.001a.334.334 0 00.25-.555l-8.31-9.36z"/></g></svg>
